<svg width="333.70666666666665" height="455.85333333333324" xmlns="http://www.w3.org/2000/svg" xmlns:svg="http://www.w3.org/2000/svg">
 <metadata id="metadata7">image/svg+xml</metadata>

 <g>
  <title>Layer 1</title>
  <path d="m58.95454,347.23395c-67.99208,-104.38307 14.10555,-113.70547 -6.83571,-256.60992c51.35742,67.41695 65.69573,150.11137 87.25644,174.57001c14.88034,19.20859 22.21919,42.3949 20.21849,66.21725c-0.20175,18.85367 23.62509,41.6983 17.1098,59.30051c-34.64389,-27.74878 -94.23253,-9.66226 -117.74903,-43.47784z" id="path2043" stroke-width="1.0000004pt" fill-rule="evenodd" fill="#00007f"/>
  <path d="m161.7809,377.71368c0.39304,-19.99023 -23.79616,-28.66238 -33.52621,-44.27448c-16.11471,-11.92496 -21.21929,-30.48685 -21.57498,-48.76584c-1.3098,-29.23367 24.74826,-203.54259 62.71112,-250.35614c-14.5484,71.88596 21.56903,167.64252 43.88286,199.32079c15.09956,24.61357 20.77625,52.95274 15.3373,80.83769c-2.67223,22.24722 -21.10112,35.61533 -31.07051,55.56906c-9.97252,12.01678 -23.5441,13.15533 -35.75957,7.66891z" id="path2041" stroke-width="1.0000002pt" fill-rule="evenodd" fill="#00007f"/>
  <path d="m175.5607,387.49258c5.78662,-17.36703 -5.66486,-44.89496 -9.27092,-61.00223c-9.78333,-14.50378 -8.83797,-32.01614 -4.1256,-48.07773c6.93672,-25.87512 8.08192,-147.98087 120.02512,-205.3219c-86.81754,85.18265 -29.17041,154.41089 -19.77231,187.74551c5.49048,25.33325 2.68381,51.73715 -9.69748,74.51978c-17.09363,31.45383 -62.73308,48.78928 -77.15881,52.13657z" id="path2063" stroke-width="1.0000002pt" fill-rule="evenodd" fill="#00007f"/>
  <path d="m157.11595,377.31308c0.29729,-16.31976 -17.99898,-23.39954 -25.35861,-36.14505c-12.18886,-9.73538 -16.04987,-24.88901 -16.31891,-39.81174c-0.99071,-23.86597 23.32574,-150.04613 42.82692,-204.38722c-13.30745,123.17928 20.92102,136.86099 37.79878,162.72267c11.42102,20.09418 15.71477,43.22989 11.60085,65.99475c-2.02122,18.16232 -10.73396,34.71701 -18.27463,51.00696c-7.54301,9.81033 -23.03485,5.09866 -32.2744,0.61963z" id="path1305" stroke-width="1.0000000pt" fill-rule="evenodd" fill="#007fff"/>
  <path d="m86.96291,353.92651c-69.84064,-71.70462 6.25674,-76.69827 -13.1125,-175.1747c23.00299,46.4166 42.07788,81.28575 50.45385,114.24382c12.39538,11.63806 55.22529,82.68295 52.65835,95.56354c-26.99225,-15.36667 -69.88969,-13.98593 -89.9997,-34.63266z" id="path2061" stroke-width="1.0000004pt" fill-rule="evenodd" fill="#007fff"/>
  <path d="m100.90993,349.60901c-41.7784,-39.65939 -10.57841,-62.94495 -10.95167,-112.47984c11.54927,43.35274 48.07975,54.03502 47.61073,80.07765c6.03491,7.79028 37.63431,63.34457 34.99194,70.48334c-14.05023,-11.25385 -55.82176,-23.05478 -71.651,-38.08115z" id="path2051" stroke-width="1.0000004pt" fill-rule="evenodd" fill="#aaffff"/>
  <path d="m168.06467,344.26385c-7.34039,-10.88214 -6.6311,-24.02161 -3.09543,-36.07254c5.20461,-19.414 28.07133,-127.32404 60.7381,-150.79486c-23.59103,44.36028 7.42986,112.59653 14.4812,137.60736c4.11949,19.00745 5.27165,41.48987 -7.27597,55.91193c-18.95541,21.78708 -42.88182,34.47507 -56.28999,37.51706c-8.52365,5.98154 -5.85229,-32.08371 -8.55791,-44.16895z" id="path2045" stroke-width="1.0000002pt" fill-rule="evenodd" fill="#007fff"/>
  <path d="m156.26263,378.50754c0.58986,-9.98438 -10.43517,-14.77625 -14.6226,-22.76364c-7.21938,-6.26514 -9.20457,-15.6395 -8.99637,-24.78268c-0.01015,-14.63678 -0.50958,-105.87648 18.02599,-128.55794c-8.20393,35.6561 22.69144,88.80791 32.37859,105.06358c6.49039,12.58817 8.54106,26.86035 5.4534,40.6954c-1.69139,11.06943 -7.43953,20.98737 -12.46341,30.77249c-4.86342,5.8179 -14.23059,2.54602 -19.77559,-0.42722z" id="path1310" stroke-width="0.99999981pt" fill-rule="evenodd" fill="#aaffff"/>
  <path d="m165.07971,379.78284c4.74577,-6.95044 -1.13754,-15.17905 -0.70358,-22.75531c-2.49934,-7.6452 0.12405,-15.26956 4.23044,-21.77805c6.32576,-10.56763 17.44223,-89.10139 40.63312,-97.45039c-21.34854,22.18303 15.72362,81.49477 15.68121,97.41783c-0.76263,11.89307 -15.23012,27.96655 -23.44464,36.61523c-6.01024,7.2569 -17.90489,14.23077 -25.76445,19.11887c-6.02721,-3.66385 -7.91678,-6.6232 -10.6321,-11.16818z" id="path2047" stroke-width="0.99999981pt" fill-rule="evenodd" fill="#aaffff"/>
  <path d="m156.0795,370.83478c-14.75607,-23.24142 -9.28152,-49.17026 -3.00633,-77.45117c2.85863,19.18918 14.76662,42.47568 21.49823,50.11206c4.64589,5.99725 6.93719,13.23639 6.31255,20.67413c-0.06299,5.88641 -3.05125,13.01889 -5.08543,18.51459c-10.81639,-8.66364 -12.37677,-1.29184 -19.71901,-11.84961z" id="path2049" stroke-width="1.0000011pt" fill-rule="evenodd" fill="#ffffff"/>
  <path d="m173.66742,360.30753c11.43123,-25.04462 0.11491,-44.76144 26.31412,-64.40897c-7.82358,18.21469 10.06972,46.97556 8.12273,56.94846c-3.27428,16.77161 -25.88509,29.25443 -31.60083,30.54706c1.36171,-13.79126 -7.68024,-11.17401 -2.83601,-23.08655z" id="path2065" stroke-width="1.0000011pt" fill-rule="evenodd" fill="#ffffff"/>
  <path d="m92.04954,278.33688c61.45324,77.716 60.09501,38.48053 84.46493,105.03729c-116.1587,-51.71719 -64.02596,-47.04919 -84.46493,-105.03729z" id="path2067" stroke-width="1.0000011pt" fill-rule="evenodd" fill="#ffffff"/>
 </g>
</svg>