<svg id="Layer_1" data-name="Layer 1" xmlns="http://www.w3.org/2000/svg" viewBox="0 0 512 512"><defs><style>.cls-5{opacity:.1}.cls-6{fill:#231f20}.cls-7{fill:#c1b6a3}</style></defs><path d="M326.4 134.21a70.4 70.4 0 1 1-140.8 0C185.6 95.17 256 0 256 0s70.4 95.17 70.4 134.21z" fill="#f9704b"/><rect x="160" y="243.2" width="192" height="268.8" rx="19.2" ry="19.2" fill="#e5decf"/><path d="M305.24 156.25a48.84 48.84 0 0 1-97.68 0c0-26.82 48.84-92.25 48.84-92.25s48.84 65.43 48.84 92.25z" fill="#f7b24d"/><path d="M278.6 182.73a22.2 22.2 0 0 1-44.4 0c0-12.19 22.2-41.93 22.2-41.93s22.2 29.74 22.2 41.93z" fill="#ffecd4"/><g class="cls-5"><path class="cls-6" d="M256 204.8V0s70.4 95.17 70.4 134.21A70.48 70.48 0 0 1 256 204.8z"/></g><g class="cls-5"><path class="cls-6" d="M352 262.4v230.4a19.17 19.17 0 0 1-19.2 19.2H256V243.2h76.8a19.17 19.17 0 0 1 19.2 19.2z"/></g><path class="cls-7" d="M108.8 473.6h294.4V512H108.8zM256 204.8a70.26 70.26 0 0 1-19.2-2.68v41.08h38.4v-41.08a70.26 70.26 0 0 1-19.2 2.68z"/></svg>