<svg xmlns="http://www.w3.org/2000/svg" xmlns:xlink="http://www.w3.org/1999/xlink" width="48" height="48"><defs><linearGradient xlink:href="#a" id="O" gradientUnits="userSpaceOnUse" x1="284.802" y1="-441.233" x2="288.9" y2="-436.831"/><linearGradient xlink:href="#b" id="N" gradientUnits="userSpaceOnUse" x1="286.666" y1="-439.484" x2="289.766" y2="-436.707"/><linearGradient xlink:href="#c" id="M" gradientUnits="userSpaceOnUse" x1="275.942" y1="-437.105" x2="279.975" y2="-431.918"/><linearGradient xlink:href="#a" id="L" gradientUnits="userSpaceOnUse" x1="285.941" y1="-439.939" x2="289.391" y2="-436.443"/><linearGradient xlink:href="#d" id="K" gradientUnits="userSpaceOnUse" x1="286.512" y1="-441.291" x2="289.854" y2="-436.145"/><linearGradient xlink:href="#e" id="J" gradientUnits="userSpaceOnUse" x1="287.517" y1="-439.753" x2="289.676" y2="-436.322"/><linearGradient xlink:href="#f" id="I" gradientUnits="userSpaceOnUse" x1="271.022" y1="-441.052" x2="285.029" y2="-431.97"/><linearGradient xlink:href="#a" id="H" gradientUnits="userSpaceOnUse" x1="284.802" y1="-441.233" x2="288.9" y2="-436.831"/><linearGradient id="b"><stop offset="0" stop-color="#fff"/><stop offset="1" stop-color="#fff" stop-opacity="0"/></linearGradient><linearGradient xlink:href="#b" id="G" gradientUnits="userSpaceOnUse" x1="286.666" y1="-439.484" x2="289.766" y2="-436.707"/><linearGradient id="c"><stop offset="0" stop-color="#fff"/><stop offset="1" stop-color="#fff" stop-opacity="0"/></linearGradient><linearGradient xlink:href="#c" id="F" gradientUnits="userSpaceOnUse" x1="275.942" y1="-437.105" x2="279.975" y2="-431.918"/><linearGradient id="a"><stop offset="0" stop-color="#fff"/><stop offset="1" stop-color="#fff" stop-opacity="0"/></linearGradient><linearGradient xlink:href="#a" id="E" gradientUnits="userSpaceOnUse" x1="285.941" y1="-439.939" x2="289.391" y2="-436.443"/><linearGradient id="d"><stop offset="0" stop-color="#fff"/><stop offset="1" stop-color="#fff" stop-opacity="0"/></linearGradient><linearGradient xlink:href="#d" id="D" gradientUnits="userSpaceOnUse" x1="286.512" y1="-441.291" x2="289.854" y2="-436.145"/><linearGradient id="e"><stop offset="0" stop-color="#fff"/><stop offset="1" stop-color="#fff" stop-opacity="0"/></linearGradient><linearGradient xlink:href="#e" id="C" gradientUnits="userSpaceOnUse" x1="287.517" y1="-439.753" x2="289.676" y2="-436.322"/><linearGradient id="f"><stop offset="0" stop-color="#fff"/><stop offset="1" stop-color="#fff" stop-opacity="0"/></linearGradient><linearGradient xlink:href="#f" id="B" gradientUnits="userSpaceOnUse" x1="271.022" y1="-441.052" x2="285.029" y2="-431.97"/><linearGradient id="g"><stop offset="0" stop-color="#fff"/><stop offset="1" stop-color="#fff" stop-opacity="0"/></linearGradient><linearGradient xlink:href="#g" id="A" gradientUnits="userSpaceOnUse" x1="-156.29" y1="-100.534" x2="-153.098" y2="-96.545"/><linearGradient id="h"><stop offset="0" stop-color="#fff"/><stop offset="1" stop-color="#fff" stop-opacity="0"/></linearGradient><linearGradient xlink:href="#h" id="z" gradientUnits="userSpaceOnUse" x1="238.005" y1="-388.475" x2="245.655" y2="-382.645"/><linearGradient id="i"><stop offset="0" stop-color="#fff"/><stop offset="1" stop-color="#fff" stop-opacity="0"/></linearGradient><linearGradient xlink:href="#i" id="y" gradientUnits="userSpaceOnUse" x1="230.876" y1="-390.44" x2="235.257" y2="-386.959"/><linearGradient id="j"><stop offset="0" stop-color="#fff"/><stop offset="1" stop-color="#fff" stop-opacity="0"/></linearGradient><linearGradient xlink:href="#j" id="x" gradientUnits="userSpaceOnUse" x1="246.74" y1="-391.314" x2="252.698" y2="-385.352"/><linearGradient id="k"><stop offset="0" stop-color="#fff"/><stop offset="1" stop-color="#fff" stop-opacity="0"/></linearGradient><linearGradient xlink:href="#k" id="w" gradientUnits="userSpaceOnUse" x1="240.074" y1="-393.407" x2="245.827" y2="-388.55"/><linearGradient id="l"><stop offset="0" stop-color="#fff"/><stop offset="1" stop-color="#fff" stop-opacity="0"/></linearGradient><linearGradient xlink:href="#l" id="v" gradientUnits="userSpaceOnUse" gradientTransform="translate(69.003 102)" x1="228.503" y1="-392.306" x2="278.915" y2="-375.38"/><linearGradient id="u"><stop offset="0" stop-color="#fff"/><stop offset="1" stop-color="#fff" stop-opacity="0"/></linearGradient><linearGradient id="t"><stop offset="0" stop-color="#fff"/><stop offset="1" stop-color="#fff" stop-opacity="0"/></linearGradient><linearGradient id="o"><stop offset="0" stop-color="#fff"/><stop offset="1" stop-color="#fff" stop-opacity="0"/></linearGradient><linearGradient id="m"><stop offset="0" stop-color="#fff"/><stop offset="1" stop-color="#fff" stop-opacity="0"/></linearGradient><linearGradient id="s"><stop offset="0" stop-color="#edd400"/><stop offset="1" stop-color="#edd400" stop-opacity="0"/></linearGradient><linearGradient id="n"><stop offset="0" stop-color="#fcaf3e"/><stop offset="1" stop-color="#fcaf3e" stop-opacity="0"/></linearGradient><linearGradient id="r"><stop offset="0" stop-color="#fce94f"/><stop offset="1" stop-color="#fce94f" stop-opacity="0"/></linearGradient><linearGradient id="q"><stop offset="0" stop-color="#eeeeec"/><stop offset="1" stop-color="#eeeeec" stop-opacity="0"/></linearGradient><linearGradient id="p"><stop offset="0" stop-color="#fff"/><stop offset="1" stop-color="#fff" stop-opacity="0"/></linearGradient></defs><path d="M24.503 2c-2.773 0-5.109 1.574-6.407 3.813C17.152 5.337 16.131 5 15.003 5c-3.864 0-7 3.136-7 7s3.136 7 7 7c2.42 0 4.43-1.32 5.687-3.188 1.134.69 2.39 1.188 3.813 1.188.913 0 1.753-.232 2.562-.531.51.867 1.18 1.58 2 2.156-.007.13-.062.243-.062.375 0 3.864 3.136 7 7 7s7-3.136 7-7c0-2.37-1.26-4.358-3.063-5.625.007-.13.063-.243.063-.375 0-3.864-3.136-7-7-7-.623 0-1.176.222-1.75.375C30.058 3.816 27.51 2 24.503 2z" fill="#888a85"/><path d="M311.503-295c-2.78 0-5.135 1.762-6.063 4.219-.985-.71-2.131-1.219-3.437-1.219-3.312 0-6 2.688-6 6s2.688 6 6 6c2.427 0 4.493-1.456 5.437-3.531 1.12.917 2.502 1.531 4.063 1.531 1.074 0 2.044-.319 2.937-.781.398 1 1.101 1.786 1.938 2.437-.18.596-.375 1.19-.375 1.844 0 3.588 2.912 6.5 6.5 6.5s6.5-2.912 6.5-6.5c0-2.36-1.335-4.33-3.22-5.469.063-.347.22-.666.22-1.031a6.002 6.002 0 0 0-8.407-5.5c-.853-2.594-3.215-4.5-6.093-4.5z" fill="url(#v)" transform="translate(-287 298)"/><path d="M42.003 19.5a6.5 6.5 0 1 1-13 0 6.5 6.5 0 1 1 13 0zM30.003 9.5a5.5 5.5 0 1 1-11 0 5.5 5.5 0 1 1 11 0z" fill="#c4c5c2"/><path d="M250.183-389.301a6.231 6.231 0 1 1-12.463 0 6.231 6.231 0 1 1 12.463 0z" transform="translate(-190.817 353.11) scale(.88263)" fill="url(#w)"/><path d="M38.003 13.5a5.5 5.5 0 1 1-11 0 5.5 5.5 0 1 1 11 0z" fill="#c4c5c2"/><path d="M257.254-385.788a6.033 6.033 0 1 1-12.065 0 6.033 6.033 0 1 1 12.065 0z" transform="matrix(.91173 0 0 .91173 -196.543 365.234)" fill="url(#x)"/><path d="M20.003 12a5 5 0 1 1-10 0 5 5 0 1 1 10 0z" fill="#c4c5c2"/><path d="M237.809-387.887a4.375 4.375 0 1 1-8.75 0 4.375 4.375 0 1 1 8.75 0z" transform="matrix(1.1428 0 0 1.1428 -251.765 455.277)" fill="url(#y)"/><path d="M31.003 16a7 7 0 1 1-14 0 7 7 0 1 1 14 0z" fill="#c4c5c2"/><path d="M248.548-383.667a6.74 6.74 0 1 1-13.48 0 6.74 6.74 0 1 1 13.48 0z" transform="matrix(1.03864 0 0 1.03864 -227.148 414.49)" fill="url(#z)"/><g><path d="M16.587 18.4a5.078 5.078 0 1 1-10.155 0 5.078 5.078 0 1 1 10.155 0z" fill="#c4c5c2"/><path d="M-151.938-96.938a3.125 3.125 0 1 1-6.25 0 3.125 3.125 0 1 1 6.25 0z" transform="matrix(1.62483 0 0 1.62483 263.518 175.849)" fill="url(#A)"/></g><g><path d="M31.503 14.5c-2.271 0-4.11 1.55-4.72 3.625-.692-.364-1.444-.625-2.28-.625-2.76 0-5 2.24-5 5 0 .579.162 1.108.343 1.625-1.373.77-2.343 2.189-2.343 3.875 0 2.484 2.016 4.5 4.5 4.5h19c2.484 0 4.5-2.016 4.5-4.5 0-1.686-.97-3.104-2.344-3.875.181-.517.344-1.046.344-1.625 0-2.76-2.24-5-5-5-.837 0-1.588.261-2.282.625-.608-2.075-2.448-3.625-4.718-3.625z" fill="#c4c5c2" stroke="#888a85" stroke-miterlimit="2"/><path d="M280.5-445c-2.19 0-3.724 1.336-4.396 3.844-.668-.344-1.547-.834-2.354-.834-2.717 0-4.755 1.939-4.755 4.546 0 .546.267 1.333.442 1.822-1.325.728-2.437 1.89-2.437 3.372 0 2.346 1.546 4.25 4.34 4.25h18.32c2.772 0 4.34-1.904 4.34-4.25 0-1.592-1.112-2.666-2.437-3.394.175-.489.464-1.254.464-1.8 0-2.607-2.116-4.568-4.777-4.568-.807 0-1.642.49-2.31.833-.65-2.421-2.25-3.821-4.44-3.821z" fill="url(#B)" transform="translate(-248.997 460)"/><path d="M35.003 19.5a3.5 3.5 0 1 1-7 0 3.5 3.5 0 1 1 7 0z" fill="#c4c5c2"/><path transform="matrix(1.0566 0 0 1.0566 -273.196 481.863)" d="M291.688-437.594a3.313 3.313 0 1 1-6.625 0 3.313 3.313 0 1 1 6.625 0z" fill="url(#C)"/><path fill="#c4c5c2" d="M22.003 22h20v9h-20z"/><path d="M25.002 28a3 3 0 1 1-6 0 3 3 0 1 1 6 0zM42.003 22.5a3.5 3.5 0 1 1-7 0 3.5 3.5 0 1 1 7 0z" fill="#c4c5c2"/><path transform="matrix(1.0566 0 0 1.0566 -266.196 484.863)" d="M291.688-437.594a3.313 3.313 0 1 1-6.625 0 3.313 3.313 0 1 1 6.625 0z" fill="url(#D)"/><path d="M28.003 22.5a3.5 3.5 0 1 1-7 0 3.5 3.5 0 1 1 7 0z" fill="#c4c5c2"/><path transform="matrix(1.0566 0 0 1.0566 -280.196 484.863)" d="M291.688-437.594a3.313 3.313 0 1 1-6.625 0 3.313 3.313 0 1 1 6.625 0z" fill="url(#E)"/><path d="M30.471 19.031c-3.579 0-6.468 2.92-6.468 6.5 0 2.37 1.349 4.338 3.25 5.469h6.468c1.9-1.131 3.25-3.13 3.25-5.5 0-3.58-2.92-6.469-6.5-6.469z" fill="#c4c5c2"/><path d="M280.5-441a6.502 6.502 0 0 0-6.5 6.5c0 2.376 1.345 4.366 3.25 5.5h6.5c1.905-1.134 3.25-3.124 3.25-5.5 0-3.588-2.912-6.5-6.5-6.5z" fill="url(#F)" transform="translate(-249.997 460)"/><path d="M291.688-437.594a3.313 3.313 0 1 1-6.625 0 3.313 3.313 0 1 1 6.625 0z" transform="translate(-239.167 424.311) scale(.90566)" fill="url(#G)"/><path d="M43.959 22.666c-.002 2.685-3.27 3.714-3.27 3.714s2.35-1.626 2.338-3.705l.932-.009z" fill="#888a85" fill-rule="evenodd"/><g><path d="M39.003 27a4 4 0 1 1-8 0 4 4 0 1 1 8 0z" fill="#c4c5c2"/><path transform="matrix(1.20755 0 0 1.20755 -313.224 555.415)" d="M291.688-437.594a3.313 3.313 0 1 1-6.625 0 3.313 3.313 0 1 1 6.625 0z" fill="url(#H)"/></g></g><g><path d="M16.5 10.5c-2.27 0-4.11 1.55-4.719 3.625-.693-.364-1.444-.625-2.281-.625-2.76 0-5 2.24-5 5 0 .579.163 1.108.344 1.625C3.47 20.895 2.5 22.314 2.5 24c0 2.484 2.016 4.5 4.5 4.5h19c2.484 0 4.5-2.016 4.5-4.5 0-1.686-.97-3.104-2.344-3.875.181-.517.344-1.046.344-1.625 0-2.76-2.24-5-5-5-.837 0-1.588.261-2.281.625-.61-2.075-2.448-3.625-4.719-3.625z" fill="#c4c5c2" stroke="#888a85" stroke-miterlimit="2"/><path d="M280.5-445c-2.19 0-3.724 1.336-4.396 3.844-.668-.344-1.547-.834-2.354-.834-2.717 0-4.755 1.939-4.755 4.546 0 .546.267 1.333.442 1.822-1.325.728-2.437 1.89-2.437 3.372 0 2.346 1.546 4.25 4.34 4.25h18.32c2.772 0 4.34-1.904 4.34-4.25 0-1.592-1.112-2.666-2.437-3.394.175-.489.464-1.254.464-1.8 0-2.607-2.116-4.568-4.777-4.568-.807 0-1.642.49-2.31.833-.65-2.421-2.25-3.821-4.44-3.821z" fill="url(#I)" transform="translate(-264 456)"/><path d="M20 15.5a3.5 3.5 0 1 1-7 0 3.5 3.5 0 1 1 7 0z" fill="#c4c5c2"/><path transform="matrix(1.0566 0 0 1.0566 -288.198 477.863)" d="M291.688-437.594a3.313 3.313 0 1 1-6.625 0 3.313 3.313 0 1 1 6.625 0z" fill="url(#J)"/><path fill="#c4c5c2" d="M7 18h20v9H7z"/><path d="M10 24a3 3 0 1 1-6 0 3 3 0 1 1 6 0zM27 18.5a3.5 3.5 0 1 1-7 0 3.5 3.5 0 1 1 7 0z" fill="#c4c5c2"/><path transform="matrix(1.0566 0 0 1.0566 -281.198 480.863)" d="M291.688-437.594a3.313 3.313 0 1 1-6.625 0 3.313 3.313 0 1 1 6.625 0z" fill="url(#K)"/><path d="M13 18.5a3.5 3.5 0 1 1-7 0 3.5 3.5 0 1 1 7 0z" fill="#c4c5c2"/><path transform="matrix(1.0566 0 0 1.0566 -295.198 480.863)" d="M291.688-437.594a3.313 3.313 0 1 1-6.625 0 3.313 3.313 0 1 1 6.625 0z" fill="url(#L)"/><path d="M15.469 15.031c-3.58 0-6.469 2.92-6.469 6.5 0 2.37 1.35 4.338 3.25 5.469h6.469c1.9-1.131 3.25-3.13 3.25-5.5 0-3.58-2.92-6.469-6.5-6.469z" fill="#c4c5c2"/><path d="M280.5-441a6.502 6.502 0 0 0-6.5 6.5c0 2.376 1.345 4.366 3.25 5.5h6.5c1.905-1.134 3.25-3.124 3.25-5.5 0-3.588-2.912-6.5-6.5-6.5z" fill="url(#M)" transform="translate(-265 456)"/><path d="M291.688-437.594a3.313 3.313 0 1 1-6.625 0 3.313 3.313 0 1 1 6.625 0z" transform="translate(-254.17 420.311) scale(.90566)" fill="url(#N)"/><path d="M28.956 18.666c-.001 2.685-3.269 3.714-3.269 3.714s2.349-1.626 2.337-3.705l.932-.009z" fill="#888a85" fill-rule="evenodd"/><g><path d="M24 23a4 4 0 1 1-8 0 4 4 0 1 1 8 0z" fill="#c4c5c2"/><path transform="matrix(1.20755 0 0 1.20755 -328.226 551.415)" d="M291.688-437.594a3.313 3.313 0 1 1-6.625 0 3.313 3.313 0 1 1 6.625 0z" fill="url(#O)"/></g></g></svg>