<svg xmlns="http://www.w3.org/2000/svg" viewBox="0 0 50 50" xmlns:xlink="http://www.w3.org/1999/xlink" width="44" height="49" version="1"><defs><linearGradient xlink:href="#a" id="E" gradientUnits="userSpaceOnUse" gradientTransform="matrix(-.05359 .10285 -.09281 -.05938 198.905 -255.69)" x1="6.894" y1="-359.824" x2="27.4" y2="-381.302"/><radialGradient xlink:href="#b" id="D" gradientUnits="userSpaceOnUse" gradientTransform="matrix(.07065 .04155 -.06201 .1094 207.476 -189.818)" cx="21.92" cy="-382.965" fx="21.92" fy="-382.965" r="21.744"/><linearGradient xlink:href="#c" id="X" gradientUnits="userSpaceOnUse" x1="284.802" y1="-441.233" x2="288.9" y2="-436.831"/><linearGradient xlink:href="#d" id="W" gradientUnits="userSpaceOnUse" x1="286.666" y1="-439.484" x2="289.766" y2="-436.707"/><linearGradient xlink:href="#e" id="V" gradientUnits="userSpaceOnUse" gradientTransform="translate(-35 207)" x1="275.942" y1="-437.105" x2="279.975" y2="-431.918"/><linearGradient xlink:href="#c" id="U" gradientUnits="userSpaceOnUse" x1="285.941" y1="-439.939" x2="289.391" y2="-436.443"/><linearGradient xlink:href="#f" id="T" gradientUnits="userSpaceOnUse" x1="286.512" y1="-441.291" x2="289.854" y2="-436.145"/><linearGradient xlink:href="#g" id="S" gradientUnits="userSpaceOnUse" x1="287.517" y1="-439.753" x2="289.676" y2="-436.322"/><linearGradient xlink:href="#h" id="R" gradientUnits="userSpaceOnUse" gradientTransform="translate(-34 207)" x1="271.022" y1="-441.052" x2="285.029" y2="-431.97"/><linearGradient xlink:href="#c" id="Q" gradientUnits="userSpaceOnUse" x1="284.802" y1="-441.233" x2="288.9" y2="-436.831"/><linearGradient xlink:href="#d" id="P" gradientUnits="userSpaceOnUse" x1="286.666" y1="-439.484" x2="289.766" y2="-436.707"/><linearGradient xlink:href="#e" id="O" gradientUnits="userSpaceOnUse" gradientTransform="translate(-35 207)" x1="275.942" y1="-437.105" x2="279.975" y2="-431.918"/><linearGradient xlink:href="#c" id="N" gradientUnits="userSpaceOnUse" x1="285.941" y1="-439.939" x2="289.391" y2="-436.443"/><linearGradient xlink:href="#f" id="M" gradientUnits="userSpaceOnUse" x1="286.512" y1="-441.291" x2="289.854" y2="-436.145"/><linearGradient xlink:href="#g" id="L" gradientUnits="userSpaceOnUse" x1="287.517" y1="-439.753" x2="289.676" y2="-436.322"/><linearGradient xlink:href="#h" id="K" gradientUnits="userSpaceOnUse" gradientTransform="translate(-34 207)" x1="271.022" y1="-441.052" x2="285.029" y2="-431.97"/><linearGradient xlink:href="#i" id="J" gradientUnits="userSpaceOnUse" x1="238.005" y1="-388.475" x2="245.655" y2="-382.645"/><linearGradient xlink:href="#j" id="I" gradientUnits="userSpaceOnUse" x1="230.876" y1="-390.44" x2="235.257" y2="-386.959"/><linearGradient xlink:href="#k" id="H" gradientUnits="userSpaceOnUse" x1="246.74" y1="-391.314" x2="252.698" y2="-385.352"/><linearGradient xlink:href="#l" id="G" gradientUnits="userSpaceOnUse" x1="240.074" y1="-393.407" x2="245.827" y2="-388.55"/><linearGradient xlink:href="#m" id="F" gradientUnits="userSpaceOnUse" gradientTransform="translate(69 155)" x1="228.503" y1="-392.306" x2="266.364" y2="-379.269"/><linearGradient xlink:href="#a" id="ak" gradientUnits="userSpaceOnUse" gradientTransform="matrix(-.05359 .10285 -.09281 -.05938 198.905 -255.69)" x1="6.894" y1="-359.824" x2="27.4" y2="-381.302"/><radialGradient xlink:href="#b" id="aj" gradientUnits="userSpaceOnUse" gradientTransform="matrix(.07065 .04155 -.06201 .1094 207.476 -189.818)" cx="21.92" cy="-382.965" fx="21.92" fy="-382.965" r="21.744"/><linearGradient xlink:href="#a" id="ad" gradientUnits="userSpaceOnUse" gradientTransform="matrix(-.05359 .10285 -.09281 -.05938 198.905 -255.69)" x1="6.894" y1="-359.824" x2="27.4" y2="-381.302"/><radialGradient xlink:href="#b" id="ac" gradientUnits="userSpaceOnUse" gradientTransform="matrix(.07065 .04155 -.06201 .1094 207.476 -189.818)" cx="21.92" cy="-382.965" fx="21.92" fy="-382.965" r="21.744"/><linearGradient xlink:href="#a" id="Z" gradientUnits="userSpaceOnUse" gradientTransform="matrix(-.05359 .10285 -.09281 -.05938 198.905 -255.69)" x1="6.894" y1="-359.824" x2="27.4" y2="-381.302"/><radialGradient xlink:href="#b" id="Y" gradientUnits="userSpaceOnUse" gradientTransform="matrix(.07065 .04155 -.06201 .1094 207.476 -189.818)" cx="21.92" cy="-382.965" fx="21.92" fy="-382.965" r="21.744"/><linearGradient xlink:href="#a" id="ah" gradientUnits="userSpaceOnUse" gradientTransform="matrix(-.05359 .10285 -.09281 -.05938 198.905 -255.69)" x1="6.894" y1="-359.824" x2="27.4" y2="-381.302"/><radialGradient xlink:href="#b" id="ag" gradientUnits="userSpaceOnUse" gradientTransform="matrix(.07065 .04155 -.06201 .1094 207.476 -189.818)" cx="21.92" cy="-382.965" fx="21.92" fy="-382.965" r="21.744"/><linearGradient id="a"><stop offset="0" stop-color="#fff"/><stop offset="1" stop-color="#fff" stop-opacity="0"/></linearGradient><linearGradient xlink:href="#a" id="an" gradientUnits="userSpaceOnUse" gradientTransform="matrix(-.05359 .10285 -.09281 -.05938 198.905 -255.69)" x1="6.894" y1="-359.824" x2="27.4" y2="-381.302"/><linearGradient id="b"><stop offset="0" stop-color="#fff"/><stop offset="1" stop-color="#fff" stop-opacity="0"/></linearGradient><radialGradient xlink:href="#b" id="am" gradientUnits="userSpaceOnUse" gradientTransform="matrix(.07065 .04155 -.06201 .1094 207.476 -189.818)" cx="21.92" cy="-382.965" fx="21.92" fy="-382.965" r="21.744"/><linearGradient id="d"><stop offset="0" stop-color="#fff"/><stop offset="1" stop-color="#fff" stop-opacity="0"/></linearGradient><linearGradient id="e"><stop offset="0" stop-color="#fff"/><stop offset="1" stop-color="#fff" stop-opacity="0"/></linearGradient><linearGradient id="c"><stop offset="0" stop-color="#fff"/><stop offset="1" stop-color="#fff" stop-opacity="0"/></linearGradient><linearGradient id="f"><stop offset="0" stop-color="#fff"/><stop offset="1" stop-color="#fff" stop-opacity="0"/></linearGradient><linearGradient id="g"><stop offset="0" stop-color="#fff"/><stop offset="1" stop-color="#fff" stop-opacity="0"/></linearGradient><linearGradient id="h"><stop offset="0" stop-color="#fff"/><stop offset="1" stop-color="#fff" stop-opacity="0"/></linearGradient><linearGradient id="i"><stop offset="0" stop-color="#fff"/><stop offset="1" stop-color="#fff" stop-opacity="0"/></linearGradient><linearGradient id="j"><stop offset="0" stop-color="#fff"/><stop offset="1" stop-color="#fff" stop-opacity="0"/></linearGradient><linearGradient id="k"><stop offset="0" stop-color="#fff"/><stop offset="1" stop-color="#fff" stop-opacity="0"/></linearGradient><linearGradient id="l"><stop offset="0" stop-color="#fff"/><stop offset="1" stop-color="#fff" stop-opacity="0"/></linearGradient><linearGradient id="m"><stop offset="0" stop-color="#fff"/><stop offset="1" stop-color="#fff" stop-opacity="0"/></linearGradient><linearGradient id="o"><stop offset="0" stop-color="#fff"/><stop offset="1" stop-color="#fff" stop-opacity="0"/></linearGradient><linearGradient id="q"><stop offset="0" stop-color="#fff"/><stop offset="1" stop-color="#fff" stop-opacity="0"/></linearGradient><linearGradient id="p"><stop offset="0" stop-color="#fff"/><stop offset="1" stop-color="#fff" stop-opacity="0"/></linearGradient><linearGradient id="r" gradientUnits="userSpaceOnUse" x1="4.191" y1="11.113" x2="47.32" y2="56.052"><stop offset="0" stop-color="#fff"/><stop offset="1" stop-color="#fff" stop-opacity=".34"/></linearGradient><linearGradient id="x"><stop offset="0" stop-color="#fff"/><stop offset="1" stop-color="#fff" stop-opacity="0"/></linearGradient><linearGradient id="w"><stop offset="0" stop-color="#fff"/><stop offset="1" stop-color="#fff" stop-opacity="0"/></linearGradient><linearGradient id="v"><stop offset="0" stop-color="#edd400"/><stop offset="1" stop-color="#edd400" stop-opacity="0"/></linearGradient><linearGradient id="u"><stop offset="0" stop-color="#fcaf3e"/><stop offset="1" stop-color="#fcaf3e" stop-opacity="0"/></linearGradient><linearGradient id="t"><stop offset="0" stop-color="#fce94f"/><stop offset="1" stop-color="#fce94f" stop-opacity="0"/></linearGradient><linearGradient id="s"><stop offset="0" stop-color="#eeeeec"/><stop offset="1" stop-color="#eeeeec" stop-opacity="0"/></linearGradient><linearGradient id="n"><stop offset="0" stop-color="#fff"/><stop offset="1" stop-color="#fff" stop-opacity="0"/></linearGradient><linearGradient id="z"><stop offset="0" stop-color="#fff"/><stop offset="1" stop-color="#fff" stop-opacity="0"/></linearGradient><linearGradient id="y"><stop offset="0" stop-color="#ad7fa8"/><stop offset="1" stop-color="#ad7fa8" stop-opacity="0"/></linearGradient><linearGradient id="A"><stop offset="0" stop-color="#fff"/><stop offset="1" stop-color="#fff" stop-opacity="0"/></linearGradient><linearGradient id="B"><stop offset="0" stop-color="#fcaf3e"/><stop offset="1" stop-color="#fcaf3e" stop-opacity="0"/></linearGradient><linearGradient id="C"><stop offset="0" stop-color="#fff"/><stop offset="1" stop-color="#fff" stop-opacity="0"/></linearGradient><linearGradient xlink:href="#B" id="ae" gradientUnits="userSpaceOnUse" gradientTransform="translate(13.805 2.84)" x1="-191.289" y1="-328.079" x2="-192.414" y2="-315.329"/><linearGradient xlink:href="#C" id="af" gradientUnits="userSpaceOnUse" gradientTransform="translate(14.159 7.083)" x1="-190.477" y1="-332.512" x2="-196.19" y2="-328.534"/><linearGradient xlink:href="#B" id="aa" gradientUnits="userSpaceOnUse" gradientTransform="translate(13.805 2.84)" x1="-191.289" y1="-328.079" x2="-192.414" y2="-315.329"/><linearGradient xlink:href="#C" id="ab" gradientUnits="userSpaceOnUse" gradientTransform="translate(14.159 7.083)" x1="-190.477" y1="-332.512" x2="-196.19" y2="-328.534"/><radialGradient xlink:href="#A" id="ai" gradientUnits="userSpaceOnUse" gradientTransform="matrix(.93095 0 0 .44824 230.428 180.927)" cx="-229.75" cy="-343.956" fx="-229.75" fy="-343.956" r="14.501"/><radialGradient xlink:href="#A" id="al" gradientUnits="userSpaceOnUse" gradientTransform="matrix(.93095 0 0 .44824 246.438 184.927)" cx="-229.75" cy="-343.956" fx="-229.75" fy="-343.956" r="14.501"/></defs><path d="M22.583 40.228a2.151 2.151 0 0 1-.796-2.95c1.331-2.082 3.105-1.545 4.012-3.74 1.26 1.333.793 8.247-3.216 6.69z" fill="#729fcf" stroke="#204a87" stroke-width="1.075" stroke-miterlimit="2"/><path d="M234.31-229.904a1.757 1.757 0 0 1-2.423.662 1.826 1.826 0 0 1-.65-2.468c.49-.864 2.607-.452 3.347-2.29.848.499.216 3.233-.274 4.096z" opacity=".461" fill="url(#D)" transform="translate(-209.043 268.999)"/><path d="M233.022-229c-4.614-1.074.238-4.72.978-3.922-3.582 1.37-.978 3.922-.978 3.922z" fill="url(#E)" transform="translate(-209.043 268.999)"/><path d="M22.507 0c-2.771 0-5.106 1.574-6.404 3.813C15.159 3.337 14.138 3 13.01 3a7.001 7.001 0 0 0-6.997 7c0 3.864 3.134 7 6.997 7 2.42 0 4.429-1.32 5.686-3.188 1.134.69 2.388 1.188 3.811 1.188.913 0 1.753-.232 2.562-.531a6.847 6.847 0 0 0 2 2.156c-.008.13-.063.243-.063.375 0 3.864 3.135 7 6.997 7a7.001 7.001 0 0 0 6.998-7c0-2.37-1.258-4.358-3.061-5.625.007-.13.062-.243.062-.375 0-3.864-3.135-7-6.998-7-.622 0-1.174.222-1.749.375C28.061 1.816 25.515 0 22.507 0z" fill="#555753"/><path d="M311.5-242c-2.78 0-5.135 1.762-6.063 4.219-.985-.71-2.13-1.219-3.437-1.219-3.312 0-6 2.688-6 6s2.688 6 6 6c2.428 0 4.493-1.456 5.438-3.531 1.12.917 2.502 1.531 4.062 1.531 1.075 0 2.044-.319 2.938-.781.398 1 1.1 1.786 1.937 2.437-.18.596-.375 1.19-.375 1.844 0 3.588 2.912 6.5 6.5 6.5s6.5-2.912 6.5-6.5c0-2.36-1.334-4.33-3.219-5.469.063-.347.219-.666.219-1.031a6.002 6.002 0 0 0-8.406-5.5c-.854-2.594-3.215-4.5-6.094-4.5z" fill="url(#F)" transform="matrix(.99967 0 0 1 -288.892 243)"/><path d="M40.001 17.5a6.498 6.5 0 1 1-12.995 0A6.498 6.5 0 1 1 40 17.5zM28.005 7.5a5.498 5.5 0 1 1-10.996 0 5.498 5.5 0 1 1 10.996 0z" fill="#888a85"/><path transform="matrix(.88234 0 0 .88263 -192.742 351.11)" d="M250.183-389.301a6.231 6.231 0 1 1-12.463 0 6.231 6.231 0 1 1 12.463 0z" opacity=".494" fill="url(#G)"/><path d="M36.003 11.5a5.498 5.5 0 1 1-10.997 0 5.498 5.5 0 1 1 10.997 0z" fill="#888a85"/><path transform="matrix(.91143 0 0 .91173 -198.467 363.234)" d="M257.254-385.788a6.033 6.033 0 1 1-12.065 0 6.033 6.033 0 1 1 12.065 0z" opacity=".494" fill="url(#H)"/><path d="M18.009 10a4.998 5 0 1 1-9.997 0 4.998 5 0 1 1 9.997 0z" fill="#888a85"/><path transform="matrix(1.14243 0 0 1.1428 -253.67 453.277)" d="M237.809-387.887a4.375 4.375 0 1 1-8.75 0 4.375 4.375 0 1 1 8.75 0z" opacity=".494" fill="url(#I)"/><g><path d="M29.005 14a6.998 7 0 1 1-13.995 0 6.998 7 0 1 1 13.995 0z" fill="#888a85"/><path transform="matrix(1.0383 0 0 1.03864 -229.062 412.49)" d="M248.548-383.667a6.74 6.74 0 1 1-13.48 0 6.74 6.74 0 1 1 13.48 0z" opacity=".494" fill="url(#J)"/></g><g><path d="M246.5-238.5c-2.27 0-4.11 1.55-4.719 3.625-.693-.364-1.444-.625-2.281-.625-2.76 0-5 2.24-5 5 0 .579.162 1.108.344 1.625-1.374.77-2.344 2.19-2.344 3.875 0 2.484 2.016 4.5 4.5 4.5h19c2.484 0 4.5-2.016 4.5-4.5 0-1.686-.97-3.104-2.344-3.875.181-.517.344-1.046.344-1.625 0-2.76-2.24-5-5-5-.837 0-1.588.261-2.281.625-.61-2.075-2.448-3.625-4.72-3.625z" fill="#888a85" stroke="#555753" stroke-miterlimit="2" transform="matrix(.99967 0 0 1 -216.915 251)"/><path d="M246.5-238c-2.19 0-3.724 1.336-4.396 3.844-.668-.344-1.547-.834-2.354-.834-2.717 0-4.755 1.94-4.755 4.546 0 .547.267 1.333.442 1.822-1.325.728-2.437 1.89-2.437 3.372 0 2.346 1.546 4.25 4.34 4.25h18.32c2.772 0 4.34-1.904 4.34-4.25 0-1.592-1.112-2.666-2.437-3.394.175-.489.464-1.253.464-1.8 0-2.607-2.116-4.568-4.777-4.568-.807 0-1.642.49-2.31.833-.65-2.421-2.25-3.82-4.44-3.82z" fill="url(#K)" transform="matrix(.99967 0 0 1 -216.915 251)"/><path d="M33.004 17.5a3.499 3.5 0 1 1-6.998 0 3.499 3.5 0 1 1 6.998 0z" fill="#888a85"/><path d="M291.688-437.594a3.313 3.313 0 1 1-6.625 0 3.313 3.313 0 1 1 6.625 0z" transform="matrix(1.05626 0 0 1.0566 -275.094 479.863)" opacity=".478" fill="url(#L)"/><path fill="#888a85" d="M20.008 20h19.994v9H20.008z"/><path d="M23.007 26a2.999 3 0 1 1-5.998 0 2.999 3 0 1 1 5.998 0zM40.002 20.5a3.499 3.5 0 1 1-6.998 0 3.499 3.5 0 1 1 6.998 0z" fill="#888a85"/><path d="M291.688-437.594a3.313 3.313 0 1 1-6.625 0 3.313 3.313 0 1 1 6.625 0z" transform="matrix(1.05626 0 0 1.0566 -268.097 482.863)" opacity=".478" fill="url(#M)"/><path d="M26.006 20.5a3.499 3.5 0 1 1-6.998 0 3.499 3.5 0 1 1 6.998 0z" fill="#888a85"/><path d="M291.688-437.594a3.313 3.313 0 1 1-6.625 0 3.313 3.313 0 1 1 6.625 0z" transform="matrix(1.05626 0 0 1.0566 -282.092 482.863)" opacity=".478" fill="url(#N)"/><path d="M28.474 17.031c-3.578 0-6.467 2.92-6.467 6.5 0 2.37 1.35 4.338 3.25 5.469h6.466c1.9-1.131 3.249-3.13 3.249-5.5 0-3.58-2.92-6.469-6.498-6.469z" fill="#888a85"/><path d="M245.5-234a6.502 6.502 0 0 0-6.5 6.5c0 2.376 1.345 4.366 3.25 5.5h6.5c1.905-1.134 3.25-3.124 3.25-5.5 0-3.588-2.912-6.5-6.5-6.5z" opacity=".478" fill="url(#O)" transform="matrix(.99967 0 0 1 -216.915 251)"/><path d="M291.688-437.594a3.313 3.313 0 1 1-6.625 0 3.313 3.313 0 1 1 6.625 0z" transform="matrix(.90537 0 0 .90566 -241.077 422.311)" opacity=".478" fill="url(#P)"/><path d="M41.957 20.666c-.001 2.685-3.268 3.714-3.268 3.714s2.348-1.626 2.336-3.705l.932-.009z" fill="#555753" fill-rule="evenodd"/><path d="M37.002 25a3.999 4 0 1 1-7.997 0 3.999 4 0 1 1 7.997 0z" fill="#888a85"/><path d="M291.688-437.594a3.313 3.313 0 1 1-6.625 0 3.313 3.313 0 1 1 6.625 0z" transform="matrix(1.20715 0 0 1.20755 -315.11 553.415)" opacity=".478" fill="url(#Q)"/></g><g><path d="M246.5-238.5c-2.27 0-4.11 1.55-4.719 3.625-.693-.364-1.444-.625-2.281-.625-2.76 0-5 2.24-5 5 0 .579.162 1.108.344 1.625-1.374.77-2.344 2.19-2.344 3.875 0 2.484 2.016 4.5 4.5 4.5h19c2.484 0 4.5-2.016 4.5-4.5 0-1.686-.97-3.104-2.344-3.875.181-.517.344-1.046.344-1.625 0-2.76-2.24-5-5-5-.837 0-1.588.261-2.281.625-.61-2.075-2.448-3.625-4.72-3.625z" fill="#888a85" stroke="#555753" stroke-miterlimit="2" transform="matrix(.99967 0 0 1 -231.924 246.984)"/><path d="M246.5-238c-2.19 0-3.724 1.336-4.396 3.844-.668-.344-1.547-.834-2.354-.834-2.717 0-4.755 1.94-4.755 4.546 0 .547.267 1.333.442 1.822-1.325.728-2.437 1.89-2.437 3.372 0 2.346 1.546 4.25 4.34 4.25h18.32c2.772 0 4.34-1.904 4.34-4.25 0-1.592-1.112-2.666-2.437-3.394.175-.489.464-1.253.464-1.8 0-2.607-2.116-4.568-4.777-4.568-.807 0-1.642.49-2.31.833-.65-2.421-2.25-3.82-4.44-3.82z" fill="url(#R)" transform="matrix(.99967 0 0 1 -231.924 246.984)"/><path d="M17.994 13.484a3.499 3.5 0 1 1-6.997 0 3.499 3.5 0 1 1 6.997 0z" fill="#888a85"/><path d="M291.688-437.594a3.313 3.313 0 1 1-6.625 0 3.313 3.313 0 1 1 6.625 0z" transform="matrix(1.05626 0 0 1.0566 -290.104 475.847)" opacity=".478" fill="url(#S)"/><path fill="#888a85" d="M4.999 15.984h19.993v9H5z"/><path d="M7.997 21.984a2.999 3 0 1 1-5.998 0 2.999 3 0 1 1 5.998 0zM24.992 16.484a3.499 3.5 0 1 1-6.998 0 3.499 3.5 0 1 1 6.998 0z" fill="#888a85"/><path d="M291.688-437.594a3.313 3.313 0 1 1-6.625 0 3.313 3.313 0 1 1 6.625 0z" transform="matrix(1.05626 0 0 1.0566 -283.106 478.847)" opacity=".478" fill="url(#T)"/><path d="M10.997 16.484a3.499 3.5 0 1 1-6.998 0 3.499 3.5 0 1 1 6.998 0z" fill="#888a85"/><path d="M291.688-437.594a3.313 3.313 0 1 1-6.625 0 3.313 3.313 0 1 1 6.625 0z" transform="matrix(1.05626 0 0 1.0566 -297.101 478.847)" opacity=".478" fill="url(#U)"/><path d="M13.465 13.015c-3.579 0-6.467 2.92-6.467 6.5 0 2.37 1.349 4.338 3.249 5.469h6.466c1.9-1.131 3.25-3.13 3.25-5.5 0-3.58-2.92-6.469-6.498-6.469z" fill="#888a85"/><path d="M245.5-234a6.502 6.502 0 0 0-6.5 6.5c0 2.376 1.345 4.366 3.25 5.5h6.5c1.905-1.134 3.25-3.124 3.25-5.5 0-3.588-2.912-6.5-6.5-6.5z" opacity=".478" fill="url(#V)" transform="matrix(.99967 0 0 1 -231.924 246.984)"/><path d="M291.688-437.594a3.313 3.313 0 1 1-6.625 0 3.313 3.313 0 1 1 6.625 0z" transform="matrix(.90537 0 0 .90566 -256.086 418.295)" opacity=".478" fill="url(#W)"/><path d="M26.948 16.65c-.002 2.685-3.268 3.714-3.268 3.714s2.348-1.626 2.336-3.705l.932-.009z" fill="#555753" fill-rule="evenodd"/><path d="M21.993 20.984a3.999 4 0 1 1-7.997 0 3.999 4 0 1 1 7.997 0z" fill="#888a85"/><path d="M291.688-437.594a3.313 3.313 0 1 1-6.625 0 3.313 3.313 0 1 1 6.625 0z" transform="matrix(1.20715 0 0 1.20755 -330.119 549.4)" opacity=".478" fill="url(#X)"/></g><g><path d="M4.627 40.237a2.151 2.151 0 0 1-.795-2.949c1.331-2.083 3.105-1.546 4.012-3.742 1.26 1.334.793 8.248-3.217 6.69z" fill="#729fcf" stroke="#204a87" stroke-width="1.075" stroke-miterlimit="2"/><path d="M234.31-229.904a1.757 1.757 0 0 1-2.423.662 1.826 1.826 0 0 1-.65-2.468c.49-.864 2.607-.452 3.347-2.29.848.499.216 3.233-.274 4.096z" opacity=".461" fill="url(#Y)" transform="translate(-226.998 269.008)"/><path d="M233.022-229c-4.614-1.074.238-4.72.978-3.922-3.582 1.37-.978 3.922-.978 3.922z" fill="url(#Z)" transform="translate(-226.998 269.008)"/></g><g fill-rule="evenodd"><path d="M-173.246-327.591l-3.124 4.279h3.78s-2.704 4.526-7.576 12.926c2.096-7.947 2.952-10.97 2.952-10.97h-5.163l4.043-6.235h5.088z" fill="#edd400" stroke="url(#aa)" transform="translate(208.833 358.886)"/><path d="M-173.76-327.845l-3.743 5.163 3.957-.176s-.14.46-5.013 8.86c2.096-7.947 2.07-7.965 2.07-7.965l-4.899.089 3.69-5.705 3.939-.266z" fill="url(#ab)" transform="translate(208.833 358.886)"/></g><g><path d="M35.626 37.236a2.151 2.151 0 0 1-.796-2.95c1.332-2.082 3.105-1.545 4.012-3.74 1.261 1.333.794 8.247-3.216 6.69z" fill="#729fcf" stroke="#204a87" stroke-width="1.075" stroke-miterlimit="2"/><path d="M234.31-229.904a1.757 1.757 0 0 1-2.423.662 1.826 1.826 0 0 1-.65-2.468c.49-.864 2.607-.452 3.347-2.29.848.499.216 3.233-.274 4.096z" opacity=".461" fill="url(#ac)" transform="translate(-196 266.006)"/><path d="M233.022-229c-4.614-1.074.238-4.72.978-3.922-3.582 1.37-.978 3.922-.978 3.922z" fill="url(#ad)" transform="translate(-196 266.006)"/></g><g fill-rule="evenodd"><path d="M-173.246-327.591l-3.124 4.279h3.78s-2.704 4.526-7.576 12.926c2.096-7.947 2.952-10.97 2.952-10.97h-5.163l4.043-6.235h5.088z" fill="#edd400" stroke="url(#ae)" transform="translate(190.601 355.091)"/><path d="M-173.76-327.845l-3.743 5.163 3.957-.176s-.14.46-5.013 8.86c2.096-7.947 2.07-7.965 2.07-7.965l-4.899.089 3.69-5.705 3.939-.266z" fill="url(#af)" transform="translate(190.601 355.091)"/></g><g><path d="M14.626 35.236a2.151 2.151 0 0 1-.796-2.95c1.332-2.082 3.105-1.545 4.012-3.74 1.261 1.333.794 8.247-3.216 6.69z" fill="#729fcf" stroke="#204a87" stroke-width="1.075" stroke-miterlimit="2"/><path d="M234.31-229.904a1.757 1.757 0 0 1-2.423.662 1.826 1.826 0 0 1-.65-2.468c.49-.864 2.607-.452 3.347-2.29.848.499.216 3.233-.274 4.096z" opacity=".461" fill="url(#ag)" transform="translate(-217 264.006)"/><path d="M233.022-229c-4.614-1.074.238-4.72.978-3.922-3.582 1.37-.978 3.922-.978 3.922z" fill="url(#ah)" transform="translate(-217 264.006)"/></g><path d="M16.69 11c-2 0-3.685 1.08-4.53 2.615a5.507 5.507 0 0 0-1.926-.353c-2.83 0-5.118 2.118-5.118 4.718 0 .453.145.856.275 1.272-1.382.865-2.348 2.253-2.348 3.904 0 2.653.652 4.994 5.228 4.806.045-.002 17.451.097 17.7-.018 3.086.226 4.072-2.445 4.072-4.7 0-1.7-.837-3.05-2.309-3.877.048-.258-.038-.551-.038-.822 0-2.6-2.306-4.718-5.136-4.718-.394 0-.733.135-1.1.212C20.72 12.271 18.873 11 16.69 11z" fill="url(#ai)" transform="translate(-2.043 -2)"/><g><path d="M6.628 30.243a2.151 2.151 0 0 1-.796-2.948c1.331-2.083 3.105-1.547 4.012-3.742 1.26 1.334.793 8.248-3.216 6.69z" fill="#729fcf" stroke="#204a87" stroke-width="1.075" stroke-miterlimit="2"/><path d="M234.31-229.904a1.757 1.757 0 0 1-2.423.662 1.826 1.826 0 0 1-.65-2.468c.49-.864 2.607-.452 3.347-2.29.848.499.216 3.233-.274 4.096z" opacity=".461" fill="url(#aj)" transform="translate(-224.998 259.014)"/><path d="M233.022-229c-4.614-1.074.238-4.72.978-3.922-3.582 1.37-.978 3.922-.978 3.922z" fill="url(#ak)" transform="translate(-224.998 259.014)"/></g><path d="M32.7 15c-2 0-3.686 1.08-4.53 2.615a5.507 5.507 0 0 0-1.927-.353c-2.83 0-5.117 2.118-5.117 4.718 0 .453.144.856.275 1.272-1.383.865-2.348 2.253-2.348 3.904 0 2.653.652 4.994 5.228 4.806.045-.002 17.451.097 17.7-.018 3.085.226 4.072-2.445 4.072-4.7 0-1.7-.837-3.05-2.31-3.877.049-.258-.038-.551-.038-.822 0-2.6-2.306-4.718-5.136-4.718-.393 0-.732.135-1.1.212C36.73 16.271 34.884 15 32.699 15z" fill="url(#al)" transform="translate(-2.043 -2)"/><g><path d="M28.626 30.243a2.151 2.151 0 0 1-.796-2.948c1.332-2.083 3.105-1.547 4.012-3.742 1.261 1.334.794 8.248-3.216 6.69z" fill="#729fcf" stroke="#204a87" stroke-width="1.075" stroke-miterlimit="2"/><path d="M234.31-229.904a1.757 1.757 0 0 1-2.423.662 1.826 1.826 0 0 1-.65-2.468c.49-.864 2.607-.452 3.347-2.29.848.499.216 3.233-.274 4.096z" opacity=".461" fill="url(#am)" transform="translate(-203 259.014)"/><path d="M233.022-229c-4.614-1.074.238-4.72.978-3.922-3.582 1.37-.978 3.922-.978 3.922z" fill="url(#an)" transform="translate(-203 259.014)"/></g></svg>