<svg xmlns="http://www.w3.org/2000/svg" xmlns:xlink="http://www.w3.org/1999/xlink" width="48" height="48"><defs><linearGradient id="x"><stop offset="0" stop-color="#fff9c6"/><stop offset=".542" stop-color="#fff28c"/><stop offset="1" stop-color="#ffea85"/></linearGradient><linearGradient id="w"><stop offset="0" stop-color="#fff7c2" stop-opacity=".638"/><stop offset=".594" stop-color="#fcaf3e" stop-opacity=".183"/><stop offset=".839" stop-color="#fcaf3e" stop-opacity=".505"/><stop offset="1" stop-color="#fcaf3e"/></linearGradient><linearGradient id="v"><stop offset="0" stop-color="#fff" stop-opacity="0"/><stop offset=".75" stop-color="#fff" stop-opacity="0"/><stop offset="1" stop-color="#fff"/></linearGradient><linearGradient id="b"><stop offset="0" stop-color="#fff"/><stop offset="1" stop-color="#fff" stop-opacity="0"/></linearGradient><linearGradient id="c"><stop offset="0" stop-color="#fff"/><stop offset="1" stop-color="#fff" stop-opacity="0"/></linearGradient><linearGradient id="a"><stop offset="0" stop-color="#fff"/><stop offset="1" stop-color="#fff" stop-opacity="0"/></linearGradient><linearGradient id="d"><stop offset="0" stop-color="#fff"/><stop offset="1" stop-color="#fff" stop-opacity="0"/></linearGradient><linearGradient id="e"><stop offset="0" stop-color="#fff"/><stop offset="1" stop-color="#fff" stop-opacity="0"/></linearGradient><linearGradient id="f"><stop offset="0" stop-color="#fff"/><stop offset="1" stop-color="#fff" stop-opacity="0"/></linearGradient><linearGradient id="h"><stop offset="0" stop-color="#fff"/><stop offset="1" stop-color="#fff" stop-opacity="0"/></linearGradient><linearGradient id="i"><stop offset="0" stop-color="#fff"/><stop offset="1" stop-color="#fff" stop-opacity="0"/></linearGradient><linearGradient id="j"><stop offset="0" stop-color="#fff"/><stop offset="1" stop-color="#fff" stop-opacity="0"/></linearGradient><linearGradient id="k"><stop offset="0" stop-color="#fff"/><stop offset="1" stop-color="#fff" stop-opacity="0"/></linearGradient><linearGradient id="l"><stop offset="0" stop-color="#fff"/><stop offset="1" stop-color="#fff" stop-opacity="0"/></linearGradient><linearGradient id="g"><stop offset="0" stop-color="#fff"/><stop offset="1" stop-color="#fff" stop-opacity="0"/></linearGradient><linearGradient id="u"><stop offset="0" stop-color="#fff"/><stop offset="1" stop-color="#fff" stop-opacity="0"/></linearGradient><linearGradient id="t"><stop offset="0" stop-color="#fff"/><stop offset="1" stop-color="#fff" stop-opacity="0"/></linearGradient><linearGradient id="o"><stop offset="0" stop-color="#fff"/><stop offset="1" stop-color="#fff" stop-opacity="0"/></linearGradient><linearGradient id="m"><stop offset="0" stop-color="#fff"/><stop offset="1" stop-color="#fff" stop-opacity="0"/></linearGradient><linearGradient id="s"><stop offset="0" stop-color="#edd400"/><stop offset="1" stop-color="#edd400" stop-opacity="0"/></linearGradient><linearGradient id="n"><stop offset="0" stop-color="#fcaf3e"/><stop offset="1" stop-color="#fcaf3e" stop-opacity="0"/></linearGradient><linearGradient id="r"><stop offset="0" stop-color="#fce94f"/><stop offset="1" stop-color="#fce94f" stop-opacity="0"/></linearGradient><linearGradient id="q"><stop offset="0" stop-color="#eeeeec"/><stop offset="1" stop-color="#eeeeec" stop-opacity="0"/></linearGradient><linearGradient id="p"><stop offset="0" stop-color="#fff"/><stop offset="1" stop-color="#fff" stop-opacity="0"/></linearGradient><radialGradient xlink:href="#v" id="y" gradientUnits="userSpaceOnUse" gradientTransform="matrix(1.0067 0 0 1.00752 -.16 .427)" cx="24" cy="23.382" fx="24" fy="23.382" r="19.142"/><radialGradient xlink:href="#w" id="z" gradientUnits="userSpaceOnUse" gradientTransform="matrix(.48774 1.2924 -1.10267 .49724 -41.774 32.415)" cx="-33.519" cy="-22.113" fx="-33.519" fy="-22.113" r="9.5"/><linearGradient xlink:href="#x" id="A" gradientUnits="userSpaceOnUse" x1="-28.969" y1="-25.327" x2="-37.197" y2="-9.559"/><linearGradient xlink:href="#g" id="B" gradientUnits="userSpaceOnUse" gradientTransform="translate(69.003 102)" x1="228.503" y1="-392.306" x2="278.915" y2="-375.38"/><linearGradient xlink:href="#l" id="C" gradientUnits="userSpaceOnUse" x1="240.074" y1="-393.407" x2="245.827" y2="-388.55"/><linearGradient xlink:href="#k" id="D" gradientUnits="userSpaceOnUse" x1="246.74" y1="-391.314" x2="252.698" y2="-385.352"/><linearGradient xlink:href="#j" id="E" gradientUnits="userSpaceOnUse" x1="230.876" y1="-390.44" x2="235.257" y2="-386.959"/><linearGradient xlink:href="#i" id="F" gradientUnits="userSpaceOnUse" x1="238.005" y1="-388.475" x2="245.655" y2="-382.645"/><linearGradient xlink:href="#h" id="G" gradientUnits="userSpaceOnUse" x1="-156.29" y1="-100.534" x2="-153.098" y2="-96.545"/><linearGradient xlink:href="#f" id="H" gradientUnits="userSpaceOnUse" x1="271.022" y1="-441.052" x2="285.029" y2="-431.97"/><linearGradient xlink:href="#e" id="I" gradientUnits="userSpaceOnUse" x1="287.517" y1="-439.753" x2="289.676" y2="-436.322"/><linearGradient xlink:href="#d" id="J" gradientUnits="userSpaceOnUse" x1="286.512" y1="-441.291" x2="289.854" y2="-436.145"/><linearGradient xlink:href="#a" id="K" gradientUnits="userSpaceOnUse" x1="285.941" y1="-439.939" x2="289.391" y2="-436.443"/><linearGradient xlink:href="#c" id="L" gradientUnits="userSpaceOnUse" x1="275.942" y1="-437.105" x2="279.975" y2="-431.918"/><linearGradient xlink:href="#b" id="M" gradientUnits="userSpaceOnUse" x1="286.666" y1="-439.484" x2="289.766" y2="-436.707"/><linearGradient xlink:href="#a" id="N" gradientUnits="userSpaceOnUse" x1="284.802" y1="-441.233" x2="288.9" y2="-436.831"/><linearGradient xlink:href="#f" id="O" gradientUnits="userSpaceOnUse" x1="271.022" y1="-441.052" x2="285.029" y2="-431.97"/><linearGradient xlink:href="#e" id="P" gradientUnits="userSpaceOnUse" x1="287.517" y1="-439.753" x2="289.676" y2="-436.322"/><linearGradient xlink:href="#d" id="Q" gradientUnits="userSpaceOnUse" x1="286.512" y1="-441.291" x2="289.854" y2="-436.145"/><linearGradient xlink:href="#a" id="R" gradientUnits="userSpaceOnUse" x1="285.941" y1="-439.939" x2="289.391" y2="-436.443"/><linearGradient xlink:href="#c" id="S" gradientUnits="userSpaceOnUse" x1="275.942" y1="-437.105" x2="279.975" y2="-431.918"/><linearGradient xlink:href="#b" id="T" gradientUnits="userSpaceOnUse" x1="286.666" y1="-439.484" x2="289.766" y2="-436.707"/><linearGradient xlink:href="#a" id="U" gradientUnits="userSpaceOnUse" x1="284.802" y1="-441.233" x2="288.9" y2="-436.831"/></defs><g opacity=".7" stroke-linecap="square"><path d="M20.06 1.284l-2.002 5.64a12.711 12.711 0 0 1 4.005 0l-2.002-5.64zM7.254 6.581l2.556 5.429a12.839 12.839 0 0 1 2.846-2.846L7.253 6.58zm25.642 0l-5.429 2.583a12.839 12.839 0 0 1 2.846 2.846l2.583-5.429zM7.569 17.386l-5.64 2.003 5.64 2.003a12.709 12.709 0 0 1 0-4.006zm24.983.027a12.711 12.711 0 0 1 0 4.005l5.64-2.003-5.64-2.002zM9.81 26.82l-2.556 5.402 5.402-2.556a12.839 12.839 0 0 1-2.846-2.846zm20.503 0a12.842 12.842 0 0 1-2.82 2.82l5.403 2.582-2.583-5.402zm-12.254 5.086l2.003 5.64 2.002-5.64a12.711 12.711 0 0 1-4.005 0z" fill="#fce94f" stroke="#fcaf3e" stroke-width=".7370616799999999"/><path d="M24 5.25l-1.344 3.813C23.1 9.023 23.547 9 24 9c.453 0 .901.023 1.344.063L24 5.25zm-13.219 5.5l1.719 3.625a15.488 15.488 0 0 1 1.906-1.906l-3.625-1.719zm26.469 0l-3.625 1.719c.68.57 1.337 1.226 1.906 1.906l1.719-3.625zM9.062 22.625l-3.78 1.344 3.78 1.343C9.025 24.88 9 24.442 9 24c0-.464.021-.922.063-1.375zm29.876.031c.039.443.062.891.062 1.344 0 .453-.023.901-.063 1.344L42.72 24l-3.782-1.344zM35.53 33.594a15.582 15.582 0 0 1-1.906 1.937l3.625 1.719-1.719-3.656zm-23.031.031l-1.719 3.594 3.594-1.719a15.38 15.38 0 0 1-1.875-1.875zm10.156 5.313L24 42.718l1.344-3.78C24.9 38.977 24.453 39 24 39c-.453 0-.901-.023-1.344-.063z" fill="none" stroke="url(#y)" stroke-width="1.004" transform="matrix(.84332 0 0 .84332 -.179 -.824)"/></g><path transform="matrix(.65615 -.895 .895 .65615 56.728 2.247)" d="M-22.5-17.5a9.5 9.5 0 1 1-19 0 9.5 9.5 0 1 1 19 0z" fill="#ffee54" stroke="#fcaf3e" stroke-width=".901" stroke-linecap="square"/><path transform="matrix(1.0493 -.14143 .1827 1.0557 56.843 33.353)" d="M-22.5-17.5a9.5 9.5 0 1 1-19 0 9.5 9.5 0 1 1 19 0z" fill="url(#z)"/><path transform="matrix(.60364 -.82337 .82337 .60364 53.794 3.62)" d="M-22.5-17.5a9.5 9.5 0 1 1-19 0 9.5 9.5 0 1 1 19 0z" fill="none" stroke="url(#A)" stroke-width=".979" stroke-linecap="square"/><g><path d="M30.308 14.021c-2.236 0-4.12 1.27-5.167 3.075-.762-.383-1.585-.655-2.496-.655A5.648 5.648 0 0 0 17 22.087a5.648 5.648 0 0 0 5.646 5.646c1.952 0 3.574-1.064 4.588-2.57.915.555 1.927.957 3.075.957.737 0 1.414-.187 2.067-.429.411.7.95 1.275 1.613 1.74-.006.105-.05.195-.05.302a5.648 5.648 0 0 0 5.646 5.646 5.648 5.648 0 0 0 5.646-5.646c0-1.911-1.016-3.515-2.47-4.537.006-.105.05-.196.05-.302a5.648 5.648 0 0 0-5.646-5.647c-.502 0-.948.18-1.412.303-.963-2.064-3.017-3.529-5.444-3.529z" fill="#888a85"/><path d="M311.503-295c-2.78 0-5.135 1.762-6.063 4.219-.985-.71-2.131-1.219-3.437-1.219-3.312 0-6 2.688-6 6s2.688 6 6 6c2.427 0 4.493-1.456 5.437-3.531 1.12.917 2.502 1.531 4.063 1.531 1.074 0 2.044-.319 2.937-.781.398 1 1.101 1.786 1.938 2.437-.18.596-.375 1.19-.375 1.844 0 3.588 2.912 6.5 6.5 6.5s6.5-2.912 6.5-6.5c0-2.36-1.335-4.33-3.22-5.469.063-.347.22-.666.22-1.031a6.002 6.002 0 0 0-8.407-5.5c-.853-2.594-3.215-4.5-6.093-4.5z" fill="url(#B)" transform="matrix(.80659 0 0 .80659 -220.946 252.77)"/><path d="M44.423 28.136a5.243 5.243 0 1 1-10.485 0 5.243 5.243 0 1 1 10.485 0zM34.744 20.07a4.436 4.436 0 1 1-8.872 0 4.436 4.436 0 1 1 8.872 0z" fill="#c4c5c2"/><path d="M250.183-389.301a6.231 6.231 0 1 1-12.463 0 6.231 6.231 0 1 1 12.463 0z" transform="matrix(.71192 0 0 .71192 -143.366 297.22)" fill="url(#C)"/><path d="M41.197 23.297a4.436 4.436 0 1 1-8.873 0 4.436 4.436 0 1 1 8.873 0z" fill="#c4c5c2"/><path d="M257.254-385.788a6.033 6.033 0 1 1-12.065 0 6.033 6.033 0 1 1 12.065 0z" transform="matrix(.73539 0 0 .73539 -147.985 307)" fill="url(#D)"/><path d="M26.678 22.087a4.033 4.033 0 1 1-8.066 0 4.033 4.033 0 1 1 8.066 0z" fill="#c4c5c2"/><path d="M237.809-387.887a4.375 4.375 0 1 1-8.75 0 4.375 4.375 0 1 1 8.75 0z" transform="matrix(.92177 0 0 .92177 -192.526 379.628)" fill="url(#E)"/><path d="M35.55 25.313a5.646 5.646 0 1 1-11.291 0 5.646 5.646 0 1 1 11.292 0z" fill="#c4c5c2"/><path d="M248.548-383.667a6.74 6.74 0 1 1-13.48 0 6.74 6.74 0 1 1 13.48 0z" transform="matrix(.83775 0 0 .83775 -172.67 346.73)" fill="url(#F)"/><g><path d="M23.923 27.25a4.096 4.096 0 1 1-8.19 0 4.096 4.096 0 1 1 8.19 0z" fill="#c4c5c2"/><path d="M-151.938-96.938a3.125 3.125 0 1 1-6.25 0 3.125 3.125 0 1 1 6.25 0z" transform="matrix(1.31056 0 0 1.31056 223.094 154.245)" fill="url(#G)"/></g><g><path d="M35.954 24.103c-1.832 0-3.315 1.25-3.806 2.924-.56-.293-1.165-.504-1.84-.504a4.034 4.034 0 0 0-4.033 4.033c0 .467.131.894.277 1.31-1.107.623-1.89 1.766-1.89 3.126a3.631 3.631 0 0 0 3.63 3.63h15.325a3.631 3.631 0 0 0 3.63-3.63c0-1.36-.783-2.503-1.891-3.125.146-.417.277-.844.277-1.31a4.034 4.034 0 0 0-4.033-4.034c-.675 0-1.28.21-1.84.504-.49-1.673-1.974-2.924-3.806-2.924z" fill="#c4c5c2" stroke="#888a85" stroke-width="1.0001716" stroke-miterlimit="2"/><path d="M280.5-445c-2.19 0-3.724 1.336-4.396 3.844-.668-.344-1.547-.834-2.354-.834-2.717 0-4.755 1.939-4.755 4.546 0 .546.267 1.333.442 1.822-1.325.728-2.437 1.89-2.437 3.372 0 2.346 1.546 4.25 4.34 4.25h18.32c2.772 0 4.34-1.904 4.34-4.25 0-1.592-1.112-2.666-2.437-3.394.175-.489.464-1.254.464-1.8 0-2.607-2.116-4.568-4.777-4.568-.807 0-1.642.49-2.31.833-.65-2.421-2.25-3.821-4.44-3.821z" fill="url(#H)" transform="matrix(.80659 0 0 .80659 -190.293 383.438)"/><path d="M38.777 28.136a2.823 2.823 0 1 1-5.646 0 2.823 2.823 0 1 1 5.646 0z" fill="#c4c5c2"/><path transform="translate(-209.811 401.072) scale(.85224)" d="M291.688-437.594a3.313 3.313 0 1 1-6.625 0 3.313 3.313 0 1 1 6.625 0z" fill="url(#I)"/><path fill="#c4c5c2" d="M28.292 30.153h16.131v7.26H28.292z"/><path d="M30.711 34.992a2.42 2.42 0 1 1-4.84 0 2.42 2.42 0 1 1 4.84 0zM44.423 30.556a2.823 2.823 0 1 1-5.646 0 2.823 2.823 0 1 1 5.646 0z" fill="#c4c5c2"/><path transform="translate(-204.165 403.492) scale(.85224)" d="M291.688-437.594a3.313 3.313 0 1 1-6.625 0 3.313 3.313 0 1 1 6.625 0z" fill="url(#J)"/><path d="M33.131 30.556a2.823 2.823 0 1 1-5.646 0 2.823 2.823 0 1 1 5.646 0z" fill="#c4c5c2"/><path transform="translate(-215.457 403.492) scale(.85224)" d="M291.688-437.594a3.313 3.313 0 1 1-6.625 0 3.313 3.313 0 1 1 6.625 0z" fill="url(#K)"/><path d="M35.122 27.758c-2.887 0-5.217 2.356-5.217 5.243 0 1.912 1.088 3.499 2.621 4.411h5.218c1.533-.912 2.621-2.524 2.621-4.436 0-2.887-2.356-5.218-5.243-5.218z" fill="#c4c5c2"/><path d="M280.5-441a6.502 6.502 0 0 0-6.5 6.5c0 2.376 1.345 4.366 3.25 5.5h6.5c1.905-1.134 3.25-3.124 3.25-5.5 0-3.588-2.912-6.5-6.5-6.5z" fill="url(#L)" transform="matrix(.80659 0 0 .80659 -191.1 383.438)"/><path d="M291.688-437.594a3.313 3.313 0 1 1-6.625 0 3.313 3.313 0 1 1 6.625 0z" transform="matrix(.7305 0 0 .7305 -182.364 354.652)" fill="url(#M)"/><path d="M46.001 30.69c-.001 2.165-2.637 2.996-2.637 2.996s1.895-1.312 1.885-2.989l.752-.007z" fill="#888a85" fill-rule="evenodd"/><g><path d="M42.003 34.186a3.226 3.226 0 1 1-6.452 0 3.226 3.226 0 1 1 6.452 0z" fill="#c4c5c2"/><path transform="matrix(.974 0 0 .974 -242.098 460.398)" d="M291.688-437.594a3.313 3.313 0 1 1-6.625 0 3.313 3.313 0 1 1 6.625 0z" fill="url(#N)"/></g></g><g><path d="M23.853 20.877c-1.831 0-3.315 1.25-3.806 2.924-.559-.293-1.165-.504-1.84-.504a4.034 4.034 0 0 0-4.033 4.033c0 .467.131.893.277 1.31-1.107.622-1.89 1.766-1.89 3.126a3.631 3.631 0 0 0 3.63 3.63h15.325a3.631 3.631 0 0 0 3.63-3.63c0-1.36-.783-2.504-1.891-3.126.146-.417.277-.843.277-1.31a4.034 4.034 0 0 0-4.033-4.033c-.675 0-1.28.21-1.84.504-.49-1.673-1.974-2.924-3.806-2.924z" fill="#c4c5c2" stroke="#888a85" stroke-width="1.0001716" stroke-miterlimit="2"/><path d="M280.5-445c-2.19 0-3.724 1.336-4.396 3.844-.668-.344-1.547-.834-2.354-.834-2.717 0-4.755 1.939-4.755 4.546 0 .546.267 1.333.442 1.822-1.325.728-2.437 1.89-2.437 3.372 0 2.346 1.546 4.25 4.34 4.25h18.32c2.772 0 4.34-1.904 4.34-4.25 0-1.592-1.112-2.666-2.437-3.394.175-.489.464-1.254.464-1.8 0-2.607-2.116-4.568-4.777-4.568-.807 0-1.642.49-2.31.833-.65-2.421-2.25-3.821-4.44-3.821z" fill="url(#O)" transform="matrix(.80659 0 0 .80659 -202.394 380.211)"/><path d="M26.676 24.91a2.823 2.823 0 1 1-5.646 0 2.823 2.823 0 1 1 5.646 0z" fill="#c4c5c2"/><path transform="translate(-221.912 397.846) scale(.85224)" d="M291.688-437.594a3.313 3.313 0 1 1-6.625 0 3.313 3.313 0 1 1 6.625 0z" fill="url(#P)"/><path fill="#c4c5c2" d="M16.19 26.926h16.132v7.26H16.191z"/><path d="M18.61 31.766a2.42 2.42 0 1 1-4.84 0 2.42 2.42 0 1 1 4.84 0zM32.322 27.33a2.823 2.823 0 1 1-5.646 0 2.823 2.823 0 1 1 5.646 0z" fill="#c4c5c2"/><path transform="translate(-216.266 400.266) scale(.85224)" d="M291.688-437.594a3.313 3.313 0 1 1-6.625 0 3.313 3.313 0 1 1 6.625 0z" fill="url(#Q)"/><path d="M21.03 27.33a2.823 2.823 0 1 1-5.646 0 2.823 2.823 0 1 1 5.646 0z" fill="#c4c5c2"/><path transform="translate(-227.558 400.266) scale(.85224)" d="M291.688-437.594a3.313 3.313 0 1 1-6.625 0 3.313 3.313 0 1 1 6.625 0z" fill="url(#R)"/><path d="M23.021 24.532c-2.887 0-5.217 2.356-5.217 5.243 0 1.912 1.088 3.499 2.621 4.41h5.218c1.533-.911 2.621-2.523 2.621-4.435 0-2.888-2.356-5.218-5.243-5.218z" fill="#c4c5c2"/><path d="M280.5-441a6.502 6.502 0 0 0-6.5 6.5c0 2.376 1.345 4.366 3.25 5.5h6.5c1.905-1.134 3.25-3.124 3.25-5.5 0-3.588-2.912-6.5-6.5-6.5z" fill="url(#S)" transform="matrix(.80659 0 0 .80659 -203.2 380.211)"/><path d="M291.688-437.594a3.313 3.313 0 1 1-6.625 0 3.313 3.313 0 1 1 6.625 0z" transform="matrix(.7305 0 0 .7305 -194.465 351.425)" fill="url(#T)"/><path d="M33.9 27.464c0 2.165-2.637 2.995-2.637 2.995s1.895-1.311 1.885-2.988l.752-.007z" fill="#888a85" fill-rule="evenodd"/><g><path d="M29.903 30.96a3.226 3.226 0 1 1-6.453 0 3.226 3.226 0 1 1 6.453 0z" fill="#c4c5c2"/><path transform="matrix(.974 0 0 .974 -254.198 457.172)" d="M291.688-437.594a3.313 3.313 0 1 1-6.625 0 3.313 3.313 0 1 1 6.625 0z" fill="url(#U)"/></g></g></g></svg>