<svg xmlns="http://www.w3.org/2000/svg" xmlns:xlink="http://www.w3.org/1999/xlink" width="48" height="48"><defs><linearGradient xlink:href="#a" id="z" gradientUnits="userSpaceOnUse" gradientTransform="matrix(-.05359 .10285 -.09281 -.05938 198.905 -255.69)" x1="6.894" y1="-359.824" x2="27.4" y2="-381.302"/><radialGradient xlink:href="#b" id="y" gradientUnits="userSpaceOnUse" gradientTransform="matrix(.07065 .04155 -.06201 .1094 207.476 -189.818)" cx="21.92" cy="-382.965" fx="21.92" fy="-382.965" r="21.744"/><linearGradient xlink:href="#c" id="S" gradientUnits="userSpaceOnUse" x1="284.802" y1="-441.233" x2="288.9" y2="-436.831"/><linearGradient xlink:href="#d" id="R" gradientUnits="userSpaceOnUse" x1="286.666" y1="-439.484" x2="289.766" y2="-436.707"/><linearGradient xlink:href="#e" id="Q" gradientUnits="userSpaceOnUse" gradientTransform="translate(-35 207)" x1="275.942" y1="-437.105" x2="279.975" y2="-431.918"/><linearGradient xlink:href="#c" id="P" gradientUnits="userSpaceOnUse" x1="285.941" y1="-439.939" x2="289.391" y2="-436.443"/><linearGradient xlink:href="#f" id="O" gradientUnits="userSpaceOnUse" x1="286.512" y1="-441.291" x2="289.854" y2="-436.145"/><linearGradient xlink:href="#g" id="N" gradientUnits="userSpaceOnUse" x1="287.517" y1="-439.753" x2="289.676" y2="-436.322"/><linearGradient xlink:href="#h" id="M" gradientUnits="userSpaceOnUse" gradientTransform="translate(-34 207)" x1="271.022" y1="-441.052" x2="285.029" y2="-431.97"/><linearGradient xlink:href="#c" id="L" gradientUnits="userSpaceOnUse" x1="284.802" y1="-441.233" x2="288.9" y2="-436.831"/><linearGradient xlink:href="#d" id="K" gradientUnits="userSpaceOnUse" x1="286.666" y1="-439.484" x2="289.766" y2="-436.707"/><linearGradient xlink:href="#e" id="J" gradientUnits="userSpaceOnUse" gradientTransform="translate(-35 207)" x1="275.942" y1="-437.105" x2="279.975" y2="-431.918"/><linearGradient xlink:href="#c" id="I" gradientUnits="userSpaceOnUse" x1="285.941" y1="-439.939" x2="289.391" y2="-436.443"/><linearGradient xlink:href="#f" id="H" gradientUnits="userSpaceOnUse" x1="286.512" y1="-441.291" x2="289.854" y2="-436.145"/><linearGradient xlink:href="#g" id="G" gradientUnits="userSpaceOnUse" x1="287.517" y1="-439.753" x2="289.676" y2="-436.322"/><linearGradient xlink:href="#h" id="F" gradientUnits="userSpaceOnUse" gradientTransform="translate(-34 207)" x1="271.022" y1="-441.052" x2="285.029" y2="-431.97"/><linearGradient xlink:href="#i" id="E" gradientUnits="userSpaceOnUse" x1="238.005" y1="-388.475" x2="245.655" y2="-382.645"/><linearGradient xlink:href="#j" id="D" gradientUnits="userSpaceOnUse" x1="230.876" y1="-390.44" x2="235.257" y2="-386.959"/><linearGradient xlink:href="#k" id="C" gradientUnits="userSpaceOnUse" x1="246.74" y1="-391.314" x2="252.698" y2="-385.352"/><linearGradient xlink:href="#l" id="B" gradientUnits="userSpaceOnUse" x1="240.074" y1="-393.407" x2="245.827" y2="-388.55"/><linearGradient xlink:href="#m" id="A" gradientUnits="userSpaceOnUse" gradientTransform="translate(69 155)" x1="228.503" y1="-392.306" x2="266.364" y2="-379.269"/><linearGradient xlink:href="#a" id="U" gradientUnits="userSpaceOnUse" gradientTransform="matrix(-.05359 .10285 -.09281 -.05938 198.905 -255.69)" x1="6.894" y1="-359.824" x2="27.4" y2="-381.302"/><radialGradient xlink:href="#b" id="T" gradientUnits="userSpaceOnUse" gradientTransform="matrix(.07065 .04155 -.06201 .1094 207.476 -189.818)" cx="21.92" cy="-382.965" fx="21.92" fy="-382.965" r="21.744"/><linearGradient xlink:href="#a" id="W" gradientUnits="userSpaceOnUse" gradientTransform="matrix(-.05359 .10285 -.09281 -.05938 198.905 -255.69)" x1="6.894" y1="-359.824" x2="27.4" y2="-381.302"/><radialGradient xlink:href="#b" id="V" gradientUnits="userSpaceOnUse" gradientTransform="matrix(.07065 .04155 -.06201 .1094 207.476 -189.818)" cx="21.92" cy="-382.965" fx="21.92" fy="-382.965" r="21.744"/><linearGradient xlink:href="#a" id="Y" gradientUnits="userSpaceOnUse" gradientTransform="matrix(-.05359 .10285 -.09281 -.05938 198.905 -255.69)" x1="6.894" y1="-359.824" x2="27.4" y2="-381.302"/><radialGradient xlink:href="#b" id="X" gradientUnits="userSpaceOnUse" gradientTransform="matrix(.07065 .04155 -.06201 .1094 207.476 -189.818)" cx="21.92" cy="-382.965" fx="21.92" fy="-382.965" r="21.744"/><linearGradient xlink:href="#a" id="aa" gradientUnits="userSpaceOnUse" gradientTransform="matrix(-.05359 .10285 -.09281 -.05938 198.905 -255.69)" x1="6.894" y1="-359.824" x2="27.4" y2="-381.302"/><radialGradient xlink:href="#b" id="Z" gradientUnits="userSpaceOnUse" gradientTransform="matrix(.07065 .04155 -.06201 .1094 207.476 -189.818)" cx="21.92" cy="-382.965" fx="21.92" fy="-382.965" r="21.744"/><linearGradient id="a"><stop offset="0" stop-color="#fff"/><stop offset="1" stop-color="#fff" stop-opacity="0"/></linearGradient><linearGradient xlink:href="#a" id="ac" gradientUnits="userSpaceOnUse" gradientTransform="matrix(-.05359 .10285 -.09281 -.05938 198.905 -255.69)" x1="6.894" y1="-359.824" x2="27.4" y2="-381.302"/><linearGradient id="b"><stop offset="0" stop-color="#fff"/><stop offset="1" stop-color="#fff" stop-opacity="0"/></linearGradient><radialGradient xlink:href="#b" id="ab" gradientUnits="userSpaceOnUse" gradientTransform="matrix(.07065 .04155 -.06201 .1094 207.476 -189.818)" cx="21.92" cy="-382.965" fx="21.92" fy="-382.965" r="21.744"/><linearGradient id="d"><stop offset="0" stop-color="#fff"/><stop offset="1" stop-color="#fff" stop-opacity="0"/></linearGradient><linearGradient id="e"><stop offset="0" stop-color="#fff"/><stop offset="1" stop-color="#fff" stop-opacity="0"/></linearGradient><linearGradient id="c"><stop offset="0" stop-color="#fff"/><stop offset="1" stop-color="#fff" stop-opacity="0"/></linearGradient><linearGradient id="f"><stop offset="0" stop-color="#fff"/><stop offset="1" stop-color="#fff" stop-opacity="0"/></linearGradient><linearGradient id="g"><stop offset="0" stop-color="#fff"/><stop offset="1" stop-color="#fff" stop-opacity="0"/></linearGradient><linearGradient id="h"><stop offset="0" stop-color="#fff"/><stop offset="1" stop-color="#fff" stop-opacity="0"/></linearGradient><linearGradient id="i"><stop offset="0" stop-color="#fff"/><stop offset="1" stop-color="#fff" stop-opacity="0"/></linearGradient><linearGradient id="j"><stop offset="0" stop-color="#fff"/><stop offset="1" stop-color="#fff" stop-opacity="0"/></linearGradient><linearGradient id="k"><stop offset="0" stop-color="#fff"/><stop offset="1" stop-color="#fff" stop-opacity="0"/></linearGradient><linearGradient id="l"><stop offset="0" stop-color="#fff"/><stop offset="1" stop-color="#fff" stop-opacity="0"/></linearGradient><linearGradient id="m"><stop offset="0" stop-color="#fff"/><stop offset="1" stop-color="#fff" stop-opacity="0"/></linearGradient><linearGradient id="o"><stop offset="0" stop-color="#fff"/><stop offset="1" stop-color="#fff" stop-opacity="0"/></linearGradient><linearGradient id="q"><stop offset="0" stop-color="#fff"/><stop offset="1" stop-color="#fff" stop-opacity="0"/></linearGradient><linearGradient id="p"><stop offset="0" stop-color="#fff"/><stop offset="1" stop-color="#fff" stop-opacity="0"/></linearGradient><linearGradient id="r" gradientUnits="userSpaceOnUse" x1="4.191" y1="11.113" x2="47.32" y2="56.052"><stop offset="0" stop-color="#fff"/><stop offset="1" stop-color="#fff" stop-opacity=".34"/></linearGradient><linearGradient id="x"><stop offset="0" stop-color="#fff"/><stop offset="1" stop-color="#fff" stop-opacity="0"/></linearGradient><linearGradient id="w"><stop offset="0" stop-color="#fff"/><stop offset="1" stop-color="#fff" stop-opacity="0"/></linearGradient><linearGradient id="v"><stop offset="0" stop-color="#edd400"/><stop offset="1" stop-color="#edd400" stop-opacity="0"/></linearGradient><linearGradient id="u"><stop offset="0" stop-color="#fcaf3e"/><stop offset="1" stop-color="#fcaf3e" stop-opacity="0"/></linearGradient><linearGradient id="t"><stop offset="0" stop-color="#fce94f"/><stop offset="1" stop-color="#fce94f" stop-opacity="0"/></linearGradient><linearGradient id="s"><stop offset="0" stop-color="#eeeeec"/><stop offset="1" stop-color="#eeeeec" stop-opacity="0"/></linearGradient><linearGradient id="n"><stop offset="0" stop-color="#fff"/><stop offset="1" stop-color="#fff" stop-opacity="0"/></linearGradient></defs><path d="M28.671 42.236a2.151 2.151 0 0 1-.796-2.95c1.332-2.082 3.105-1.545 4.012-3.74 1.261 1.333.794 8.247-3.216 6.69z" fill="#729fcf" stroke="#204a87" stroke-width="1.075" stroke-miterlimit="2"/><path d="M234.31-229.904a1.757 1.757 0 0 1-2.423.662 1.826 1.826 0 0 1-.65-2.468c.49-.864 2.607-.452 3.347-2.29.848.499.216 3.233-.274 4.096z" opacity=".461" fill="url(#y)" transform="translate(-202.955 271.007)"/><path d="M233.022-229c-4.614-1.074.238-4.72.978-3.922-3.582 1.37-.978 3.922-.978 3.922z" fill="url(#z)" transform="translate(-202.955 271.007)"/><path d="M24.55 2c-2.771 0-5.106 1.574-6.404 3.813C17.202 5.338 16.182 5 15.054 5a7.001 7.001 0 0 0-6.998 7c0 3.864 3.135 7 6.998 7 2.419 0 4.428-1.32 5.685-3.187 1.134.69 2.389 1.187 3.812 1.187.912 0 1.752-.232 2.561-.531a6.847 6.847 0 0 0 2 2.156c-.008.13-.063.243-.063.375 0 3.864 3.135 7 6.998 7a7.001 7.001 0 0 0 6.998-7c0-2.37-1.259-4.358-3.062-5.625.007-.13.063-.243.063-.375 0-3.864-3.135-7-6.998-7-.623 0-1.175.222-1.75.375C30.104 3.816 27.558 2 24.551 2z" fill="#555753"/><path d="M311.5-242c-2.78 0-5.135 1.762-6.063 4.219-.985-.71-2.13-1.219-3.437-1.219-3.312 0-6 2.688-6 6s2.688 6 6 6c2.428 0 4.493-1.456 5.438-3.531 1.12.917 2.502 1.531 4.062 1.531 1.075 0 2.044-.319 2.938-.781.398 1 1.1 1.786 1.937 2.437-.18.596-.375 1.19-.375 1.844 0 3.588 2.912 6.5 6.5 6.5s6.5-2.912 6.5-6.5c0-2.36-1.334-4.33-3.219-5.469.063-.347.219-.666.219-1.031a6.002 6.002 0 0 0-8.406-5.5c-.854-2.594-3.215-4.5-6.094-4.5z" fill="url(#A)" transform="matrix(.99967 0 0 1 -286.848 245)"/><path d="M42.045 19.5a6.499 6.499 0 1 1-12.996 0 6.499 6.499 0 1 1 12.996 0zM30.049 9.5a5.5 5.5 0 1 1-10.997 0 5.5 5.5 0 1 1 10.997 0z" fill="#888a85"/><path transform="matrix(.88234 0 0 .88263 -190.699 353.11)" d="M250.183-389.301a6.231 6.231 0 1 1-12.463 0 6.231 6.231 0 0 1 12.463 0z" opacity=".494" fill="url(#B)"/><path d="M38.046 13.5a5.5 5.5 0 1 1-10.996 0 5.5 5.5 0 1 1 10.996 0z" fill="#888a85"/><path transform="matrix(.91143 0 0 .91173 -196.424 365.234)" d="M257.254-385.788a6.032 6.032 0 1 1-12.065 0 6.032 6.032 0 0 1 12.065 0z" opacity=".494" fill="url(#C)"/><path d="M20.052 12a5 5 0 1 1-4.998-5 5 5 0 0 1 4.998 5z" fill="#888a85"/><path transform="matrix(1.14243 0 0 1.1428 -251.627 455.277)" d="M237.809-387.887a4.375 4.375 0 1 1-8.75 0 4.375 4.375 0 0 1 8.75 0z" opacity=".494" fill="url(#D)"/><g><path d="M31.048 16a6.999 6.999 0 1 1-13.995 0 6.999 6.999 0 1 1 13.995 0z" fill="#888a85"/><path transform="matrix(1.0383 0 0 1.03864 -227.019 414.49)" d="M248.548-383.667a6.74 6.74 0 1 1-13.48 0 6.74 6.74 0 0 1 13.48 0z" opacity=".494" fill="url(#E)"/></g><g><path d="M246.5-238.5c-2.27 0-4.11 1.55-4.719 3.625-.693-.364-1.444-.625-2.281-.625-2.76 0-5 2.24-5 5 0 .579.162 1.108.344 1.625-1.374.77-2.344 2.19-2.344 3.875 0 2.484 2.016 4.5 4.5 4.5h19c2.484 0 4.5-2.016 4.5-4.5 0-1.686-.97-3.104-2.344-3.875.181-.517.344-1.046.344-1.625 0-2.76-2.24-5-5-5-.837 0-1.588.261-2.281.625-.61-2.075-2.448-3.625-4.72-3.625z" fill="#888a85" stroke="#555753" stroke-miterlimit="2" transform="matrix(.99967 0 0 1 -214.872 253)"/><path d="M246.5-238c-2.19 0-3.724 1.336-4.396 3.844-.668-.344-1.547-.834-2.354-.834-2.717 0-4.755 1.94-4.755 4.546 0 .547.267 1.333.442 1.822-1.325.728-2.437 1.89-2.437 3.372 0 2.346 1.546 4.25 4.34 4.25h18.32c2.772 0 4.34-1.904 4.34-4.25 0-1.592-1.112-2.666-2.437-3.394.175-.489.464-1.253.464-1.8 0-2.607-2.116-4.568-4.777-4.568-.807 0-1.642.49-2.31.833-.65-2.421-2.25-3.82-4.44-3.82z" fill="url(#F)" transform="matrix(.99967 0 0 1 -214.872 253)"/><path d="M35.047 19.5a3.5 3.5 0 1 1-6.999.001 3.5 3.5 0 0 1 7 0z" fill="#888a85"/><path d="M291.688-437.594a3.313 3.313 0 1 1-6.626 0 3.313 3.313 0 0 1 6.625 0z" transform="matrix(1.05626 0 0 1.0566 -273.05 481.863)" opacity=".478" fill="url(#G)"/><path fill="#888a85" d="M22.051 22h19.994v9H22.05z"/><path d="M25.05 28a3 3 0 1 1-5.999.001 3 3 0 0 1 6 0zM42.045 22.5a3.5 3.5 0 1 1-6.999.001 3.5 3.5 0 0 1 6.999-.001z" fill="#888a85"/><path d="M291.688-437.594a3.313 3.313 0 1 1-6.626 0 3.313 3.313 0 0 1 6.625 0z" transform="matrix(1.05626 0 0 1.0566 -266.053 484.863)" opacity=".478" fill="url(#H)"/><path d="M28.05 22.5a3.5 3.5 0 1 1-7 .001 3.5 3.5 0 0 1 7 0z" fill="#888a85"/><path d="M291.688-437.594a3.313 3.313 0 1 1-6.626 0 3.313 3.313 0 0 1 6.625 0z" transform="matrix(1.05626 0 0 1.0566 -280.049 484.863)" opacity=".478" fill="url(#I)"/><path d="M30.517 19.031c-3.578 0-6.466 2.921-6.466 6.5 0 2.371 1.349 4.338 3.249 5.47h6.466c1.9-1.132 3.25-3.13 3.25-5.5 0-3.58-2.92-6.47-6.499-6.47z" fill="#888a85"/><path d="M245.5-234a6.502 6.502 0 0 0-6.5 6.5c0 2.376 1.345 4.366 3.25 5.5h6.5c1.905-1.134 3.25-3.124 3.25-5.5 0-3.588-2.912-6.5-6.5-6.5z" opacity=".478" fill="url(#J)" transform="matrix(.99967 0 0 1 -214.872 253)"/><path d="M291.688-437.594a3.313 3.313 0 1 1-6.626 0 3.313 3.313 0 0 1 6.625 0z" transform="matrix(.90537 0 0 .90566 -239.033 424.311)" opacity=".478" fill="url(#K)"/><path d="M44 22.666c0 2.685-3.268 3.714-3.268 3.714s2.348-1.626 2.337-3.705l.932-.009z" fill="#555753" fill-rule="evenodd"/><path d="M39.046 27a4 4 0 1 1-7.999.002A4 4 0 0 1 39.046 27z" fill="#888a85"/><path d="M291.688-437.594a3.313 3.313 0 1 1-6.626 0 3.313 3.313 0 0 1 6.625 0z" transform="matrix(1.20715 0 0 1.20755 -313.066 555.415)" opacity=".478" fill="url(#L)"/></g><g><path d="M246.5-238.5c-2.27 0-4.11 1.55-4.719 3.625-.693-.364-1.444-.625-2.281-.625-2.76 0-5 2.24-5 5 0 .579.162 1.108.344 1.625-1.374.77-2.344 2.19-2.344 3.875 0 2.484 2.016 4.5 4.5 4.5h19c2.484 0 4.5-2.016 4.5-4.5 0-1.686-.97-3.104-2.344-3.875.181-.517.344-1.046.344-1.625 0-2.76-2.24-5-5-5-.837 0-1.588.261-2.281.625-.61-2.075-2.448-3.625-4.72-3.625z" fill="#888a85" stroke="#555753" stroke-miterlimit="2" transform="matrix(.99967 0 0 1 -229.881 248.984)"/><path d="M246.5-238c-2.19 0-3.724 1.336-4.396 3.844-.668-.344-1.547-.834-2.354-.834-2.717 0-4.755 1.94-4.755 4.546 0 .547.267 1.333.442 1.822-1.325.728-2.437 1.89-2.437 3.372 0 2.346 1.546 4.25 4.34 4.25h18.32c2.772 0 4.34-1.904 4.34-4.25 0-1.592-1.112-2.666-2.437-3.394.175-.489.464-1.253.464-1.8 0-2.607-2.116-4.568-4.777-4.568-.807 0-1.642.49-2.31.833-.65-2.421-2.25-3.82-4.44-3.82z" fill="url(#M)" transform="matrix(.99967 0 0 1 -229.881 248.984)"/><path d="M20.038 15.484a3.5 3.5 0 1 1-7 .001 3.5 3.5 0 0 1 7 0z" fill="#888a85"/><path d="M291.688-437.594a3.313 3.313 0 1 1-6.626 0 3.313 3.313 0 0 1 6.625 0z" transform="matrix(1.05626 0 0 1.0566 -288.06 477.847)" opacity=".478" fill="url(#N)"/><path fill="#888a85" d="M7.042 17.984h19.994v9H7.042z"/><path d="M10.04 23.984a3 3 0 1 1-5.998.001 3 3 0 0 1 5.999 0zM27.036 18.484a3.5 3.5 0 1 1-7 .001 3.5 3.5 0 0 1 7-.001z" fill="#888a85"/><path d="M291.688-437.594a3.313 3.313 0 1 1-6.626 0 3.313 3.313 0 0 1 6.625 0z" transform="matrix(1.05626 0 0 1.0566 -281.063 480.847)" opacity=".478" fill="url(#O)"/><path d="M13.04 18.484a3.5 3.5 0 1 1-6.999.001 3.5 3.5 0 0 1 6.999 0z" fill="#888a85"/><path d="M291.688-437.594a3.313 3.313 0 1 1-6.626 0 3.313 3.313 0 0 1 6.625 0z" transform="matrix(1.05626 0 0 1.0566 -295.058 480.847)" opacity=".478" fill="url(#P)"/><path d="M15.508 15.015c-3.578 0-6.467 2.921-6.467 6.5 0 2.371 1.35 4.338 3.25 5.47h6.466c1.9-1.132 3.249-3.13 3.249-5.5 0-3.58-2.92-6.47-6.498-6.47z" fill="#888a85"/><path d="M245.5-234a6.502 6.502 0 0 0-6.5 6.5c0 2.376 1.345 4.366 3.25 5.5h6.5c1.905-1.134 3.25-3.124 3.25-5.5 0-3.588-2.912-6.5-6.5-6.5z" opacity=".478" fill="url(#Q)" transform="matrix(.99967 0 0 1 -229.881 248.984)"/><path d="M291.688-437.594a3.313 3.313 0 1 1-6.626 0 3.313 3.313 0 0 1 6.625 0z" transform="matrix(.90537 0 0 .90566 -254.043 420.295)" opacity=".478" fill="url(#R)"/><path d="M28.991 18.65c-.001 2.685-3.268 3.714-3.268 3.714s2.348-1.626 2.336-3.705l.932-.009z" fill="#555753" fill-rule="evenodd"/><path d="M24.036 22.984a4 4 0 1 1-7.998.002 4 4 0 0 1 7.998-.002z" fill="#888a85"/><path d="M291.688-437.594a3.313 3.313 0 1 1-6.626 0 3.313 3.313 0 0 1 6.625 0z" transform="matrix(1.20715 0 0 1.20755 -328.076 551.4)" opacity=".478" fill="url(#S)"/></g><g><path d="M8.671 32.244a2.151 2.151 0 0 1-.796-2.95c1.332-2.082 3.105-1.545 4.012-3.741 1.261 1.334.794 8.248-3.216 6.69z" fill="#729fcf" stroke="#204a87" stroke-width="1.075" stroke-miterlimit="2"/><path d="M234.31-229.904a1.757 1.757 0 0 1-2.423.662 1.826 1.826 0 0 1-.65-2.468c.49-.864 2.607-.452 3.347-2.29.848.499.216 3.233-.274 4.096z" opacity=".461" fill="url(#T)" transform="translate(-222.955 261.014)"/><path d="M233.022-229c-4.614-1.074.238-4.72.978-3.922-3.582 1.37-.978 3.922-.978 3.922z" fill="url(#U)" transform="translate(-222.955 261.014)"/></g><path transform="matrix(.11987 0 0 .11978 -1.811 -8.957)" fill="#d40000" stroke="#004a00" stroke-width="2.921" stroke-linecap="round" stroke-linejoin="round" d="M325.304 364.509l-20.056 10.588-21.26 9.652 111.013 20.935 8.823 2.566.23 5.625-4.848 5.688-4.662 6.336-5.907 8.942-3.631.735h-15.364l.076-.294.669-.81 1.138-1.215 1.485-1.512 1.707-1.701 1.807-1.779 1.784-1.748 1.636-1.61 1.393-1.385 1.15-1.171.94-.989.756-.839.6-.726.475-.642.379-.595.309-.579.265-.59.215-.599.154-.596.083-.585.003-.566-.09-.534-.191-.494-.304-.445-.44-.391-.657-.358-.962-.351-1.359-.371-1.849-.416-2.428-.487-3.101-.586-3.864-.71-4.676-.852-5.362-.974-5.879-1.068-6.229-1.135-6.41-1.173-6.421-1.183-6.263-1.165-5.939-1.12-5.479-1.051-5.03-.982-4.622-.917-4.258-.859-3.939-.804-3.661-.754-3.429-.711-3.237-.67-3.084-.637-2.928-.607-2.767-.585-2.599-.567-2.42-.556-2.238-.551-2.045-.551-1.845-.557-1.642-.569-1.444-.582-1.258-.596-1.082-.61-.915-.627-.759-.643-.615-.662-.478-.679-.352-.699-.229-.711-.11-.717.011-.715.125-.707.238-.691.351-.669.46-.64.57-.607.699-.585.849-.58 1.021-.586 1.215-.612 1.432-.65 1.669-.704 1.927-.773 2.236-.86 2.697-.981 3.342-1.134 4.167-1.326 5.172-1.553 6.361-1.815 7.731-2.112 9.171-2.417 6.769-20.105-71.546-24.091-6.352 18.867-2.72-.381-2.399-.141h-2.783l-4.817 1.074-1.192.609-1.28.679-1.343.757-1.384.838-1.408.909-1.416.961-1.412.998-1.391 1.017-1.355 1.021-1.304 1.008-1.239.978-1.161.936-1.079.894-.997.862-.914.835-.83.815-.746.801-.658.791-.573.791-.485.795-.402.799-.323.805-.248.811-.177.817-.112.823-.048.829.009.836.065.842.122.841.185.834.252.818.324.796.398.767.479.729.564.685.651.636.733.593.806.558.872.533.931.516.982.507 1.024.507 1.061.517 1.087.531 1.11.542 1.125.545 1.133.538 1.134.528 1.13.505 1.118.478 1.101.442 1.078.404 1.062.368 1.053.345 1.052.329 1.06.324 1.075.328 1.097.342 1.129.363 1.165.393 1.192.417 1.209.433 1.214.441 1.209.441 1.193.433 1.164.417 1.124.391 1.077.364 1.027.338.979.326.931.318.884.321.838.334.793.356.749.385.708.422.679.465.664.514.664.565.678.623.708.686.749.751.808.821.87.896.909.97.913 1.043.88 1.116.816 1.185.716 1.255.582 1.324.412 1.391.22 1.456.038 1.519-.122 1.576-.263 1.629-.38 1.679-.48 1.726-.556 1.766-.611 1.803-.648 1.834-.679 1.846-.7 1.834-.718 1.803-.73 1.748-.735 1.673-.735 1.574-.729 1.455-.718 1.321-.7 1.203-.679 1.107-.653 1.033-.623.983-.586.956-.546.951-.501.97-.206.443-7.587 7.99h-30.973l-2.181-.141-1.499-.19-.871-.261-.294-.349.227-.458.693-.585 1.109-.733 1.47-.899 1.775-1.079 2.022-1.234 2.207-1.362 2.331-1.46 2.394-1.53 2.396-1.57 2.338-1.58 2.218-1.56 2.05-1.518 1.885-1.473 1.738-1.429 1.607-1.39 1.492-1.352 1.393-1.316 1.312-1.284 1.246-1.255 1.193-1.228 1.138-1.209 1.074-1.196 1.004-1.192.925-1.195.842-1.207.747-1.225.649-1.25.545-1.281.444-1.297.352-1.299.266-1.283.188-1.251.115-1.202.051-1.137-.007-1.056-.058-.961-.112-.87-.169-.785-.228-.706-.291-.634-.356-.568-.425-.51-.497-.455-.575-.41-.671-.37-.787-.338-.925-.313-1.085-.293-1.264-.28-1.466-.276-1.688-.278-1.92-.285-2.11-.294-2.248-.303-2.333-.314-2.365-.325-2.346-.336-2.272-.348-2.145-.359-1.981-.373-1.833-.389-1.716-.407-1.632-.429-1.576-.452-1.554-.479-1.561-.51-1.6-.543-1.659-.577-1.693-.614-1.694-.65-1.656-.686-1.585-.722-1.477-.759-1.336-.797-1.157-.834-.953-.871-.762-.912-.592-.956-.445-1.005-.318-1.055-.215-1.108-.133-1.167-.072-1.228-.029-1.287.022-1.332.084-1.356.158-1.361.245-1.342.342-1.308.452-1.251.573-1.174.704-1.085.827-1.005.939-.942 1.041-.896 1.133-.871 1.214-.86 1.284-.866 1.344-.89 1.395-.928 1.441-.967 1.488-1.001 1.533-1.033 1.576-1.063 1.617-1.088 1.659-1.109 1.696-1.13 1.729-1.143 1.737-1.138 1.716-1.113 1.665-1.068 1.584-1.001 1.476-.914 1.336-.806 1.169-.679.982-.536.814-.401.662-.273.017-.007 1.36-.424 6.354-18.867-5.181-10.902 7.82-23.22 11.218-4.84 10.665-16.339 14.845-6.851 62.272 20.969 8.341 14.658-.896 19.088 5.511 11.013-6.993 22.961-12.045 5.1-6.442 19.134"/><g font-size="40" font-weight="400" fill="#06f" font-family="Bitstream Vera Sans"><path d="M44.512 38.75c0-.36-.337-.673-.721-.673-.29 0-.578.193-.866.602-.385.529-.722.866-1.01 1.034-.362.217-.554.313-.626.313-.072 0-.096-.217-.096-.674 0-.36.096-.77.264-1.178.169-.433.265-.722.265-.89 0-.506-.24-.77-.698-.77-.48 0-.721.264-.721.77 0 .288.529 1.226.529 2.188 0 .361-.024.554-.096.554-.073 0-.241-.096-.53-.265-.312-.168-.65-.53-1.058-1.058-.313-.41-.625-.626-.914-.626-.385 0-.722.313-.722.698 0 .409.289.673.866.818.938.216 1.42.337 1.443.36.458.241.698.385.698.434 0 .072-.24.216-.698.457-.312.168-.553.24-.721.264l-.818.12c-.505.12-.77.385-.77.794 0 .385.337.698.722.698.264 0 .577-.217.89-.626.385-.529.794-.914 1.203-1.13.168-.12.312-.193.409-.193.072 0 .096.217.096.674 0 .36-.096.77-.265 1.179-.168.409-.264.721-.264.914 0 .505.24.745.721.745.433 0 .674-.264.698-.793 0-.385-.457-1.203-.53-1.973-.023-.505.025-.746.097-.746.072 0 .842.29 1.636 1.348.288.408.577.6.866.6.384 0 .721-.312.721-.697 0-.409-.264-.65-.794-.77-.89-.192-1.395-.336-1.54-.408-.456-.265-.673-.41-.673-.457 0-.024.193-.145.602-.361.168-.12.721-.265 1.611-.457.53-.12.794-.41.794-.818" style="-inkscape-font-specification:GFS Baskerville" font-size="20" font-family="GFS Baskerville"/></g><g><path d="M37.67 39.236a2.151 2.151 0 0 1-.796-2.95c1.331-2.082 3.105-1.545 4.012-3.74 1.26 1.333.793 8.247-3.217 6.69z" fill="#729fcf" stroke="#204a87" stroke-width="1.075" stroke-miterlimit="2"/><path d="M234.31-229.904a1.757 1.757 0 0 1-2.423.662 1.826 1.826 0 0 1-.65-2.468c.49-.864 2.607-.452 3.347-2.29.848.499.216 3.233-.274 4.096z" opacity=".461" fill="url(#V)" transform="translate(-193.957 268.007)"/><path d="M233.022-229c-4.614-1.074.238-4.72.978-3.922-3.582 1.37-.978 3.922-.978 3.922z" fill="url(#W)" transform="translate(-193.957 268.007)"/></g><g font-size="40" font-weight="400" fill="#06f" font-family="Bitstream Vera Sans"><path d="M11.748 35.444c0-.36-.337-.673-.722-.673-.288 0-.577.192-.866.601-.385.53-.721.866-1.01 1.034-.36.217-.553.313-.625.313-.073 0-.097-.216-.097-.673 0-.361.097-.77.265-1.18.168-.432.265-.72.265-.89 0-.504-.24-.769-.698-.769-.481 0-.722.265-.722.77 0 .289.53 1.227.53 2.189 0 .36-.024.553-.097.553-.072 0-.24-.096-.529-.264-.313-.169-.65-.53-1.058-1.059-.313-.409-.626-.625-.914-.625-.385 0-.722.312-.722.697 0 .41.289.674.866.818.938.217 1.42.337 1.443.361.457.24.698.385.698.433 0 .072-.24.216-.698.457-.312.168-.553.24-.721.265l-.818.12c-.505.12-.77.385-.77.794 0 .385.337.697.722.697.264 0 .577-.216.89-.625.385-.53.793-.914 1.202-1.13.169-.121.313-.193.41-.193.072 0 .096.216.096.673 0 .361-.097.77-.265 1.18-.168.408-.265.72-.265.913 0 .505.24.746.722.746.433 0 .674-.265.698-.794 0-.385-.457-1.203-.53-1.972-.024-.506.024-.746.097-.746.072 0 .842.289 1.635 1.347.289.409.578.601.866.601.385 0 .722-.312.722-.697 0-.41-.265-.65-.794-.77-.89-.192-1.395-.337-1.54-.409-.456-.265-.673-.409-.673-.457 0-.024.193-.144.602-.36.168-.121.721-.265 1.611-.458.53-.12.794-.409.794-.818" style="-inkscape-font-specification:GFS Baskerville" font-size="20" font-family="GFS Baskerville"/></g><g><path d="M6.67 42.237a2.151 2.151 0 0 1-.795-2.949c1.332-2.083 3.105-1.546 4.012-3.741 1.261 1.333.793 8.247-3.216 6.69z" fill="#729fcf" stroke="#204a87" stroke-width="1.075" stroke-miterlimit="2"/><path d="M234.31-229.904a1.757 1.757 0 0 1-2.423.662 1.826 1.826 0 0 1-.65-2.468c.49-.864 2.607-.452 3.347-2.29.848.499.216 3.233-.274 4.096z" opacity=".461" fill="url(#X)" transform="translate(-224.955 271.008)"/><path d="M233.022-229c-4.614-1.074.238-4.72.978-3.922-3.582 1.37-.978 3.922-.978 3.922z" fill="url(#Y)" transform="translate(-224.955 271.008)"/></g><g><path d="M16.67 37.236a2.151 2.151 0 0 1-.796-2.95c1.331-2.082 3.105-1.545 4.012-3.74 1.26 1.333.793 8.247-3.217 6.69z" fill="#729fcf" stroke="#204a87" stroke-width="1.075" stroke-miterlimit="2"/><path d="M234.31-229.904a1.757 1.757 0 0 1-2.423.662 1.826 1.826 0 0 1-.65-2.468c.49-.864 2.607-.452 3.347-2.29.848.499.216 3.233-.274 4.096z" opacity=".461" fill="url(#Z)" transform="translate(-214.957 266.007)"/><path d="M233.022-229c-4.614-1.074.238-4.72.978-3.922-3.582 1.37-.978 3.922-.978 3.922z" fill="url(#aa)" transform="translate(-214.957 266.007)"/></g><path transform="matrix(.11987 0 0 .11978 -1.811 -8.957)" fill="#fff" stroke="#000" stroke-width="1.844" stroke-linecap="round" stroke-linejoin="round" d="M258.826 278.27l12.467-19.501 66.741 21.935-3.024 23.219z"/><g><path d="M30.67 32.244a2.151 2.151 0 0 1-.796-2.95c1.331-2.082 3.105-1.545 4.012-3.741 1.26 1.334.793 8.248-3.217 6.69z" fill="#729fcf" stroke="#204a87" stroke-width="1.075" stroke-miterlimit="2"/><path d="M234.31-229.904a1.757 1.757 0 0 1-2.423.662 1.826 1.826 0 0 1-.65-2.468c.49-.864 2.607-.452 3.347-2.29.848.499.216 3.233-.274 4.096z" opacity=".461" fill="url(#ab)" transform="translate(-200.957 261.014)"/><path d="M233.022-229c-4.614-1.074.238-4.72.978-3.922-3.582 1.37-.978 3.922-.978 3.922z" fill="url(#ac)" transform="translate(-200.957 261.014)"/></g><g font-size="40" font-weight="400" fill="#06f" font-family="Bitstream Vera Sans"><path d="M26.184 39.467c0-.36-.337-.673-.722-.673-.288 0-.577.192-.866.601-.385.53-.721.866-1.01 1.035-.36.216-.553.312-.625.312-.073 0-.097-.216-.097-.673 0-.361.097-.77.265-1.179.168-.433.265-.722.265-.89 0-.505-.241-.77-.698-.77-.481 0-.722.265-.722.77 0 .289.53 1.227.53 2.189 0 .36-.025.553-.097.553-.072 0-.24-.096-.529-.264-.313-.169-.65-.53-1.058-1.059-.313-.409-.626-.625-.914-.625-.385 0-.722.313-.722.697 0 .41.289.674.866.818.938.217 1.42.337 1.443.361.457.24.698.385.698.433 0 .072-.24.217-.698.457-.312.169-.553.24-.721.265l-.818.12c-.505.12-.77.385-.77.794 0 .385.337.697.722.697.264 0 .577-.216.89-.625.385-.53.793-.914 1.202-1.13.169-.12.313-.193.41-.193.071 0 .096.216.096.674 0 .36-.097.77-.265 1.178-.168.41-.265.722-.265.914 0 .505.24.746.722.746.433 0 .674-.265.698-.794 0-.385-.457-1.203-.53-1.972-.024-.505.024-.746.097-.746.072 0 .842.289 1.635 1.347.289.409.578.601.866.601.385 0 .722-.312.722-.697 0-.41-.265-.65-.794-.77-.89-.192-1.395-.337-1.54-.409-.456-.264-.673-.409-.673-.457 0-.024.193-.144.601-.36.169-.121.722-.265 1.612-.458.53-.12.794-.409.794-.818" style="-inkscape-font-specification:GFS Baskerville" font-size="20" font-family="GFS Baskerville"/></g></svg>