<svg xmlns="http://www.w3.org/2000/svg" viewBox="0 0 396.501 396.501"><path d="M199.935 308.472a8 8 0 0 1-8 8c-63.417 0-115.009-51.593-115.009-115.01a8 8 0 0 1 16 0c0 54.594 44.416 99.01 99.009 99.01a8 8 0 0 1 8 8zM87.886 91.597a8 8 0 0 0 8-8v-2.051a8 8 0 0 0-16 0v2.051a8 8 0 0 0 8 8zm291.878 21.504v90.66c0 77.269-61.182 140.517-137.643 143.851l.001 40.887a8 8 0 0 1-8 8h-17.179a8 8 0 0 1 0-16h9.179l-.001-32.749h-34.819v40.752a7.997 7.997 0 0 1-8 8h-.002l-17.178-.003a8 8 0 0 1 .001-16h.001l9.177.002v-33.542c-72.306-7.59-128.844-68.914-128.844-143.197v-72.464h-21.72a7.998 7.998 0 0 1-5.759-13.552l27.48-28.51V78.387c0-20.278 14.203-37.301 33.186-41.641a35.379 35.379 0 0 1-.042-1.726C79.602 15.71 95.313 0 114.625 0c18.94 0 34.417 15.112 35.003 33.913a35 35 0 0 1 21.777 32.438 35.03 35.03 0 0 1-4.096 16.434c5.405 6.276 8.402 14.264 8.402 22.783 0 18.578-14.54 33.824-32.838 34.955 14.618 23.436 40.564 38.603 69.583 38.603h69.303a81.827 81.827 0 0 0 31.786-6.396c1.423-.599 5.892-2.373 11.534-5.971 18.995-12.113 33.119-31.554 37.38-55.083a7.998 7.998 0 0 1 7.872-6.574h1.432a8 8 0 0 1 8.001 7.999zm-203.008 75.231c5.293 29.941 31.501 52.759 62.938 52.759h10.618c30.807 0 56.657-21.993 62.618-51.103a97.396 97.396 0 0 1-31.17 5.137h-69.303a97.486 97.486 0 0 1-35.701-6.793zM95.602 35.021c0 .382.011.763.034 1.143 20.497 3.124 36.249 20.868 36.249 42.224v33.979a82.536 82.536 0 0 0 2.992 11.322c1.862.599 3.808.901 5.813.901 10.489 0 19.023-8.533 19.023-19.022 0-6.042-2.778-11.593-7.621-15.229a8 8 0 0 1-1.268-11.607 19.02 19.02 0 0 0 4.582-12.381c0-9.209-6.561-17.08-15.599-18.716a8 8 0 0 1-6.452-9.269c.193-1.09.291-2.215.291-3.346 0-10.488-8.533-19.021-19.021-19.021-10.49.001-19.023 8.533-19.023 19.022zm268.162 115.594a98.938 98.938 0 0 1-18.882 21.338 98.178 98.178 0 0 1-14.822 10.351c-2.658 41.66-37.47 74.787-79.748 74.787h-10.618c-43.224 0-78.543-34.496-79.873-77.404a98.231 98.231 0 0 1-10.487-7.733 98.845 98.845 0 0 1-28.059-39.019 8.529 8.529 0 0 1-.208-.529 96.844 96.844 0 0 1-5.055-17.879 8.02 8.02 0 0 1-.128-1.426V78.387c0-14.696-11.93-26.659-26.616-26.712a6.168 6.168 0 0 1-.43.002c-14.576.18-26.38 12.093-26.38 26.71v14.076a8 8 0 0 1-2.24 5.552L43.56 115.297h10.898a8 8 0 0 1 8 8v80.464c0 70.573 57.415 127.988 127.988 127.988h45.33c70.573 0 127.988-57.415 127.988-127.988v-53.146z"/></svg>