<svg xmlns="http://www.w3.org/2000/svg" viewBox="0 0 200 200"><switch><g><path d="M166.47 22.56c1.256-.136 2.063.175 1.92 1.44-1.25.135-2.06-.175-1.92-1.44zM136.71 23.04c1.052.472-.432 2.403-1.438 2.4.29-.999 1.01-1.551 1.44-2.4zM152.55 24.48c.964-.164 1.502.098 1.439.96-.96.163-1.5-.098-1.44-.96zM128.08 27.84c1.546-.417.054 3.261-.96 3.36-.29-1.723.55-2.323.96-3.36zM130.96 39.84c-.271 1.488.13 3.65-1.439 3.84.09-1.665-.18-3.69 1.44-3.84zM29.675 44.64c-1.132 1.544-1.94-1.688 0 0zM33.035 47.04c-1.356.397-1.244-.676-2.4-.48-.07-.639 1.952-1.449.48-1.92.54-1.265 1.86.645 2.4.96l-.721.56.241.88zM34.235 46.48l-.24-.88c.467-.013.372-.587.48-.96 1.404-.125 1.475 1.085 2.88.96-.042 1.426-2.637 2.768-3.84 1.44l.72-.56zM78.155 50.4c-1.132 1.544-1.94-1.689 0 0zM130 50.4c.727-1.695.91.884.479.96-.29.05-.61-.674-.48-.96zM80.555 52.8c.06-1.06 2.035-.204 2.88-.48-.06 1.06-2.037.203-2.88.48zM116.08 56.64c-1.66-1.241 2.46-1.16 0 0zM116.08 57.12h.96c.224 1.024-.686.915-1.439.96.09-.389.48-.479.48-.96zM106 58.56c-.07 1.049-1.21 1.031-2.399.96.4-.714 1.54-.695 2.4-.96zM164.55 61.44c2.229.266.401 3.608-.479 3.84-1.87-.484-.074-1.652-.479-3.36.59.536.99.417.96-.48zM101.68 63.36c-.209.59-.613.985-1.439.96.2-.591.61-.986 1.44-.96zM99.755 64.8c-.315.644-1.025.894-1.92.96.115-.844.826-1.094 1.92-.96zM166.96 67.2c1.476-.734 1.476 3.134 0 2.4v-2.4zM164.08 78.24c.782-.084.969 3.14-.479 2.4-.2-1.157.87-1.044.48-2.4zM150.63 78.72c1.873-.336.023 1.683 0 2.4-1.4-.408.63-1.208 0-2.4zM162.16 83.52c1.352.485-.133 2.039 0 2.88-1.46-.592.52-1.651 0-2.88zM57.515 86.88c1.652 1.24-2.469 1.16 0 0zM151.12 88.8c1.193.072.14 1.625 0 1.92-1.44-.316.45-1.026 0-1.92zM89.195 97.918h2.4c-.464 1.138-.843 2.358-2.881 1.92v-1.439l.721.24-.24-.721zM113.2 97.918c-.442.838-1.501 1.061-2.88.961.59-.688 1.64-.91 2.88-.961zM144.88 98.399c1.5.775-.983 1.521-.96 2.4-1.5-.78.98-1.52.96-2.401zM80.075 108c1.301.424-.404 2.129-.96.959.118-.52.954-.33.96-.96zM129.51 108c-.209.59-.614.984-1.439.959.21-.59.62-.99 1.44-.96zM77.675 116.64c1.276-.324 2.444-.756 3.36-1.439 1.273-.152-.449 2.688 1.44 1.92-.832 1.254-4.227 2.254-5.28.479l.72-.24-.24-.72zM126.63 112.32c-.407.713-1.208 1.032-2.398.961.41-.71 1.21-1.03 2.4-.96zM62.315 115.2h.96v.961h-.96v-.96zM89.195 123.84c1.348.213.567 1.013 1.439 2.4-.386-.255-.778-.501-1.439-.48v-1.92zM112.24 124.32c-.116.846-.826 1.096-1.92.96.31-.64 1.02-.9 1.92-.96zM93.515 127.2c.147-.65 1.201-.398 1.92-.48-.134 1.11-1.282 1.1-1.92.48zM88.715 131.52c.979.142.941 1.299 1.92 1.44-.558 1.28-2.548.04-1.92-1.44zM101.68 132c-.315.644-1.025.894-1.92.959.111-.84.82-1.09 1.92-.96zM69.995 132.48c1.196.195.029 1.861-.96 1.439.17-.63.845-.76.96-1.44zM69.515 161.76c.815-.176.905.375.96.961-.408-.088-.453.188-.48.479-.563-.08-.405-.88-.48-1.44zM70.955 164.64c1.303.438-.489 1.682-.479 2.4-1.305-.44.488-1.68.479-2.4zM181.83 179.52c2.35-1.27 3.62 1.59 0 0zM134.79 182.88c.859.74 2.404.795 1.92 2.879-1.58-.02-1.83-1.37-1.92-2.88zM120.39 186.72c-1.499.22-1.534-1.025-1.439-2.4.95.33 1.28 1.28 1.44 2.4zM115.59 186.24c.783-.082.971 3.141-.479 2.4-.39-1.36.68-1.24.48-2.4zM159.75 74.4c.048 1.487-.218 2.662-.96 3.36l-.789-.377-.171.857h-.479l.239-.72-.72.24c.261-1.749.341-2.213.96-4.32.39.091.479.482.96.48l.24.72.72-.24z"/><path d="M156.88 78.24h.479c-.169.63-.846.755-.96 1.44-.794.206.043-1.79.479-1.92v.48zM160.71 2.88c.767-1.748 2.916-3.185 5.28-1.92.438 3.158-1.955 3.485-2.399 5.76.619.897 2.134-1.354 1.92-2.88 2.474-.622 3.608 1.8 2.399 3.36.998 1.051 1.551-.421 2.399.48-.626 2.867.902 3.577 1.439 5.28-3.024 1.602-2.651 5.957-.479 8.16l-.856-.171-.583.651c-2.37.375-4.921-4.293-5.76-.96-1.33-1.868-.798-3.452-1.44-5.28l.24-.48-.24-.48c1.05-.324.015-2.519-1.438-1.92l-.48-.24-.479.24V12c-.523-2.448-3.043-.252-3.84-1.92-.985.134-.958 1.282-1.439 1.92-.908-.852-3.171-.35-4.8-.48l.239-.88-.721-.56v-.96l.881.24.561-.72c1.479-.357.922 1.318 2.399.96.114-1.325 1.416-1.465 2.399-1.92l.479.24.479-.24c1.762 2.756 1.36-2.573-.479-.96h-.479v.48c-.954-.006-.609-1.31-1.92-.96l.239-.72-.72-.24c.254-.386.501-.779.479-1.44-1.507-.227-1.269 1.292-2.399 1.44l-.337-.816-.623-.624c-1.68-2.57 3.158-4.653 4.319-1.92 1.233-.046.688-1.874 1.92-1.92 1.976.265 2.522 1.957 2.399 4.32h.96l.479.24.48-.24c.108.611 1.432.629 1.438 0-.774.135-.825-.454-1.438-.48l.239-.72-.72-.24zM174.23 29.04l.881-.24c.062 1.183.072 2.312-.48 2.88-1.661-.898-3.113-2.006-5.76-1.92-.785 1.615-1.249 3.551-1.92 5.28-1.759-.159-2.667.533-3.84.96v.96l-.881-.24-.561.72c-.407.088-.452-.188-.479-.48-.978 1.424-1.576 3.224-3.36 3.84-2.691-1.948-6.288-2.992-7.2-6.72l-.239-.48-.239-.48c.467-.013.372-.587.479-.96h-.96c-.091.389-.48.479-.479.96l-.721-.24-.239.72c-2.792-1.413-4.39-9.356-1.921-11.52 2.271-.19 2.188 1.971 4.801 1.44l.479.24.479-.24c-.291 1.149-.69 2.189-.479 3.84l-.881-.24-.56.72c-.821-.021-1.244.356-1.44.96 1.095-.659 1.806 1.237 1.92 0l.721.24.721-.24c5.521-.18 8.424-1.504 14.399-1.44v-.96l.72.24.24-.72c3.107-.228 3.105 2.653 6.239 2.4l.56.72zm-10.15 2.16c.068-.567.854-1.088 0-1.44-.08.567-.86 1.088 0 1.44zm-6.25 4.8c1.267.146 1.238-1.002 1.439-1.92-.512-.448-.148-1.771-1.439-1.44.66 1.518.11 1.604 0 3.36zm3.37-1.92c.988.421 2.155-1.245.96-1.44-.12.685-.8.809-.96 1.44zM168.79 53.04l.561-.72c1.07 1.649 1.864 3.575 1.92 6.24l-.88-.24-.561.72c-1.539-1.007-2.884-4.275-1.92-6.24l.88.24z"/><path d="M170.71 59.28l.561-.72c.505 1.754 1.397 5.076.479 6.72l-.88-.24-.561.72c-1.773-.466-1.47-3.011-1.92-4.8 1.603.482 1.573-.666 1.439-1.92l.88.24zM168.02 80.331l.856-.171c-1.895 4.669-4.059 9.189-5.28 13.92-1.139 4.409-1.039 6.993-2.88 9.6-.841 1.189-2.498 1.514-3.84 2.88-2.728 2.778-5.086 6.539-8.16 9.601-4.479 1.442-8.325 5.57-13.438 7.199-4.672 1.489-10.14 1.098-12.961 5.28l-.336-.815-.624-.623c1.653-3.146 4.325-5.275 9.12-5.281v-.959l.721.24-.24-.722h2.399c-.276-1.162-1.812-1.067-2.88-1.438l.239-.722-.72-.239c-.097-1.855 2.374-1.146 3.359-1.92v-.959l.721-.24-.24-.721h1.92v-1.439l.721.24.239-.722h.96l-.239 1.2 1.199-.238c.093.389.481.477.48.959l-.721.561.239.88c-.933 2.267-.649 1.43.48 1.44-.48-1.44.239-2 .239-2l-.239-.881c1.771.012 3.305-.215 3.359-1.921-1.193-.052-1.485-.899-2.399 0l-.24-.72-.72-.24c-.408.09-.453-.188-.48-.479l.721-.24-.239-.721c2.183-.189 4.034-1.088 4.8.961.775.135.826-.455 1.439-.48.514-1.793-1.191-1.367-.96-2.88h.479l.479.239.479-.239c.091.39.481.479.479.96.774.137.827-.453 1.439-.479l.561.72.881-.24c-.042.683-.08 1.358.479 1.44-.088-.408.188-.453.48-.48-.96-.96-.721-1.84-.721-1.84l-.721-.561c.206-.914 1.034-1.205.96-2.399l.48.239.479-.239c2.001-.239 2.479-2.002 2.88-3.841.651.148.398 1.203.48 1.921 1.451-1.269 1.803-3.638 3.359-4.8v-.48h-.479c1.26-2.259 3.167-3.873 3.84-6.719v-.8l.48-.64c2.627-2.013 3.317-5.961 4.318-9.6h1.92l.58.65zM111.51 144.88l.721.56c-1.171 2.67-5.14 2.541-8.16 3.36 1.308 6.691 3.843 12.156 6.24 17.76l-.722.561.24.881c-2.703.768-.814 2.162.48 2.879-.55-1.51.753-1.166.96-1.92l.239-.721.239-.72c.719.562 1.963.597 2.4 1.44l-.721.238.239.721c-.772-.205-1.609 1.789-.479 1.92l-.24.479.24.479c.118.521.954.326.96.961l-.24.72.72-.239c-.077.559.106.854.48.959.592-1.457 1.65.521 2.88 0v-.959l.88.239.561-.72h2.399l.479.24.479-.24c.473 1.472 1.28-.553 1.92-.48l.721-.238.721.238c-.279 1.721 1.42 1.461 2.88 1.439l.72.24.24-.721c.386.254.779.502 1.439.48l.479 1.152.479-1.152h1.439v-.961h1.92c.44 3.039 2.056-.131 3.36.961v-.48l.88.24.56-.721c2.407-.166 3.288 1.193 3.841 2.881-6.606.068-11.014 1.464-18.721 0l-.72.24.24.72h-1.44l-.239-.72-.721.238c-.147-.65-1.202-.396-1.92-.479v1.439l-.72.561.239.88c-5.964-2.097-15.236-7.381-21.6-1.92-.86.062-1.013-.589-1.92-.479-1.527.073-2.112 1.088-3.84.961.848-2.674 3.556-3.484 4.8-5.762-5.896-3.609-12.173 1.67-17.76.96l.24-.88-.721-.561c1.938-3.184 8.236-2.004 9.601-5.76-.995-6.045-3.502-10.578-4.8-16.32-5.229-1.973-8.722-5.678-15.36-6.239-1.512-1.688-3.443-2.956-6.72-2.88-2.854-2.588-5.298-5.582-9.12-7.2v-1.438c-4.57-1.164-4.584-7.64-7.68-12.48-2.386-3.729-4.798-3.686-3.36-8.16.557-.402 1.287-.633 2.399-.479-1.33-.909-3.169-1.312-4.319-2.4-.257-1.855.856-2.343.479-4.318h2.4c-.979-1.977-2.48-.201-3.84-.48-5.561-1.146-9.389-5.544-10.561-11.52-3.761-1.203-9.375-3.1-8.16-7.68-.828-1.731-2.977-2.144-3.84-3.84 3.731-8.916-6.452-9.469-9.12-14.88.598-1.482 1.681-2.48 2.4-3.84l.56.72.881-.24c1.408 6.077 10.693 6.969 16.8 9.12 2.241.79 4.485 2.245 7.68 2.88l-.72.24.24.72c-1.709.704-5.211.888-5.761-.96-1.106-.147-.532 1.387-1.439 1.44 1.417 1.942 3.413 3.307 7.2 2.88-1.863 1.604.524 4.539-1.44 5.76.567.873 2.502.377 3.36.96l-.24.88.72.56c.088.408-.187.453-.479.48.407 1.408 1.208-.625 2.399 0 .228 1.507-1.292 1.268-1.439 2.4 2.203.443 2.318-1.201 4.319-.96-.254.386-.5.779-.479 1.44 1.168.271 3.115-2.377 3.36 0l-.24.72.24.72c-1.157-.197-1.044.876-2.4.48-.088.408.188.453.479.48l-.239.48.239.48v.96l-.72.24.72.24c-.118.521-.953.326-.96.96 1.649 1.617 3.473-.665 5.28-.48-1.469 1.057-.579 2.793 1.44 2.879l-.24.881.72.561v.48l-.72.238.24.721c-.852.109-2.404-.484-1.92.961l.239.238.24.24c-.408-.088-.453.188-.479.48-.089.407.187.451.479.479l-.24.72.721-.239v.961l-.721.238.721.24c-.692.748-1.934.947-1.44 2.88 2.095.336 2.134-1.386 3.84-1.438 1.025.979-.135 1.898-.479 2.879h.96l-.24.721.72.24c-.147 1.132-1.667.893-1.439 2.4l-.24.719.72-.24c.135.775-.454.826-.479 1.441h.96l.624.623.815.336c-1.051.998.421 1.551-.479 2.399.918.888 2.038-2.099 3.359-2.399l.24.721.72.24c-.292 1.146.604 3.481-.479 3.84 1.108.65 2.14 1.379 3.84 1.438l-.24.479.24.479c-.006.954-1.31.61-.96 1.92h.96l-.237.72.721-.24c-1.337 2.164 1.286 2.471-.48 3.84.142 1.143 1.299-.533 1.44-.96.854.353.068.873 0 1.44 1.802-.496 3.808-.147 5.279-3.361 1.086.195-.253 2.814 1.921 1.921l-.24.72.72-.238c3.19-.031-.813 2.252-1.92 2.398.23 1.51-.684 1.877-.96 2.88 1.929-.649 1.27-.147.96 1.44 1.357-.396 1.244.677 2.4.479 1.31-2.369 3.847-3.514 3.84-7.199-.328-.951-2.86.299-2.4-1.439h.96v-.96c1.356-.396 1.243.677 2.4.479l-.24.721.72-.24h.96l-.239.88.72.562c.137.836-1.533 2.576.479 2.398-1.255 2.105-2.818 3.9-2.88 7.2.428-.214.858-.423.96-.96l.48.24.479-.24h.48l.479.24.48-.24c-.066 1.693-1.374 2.146-1.44 3.84 1.881.279 1.227-1.975 2.4-2.398l.24.719.72-.239c1.686-1.515 2.472-3.929 3.36-6.24.852.749.843 2.356 2.399 2.399-.467 1.773-1.724 2.757-1.439 5.281 1.011 1.573 4.21 3.01 5.279.479l.721.24.72.24c2.943.862 2.33-1.83 3.84-2.4l.561.72.88-.239c.016 2.664-.505 3.639 0 5.279.979-1.279.873-1.406 2.88-.96-.053 1.194-.899 1.485 0 2.399.703-1.557.919-1.36 2.88-.959v-1.44l.72.239.24-.719c.448.352.727.871.96 1.438.408.089.453-.188.48-.479l.479.24.48-.24h.479l-.24.721.721-.24c1.368 1.337 3.852-.285 4.801-.96l.72.239-.24-.719h.96l-.25.88zM32.075 86.399c-2.294-1.334-1.162 1.575 0 0zm63.84 63.841c-1.743.018-2.613-2.427-3.84-1.439 1.385 9.017 2.037 18.764 11.04 20.16-1-7.64-4.873-12.41-7.205-18.72zm5.285 22.56c.851-.109 2.404.482 1.92-.961-1.1-.13-1.81.12-1.92.96z"/><path d="M116.32 169.68l-.24-.72c3.223-.512 6.873-1.086 7.2 2.398l-.721.24-.721.24c-1.355.396-1.243-.678-2.399-.48l-.479-.238-.479.238c-.077-.562-.875-.404-1.439-.479l-.433-.912-1.008-.049.72-.24zM136.67 172.27l-.912-.433c1.258-.822 1.439-2.721 2.88-3.359l.48.24.479-.24c.007.954 1.31.609.96 1.92-.64.48-1.448.792-1.921 1.439l-1.199.24.239 1.199h-.96l-.05-1.01zM13.115 61.04l-.72-.56v-1.44l.239-.72-.239-.72c3.768 1.672 7.328 3.552 11.52 4.8l-.72.56.24.88c-1.696.766-2.627-.489-3.84.96-2.527-.673-4.236-2.164-6.721-2.88l.241-.88zM10.139 56.976l-.624.624c-2.792-.728-4.785-2.255-4.801-5.76l.881.24.56-.72c1.39 1.97 3.431 3.289 4.8 5.28l-.816.336z"/><path d="M24.635 63.28l-.239-.88c.696.262 2.48-.561 2.399.48l-.84.48.84.48c-.135.775.454.826.48 1.44l-.651.583.171.857c-1.706-.054-1.745-1.775-3.84-1.439-.264-1.064.917-.684.96-1.44l.72-.561zM28.955 64.24l-.24-.88c2.983.537 5.462 1.578 6.24 4.32-.845-.69-1.094-.44-.96.96-1.966.206-3.075-.445-4.32-.96l.24-.88-.72-.56c-.169-.63-.845-.755-.96-1.44l.72-.56zM44.315 75.76l-.24-.88c.389-.091.479-.482.96-.48l1.016.646.426-1.126h1.439l-.24.72.721.24c-.652.982-4.324 3.408-4.8 1.44l.718-.56zM44.635 72.24l-.56.72c-.703-.417-1.521-.718-1.44-1.92l1.2-.24-.239-1.2h.96l-.24.72.72.24c.605.642 1.443.943.48 1.92l-.881-.24zM43.035 66.959l-.88.24c-.203-1.003.329-1.271.479-1.92-.375-1.704-3.464-.696-3.84-2.4l.24-.48-.24-.48c3.338 1.007 7.604.324 10.08-.96v-.96l.88.24.561-.72c1.359.5 2 .5 3.359 0l-.239.72.72-.24v.48l-.72.56.239.88c-1.034 1.205-3.756.724-4.319 2.4l-.721-.24.24.72c.006.954 1.311.61.96 1.92-2.962.422-3.738.076-6.239.96l-.56-.72zM53.846 98.982l-.651-.583c.013-.467.587-.372.96-.479l-.171.856.65.582c-.013.468-.587.373-.96.479l.172-.855zM55.286 98.502l-.651-.584c.724-.877 2.071-1.129 2.881-1.92l.72.24.24-.72c1.149 1.089 2.645 1.834 4.8 1.919l-.24.721.24.721v1.439l-.24.721.72-.24v.959l-.72.562.24.88c-.387.412-1.315.285-1.44.961-.368-1.752-3.134-2.992-2.399-4.32l.239-.721-.72.239v-.479c-.625-1.053-2.595.568-3.84.479l.17-.856zM58.235 93.36l-.72.24c-1.398-2.203-5.744-3.745-5.28-6.24l.72-.24.72.24c1.191.249 1.71 1.17 2.4 1.92l.24.72.72-.24c.013.467.588.373.96.48l.48.24.479-.24c-.395 2.514 2.314-1.075 1.92 1.44l-.24.72.24.72c-1.532-.412-1.484.755-2.399.96l-.24-.72zM71.675 102.8l-.72-.561c1.195-.046 2.127-1.398 3.36-1.439.706-.024 1.416.964 1.439.959 1.544-.217.414-2.107 2.4-.479v.479h.479c-.091.39-.48.479-.479.961l-1.12-.16.16 1.12h-5.76l.241-.88zM96.635 104.56l-.239-.88c1.548-1.332 4.973-.787 6.72-1.921l-.24.721.721.24c.147.65 1.201.398 1.919.48l-.239.879.72.561c-3.613 1.906-6.393 1.5-10.08.48l.715-.56zM49.835 105.12h-.479c1.151-1.367 2.75.23.479.479v-.48zM76.475 128.24l-.721-.562c.685-2.716 2.76-2.409 4.32-3.36l.24.721.24-.721c1.973.686-.949 2.662 0 5.28l-.721-.24-.239.722c-.804-.638-1.608-1.272-3.36-.961l.241-.88zM89.435 140.88l-.721.24c-.046-1.234-1.874-.688-1.92-1.92l.721-.24-.24-.721c.651-2.976 2.441-2.008 5.28-2.4.139 2.699-.843 4.277-2.4 5.281l-.72-.24zM159.75 86.64l-.479-.24h-.479l.24-1.32-1.2-.6c.078-.558-.105-.854-.479-.96v-.48h-.479c.562-.718.598-1.963 1.439-2.4l.479.24.479-.24v.48c.119.604.955.484.96 0 .247 1.315.745 3.992 0 5.76l-.48-.24zM151.59 19.44l-.479.72c-1.256.135-2.065-.175-1.92-1.44 2.11.848 6.676-3.619 9.119-.96l-.239.72.239.72c-.467.013-.372.587-.479.96l-.72.56.239.88c-3.072 1.07-3.051-.681-5.279-1.44l-.48-.72zM121.28 34.16l1.039-.08c-.396 2.163-2.562 2.557-1.92 5.76-1.688 1.753-4.796 3.825-4.319 6.24-2.748-.055-3.801 3.697-6.24 2.4l.24-.88-.721-.56c5.231-2.928 7.532-8.788 11.04-13.44l.88.56zM66.395 45.84l.239.72c-.122.997-2.108.131-2.399.96l-.24-.72-.24.72c-.407.088-.453-.187-.479-.48-1.854-.094-3.537-.017-4.8.48l.239-.72-.72-.24c-.088-.408.188-.453.48-.48-2.159-.434-4.878-.161-8.16-.48.162-2.715 1.41-2.664-.48-4.32l.816-.336.624-.624c5.071 1.648 9.715 3.725 15.359 4.8l-.239.72zM53.435 53.52l-.24-.72c.013-.467.587-.373.96-.48l-.08 1.04 1.04-.08c.328-.371 2.86-1.25 2.4.479-1.269.012-3.008-.448-2.4 1.44-.717-.723-2.736-.144-2.4-1.92l.72.241zM49.499 40.176l-.624.624c-1.157-.197-1.043.876-2.399.48.263-1.915.263-1.445 0-3.36l.479.24.48-.24c.903.696 2.494.706 2.88 1.92l-.816.336zM149.75 7.92l-.56.72c-.631-.169-.756-.845-1.44-.96.612-.988.767-2.434 2.4-2.4l.582.651.378.789c-.254.386-.501.779-.48 1.44l-.88-.24zM18.155 20.64c-1.709-.531-1.582-2.898-3.84-2.88l.24-.88-.721-.56c.722-2.639 2.189-4.531 5.28-4.8l-.239.48.24.48c-2.68.644-2.348 5.877-.48 7.2l-.399.4-.081.56zM4.955 27.76l.72.56c-1.023 1.796.058 2.728.96 3.84l-.72.24.24.72c-2.301-.579-4.992-.768-5.76-2.88-.493-1.613 1.493-.747 2.399-.96-.091-.389-.48-.479-.479-.96l.72-.56-.24-.88h2.4l-.24.88zM9.755 41.2l-.239-.88c.774.135.825-.454 1.439-.48v.48h.48v.48c.696.743 1.872 1.008 3.359.96 1.151-.929 1.467-2.694 3.36-2.88.119.521.955.326.96.96h-.48v.48h-.96c-.264 1.064.917.683.96 1.44h-.479v.48h-.96c.916.684 2.084 1.116 3.36 1.44-1.2.851-.52.612-.48 2.4 1.022-.208.934-1.801 2.88-.48l-.24.72.24.72c-1.698 1.757-.172 2.969.48 4.8l-.857-.171-.583.651c-2.94.701-1.764-2.717-3.84-2.88-1.396.417-.54.718-.48 1.92-4.794-1.286-8.449-3.71-12.96-5.28.123-2.758 3.267-2.494 6.24-2.4-.153-1.127-1.485-1.074-1.92-1.92l.72-.56zM23.915 54.24l.48-.96c2.199 1.321 3.96 3.08 5.76 4.8l-.72.24-.24.72c-2.175-.064-3.305-1.174-5.28-1.44 2.265-1.226-1.037-1.542-2.399-1.92 1.61-.986.337-.992 0-2.4.389.091.479.48.96.479h.479l.96.481zM7.355 39.84l-.24.96c-.558.078-.854-.106-.96-.48l.84-.48.12-.96h.48l-.24.96zM5.023 38.982l.171.857c-2.52-.201-2.762-2.678-4.32-3.84 1.284-.756 2.384.212 3.84-.96l-.239.72.72.241c-.088.408.188.453.479.48l-.239.72.72.24c-.091.389-.481.479-.48.96l-.652.582zM27.275 25.92c.56.72 1.386 1.173 1.439 2.4-.947-.332-1.278-1.28-1.439-2.4zM131.92 26.4c1.44-3.203-1.25 3.832 0 0zM141.04 70.08c1.591.469-.536.949-.479 1.44-1.4-.269.73-.749.48-1.44zM139.59 72c-.632.968-1.575 1.625-2.88 1.92.64-.968 1.58-1.625 2.88-1.92zM154.96 81.12c1.104.379-.826 1.679-.96 2.4-1.5-.775.98-1.52.96-2.4zM120.39 84c2.051 1.325-1.994.51-1.92 1.44-1.65-.929 1.84-.669 1.92-1.44zM94.475 98.879c.688-1.418.367 1.113-.96.479-.876-.371.287-.516.96-.479zM70.955 100.8c-.108.691-1.433.166-1.439.959-1.206-.2.46-1.37 1.439-.96zM119.92 105.12c.672.17.041.846-.479.961-.078.558.105.854.479.959-.194 1.195-1.86.028-1.439-.959.38-.41 1.31-.29 1.44-.96zM74.795 110.88c.295-.428.58-.858 0-.961.565-1.449 2.38-1.648 3.84-.959-.174.982-3.538 1.209-2.399 1.92-.211.71-.615-.19-1.441 0zM69.995 130.56c1.831.64-2.618 3.93 0 0zM54.635 177.12c1.812 2.19 3.664 2.862 3.36 6.239-2.514 2.179-6.58.706-8.64.479 1.103-3.313-3.562-3.371-4.8-5.76l.72-.24-.24-.721c.76-2.729 2.964 1.514 3.84 0l.721-.238.239-.721c1.224.856 2.8 1.359 3.84 2.399v-.96l.721.24.239-.72zM37.115 175.92l-.24.721c-2.088-.604-5.233-2.264-4.319-4.32 2.828-.27 2.545 2.575 4.8 2.881l-.241.72zM130.96 183.84v-.959c1.479.336.922.336 2.399 0 .169 2.522 2.743 4.754.96 7.68-1.649.21-2.689-.189-3.84-.48v-1.92c1.729-.349.312-1.496.96-3.359l.239-.719-.72-.24zM65.675 174.24v.48c.169.673.846.041.96-.48 1.041-.08.219 1.703.48 2.4.98-.459 1.899-.98 2.88-1.439l.24.721.24-.721c.774.135.826-.453 1.439-.48v.48h.48c.681-.041 1.358-.08 1.439.479l-.239.721.239.721c-1.875 1.906 1.425 2.711 2.4 3.359-.821-.021-1.243.355-1.44.96l-.88-.239-.56.721c-.427-.213-.859-.422-.96-.961-1.3.621-2.966.875-3.36 2.399-2.372-1.385-2.225.076-5.28 0l.24-.88-.72-.561c-.088-.408.187-.453.479-.479-1.44-1.759-.137-6.263-2.88-6.72-.712.209.189.613 0 1.439-1.388-.213-2.188-1.013-2.399-2.4l.72-.239-.24-.72c1.024.224.914-.687.96-1.44l.72-.239-.239-.721h.96l.479.96.48-.96c.386.254.779.501 1.439.48l-.239.879.72.561v1.439h.96l-.24.721.722-.24z"/><path d="M74.555 176.56l-.24-.88c2.369.03 3.991.81 5.28 1.92 1.24-1.394 6.348-2.646 6.72.479.408.088.453-.188.479-.479l.721.239.239-.721c.926.195.379 1.861 1.92 1.44l.721.239.72.24c-.413.387-.285 1.314-.96 1.439.14 1.46 2.539.662 2.88 1.92l-.72.24.24.72c-1.809-.207-2.187 1.015-2.881 1.92l-.72.24.24.72c-3.144-.955-4.303-.945-7.68-1.439.347-2.106-1.602-1.92-3.36-1.92l.24-.879-.721-.562v-.96c-1.202-1.197-2.854-1.945-3.84-3.359l.722-.56zM154.47 165.6c-1.293-1.285.61-1.825.96-2.88 1.532-.678 1.213 2.871.479 2.88l-.72-.24-.72.24zM154.47 169.68l.479.239c1.259 1.137-.201 3.611-.479 4.801h.96l.479.24.479-.24c.011 1.131-.826 1.412-.479 2.88l-.72.239.239.721c-.512.93-2.211.669-2.88 1.439l-.479-.24-.48.24c.101-1.379-.12-2.438-.96-2.881l.24-.879-.72-.561v-5.28c.63.17.755.845 1.438.96v-.96l.881.24.561-.72c.558.078.854-.106.96-.48l.48.24zM163.97 167.83l-.85.17c.562-1.998 1.442-3.678 3.84-3.842.013.467.587.373.96.48.605 3.005-2.485 2.312-3.359 3.84l-.59-.65zM159.51 182.32l-.24-.88c.964.163 1.502-.099 1.439-.96l.881.24.561-.721c1.667 1.317 3.876.896 6.239.479l-.239.72.72.24v2.88l.24.479.239.479h-.479c-.062.861.587 1.013.479 1.921-2.086-.753-3.616-.879-5.76-.961-.504-.02-1.642-.904-1.439-.96-1.602.435-1.104 2.847-3.36 2.399l-.624-.623-.815-.336c.553-1.174 2.714-2.326 1.439-3.84l.71-.56zM175.35 175.44l-.721-.239v-1.439c2.017 1.213 3.005-.182 4.32-.961-.055 1.781 2.229 2.812.96 4.32l-.479-.24-.479.24c-.389.092-.479.481-.96.479l-.561-.72-.88.238c-.209-.59-.614-.984-1.439-.959l.24-.72zM180.63 179.28l-.239-.72c1.455.625 1.304 2.855 1.92 4.32h-1.92c.96 1.451-.093 3.311-2.88 3.359l.239-.721-.72-.24c-.896-2.184 3.496-2.781 2.88-6.238l.72.24zM175.35 183.12l-1.199.239 1.2-.24-.239-1.199h.479l-.24 1.2z"/><path d="M173.92 182.16l.24 1.2c-.809.504-2.663 2.414-3.36 1.44l.24-.721-.721-.24c.314-1.285 1.375-1.824 1.92-2.879l.721-.24-.24-.721c.387-.254.779-.5 1.44-.479l.582.651.856-.172c.062.86-.588 1.012-.479 1.92l-1.2.24zM156.16 182.32l.72.561c.146 1.106-1.387.533-1.439 1.439v.48l-.721.24.721.238c-1.969 1.001-4.151 6.607-6.721 3.84l.721-.238-.239-.721c.836.143 1.683-1.861 0-1.439v.479l-.721.24.239.721c-1.004.275-1.369 1.189-2.88.959.254-.386.501-.779.479-1.438-.406-1.132-1.183 1.321-2.88.479-.062-.861.588-1.013.479-1.92h-.479l.239-.721-.72-.24c.051-1.229.271-2.287.96-2.88l.561.72.88-.238c.202 1.068 2.547.375 2.881 0-.418-1.396-.719-.541-1.921-.48.432-.85 1.159-1.4 1.439-2.398 1.526.072 2.111 1.088 3.841.959l.239.721.24-.721c.796.805 2.817.383 4.319.479l-.24.88zM104.56 178.08c2.125-.525 2.387.812 3.839.959.396 1.356-.677 1.244-.479 2.399.771 1.544 1.794-1.688 2.88 0-.246 1.834-1.578 2.582-1.92 4.319-6.98 3.49-3.08-5.24-4.32-7.68z"/><g stroke="#000" stroke-linecap="round" fill="none"><path stroke-width=".679" d="M139.12 18.24c.14-.34.402-.558.72-.72"/><path stroke-width=".7" d="M129.04 38.88c.236-1.743.759-3.533 1.68-5.04"/><path stroke-width=".895" d="M124.71 48.72c.628-1.185.271-2.749 1.2-3.84"/><path stroke-width="1.492" d="M32.795 46.16c.48.103.96.195 1.44.32"/><path stroke-width="1.073" d="M160.71 51.6c.427-.938-.131-1.938-.239-2.88"/><path stroke-width=".588" d="M131.67 51.6v-.96"/><path stroke-width=".602" d="M73.115 51.6h1.44"/><path stroke-width=".641" d="M150.88 57.84c1.018-1.078 2.646-1.604 3.359-2.88"/><path stroke-width=".712" d="M161.43 58.32c.071-.408.297-.663.479-.96"/><path stroke-width=".953" d="M72.635 58.8c1.158-.953 2.574-1.5 3.841-2.4"/><path stroke-width=".594" d="M84.635 58.32c.964-.137 1.804-.711 2.881-.48"/><path stroke-width=".637" d="M136.47 62.16c.334-1.71 1.854-2.776 2.399-4.32"/><path stroke-width=".927" d="M158.08 61.68c.628-.797.53-1.883 1.199-2.64"/><path stroke-width=".885" d="M148.47 60.959c.325-.157.667-.484.96-.72"/><path stroke-width=".774" d="M160 64.08c.293-.327.498-.444.698-.551 1.144 1.609.742 4.138-.698 5.351"/><path stroke-width=".96" d="M57.275 73.2c.584-.227 1.133.021 1.92 0"/><path stroke-width=".984" d="M57.275 73.2l-.175.478c.168 2.905 3.092 4.819 5.935 4.322"/><path stroke-width=".777" d="M57.275 73.2c-3.152-1.388-6.549-5.194-3.601-8.4"/><path stroke-width="1.364" d="M68.315 71.28c1.411-.385 2.431-1.237 3.359-2.4"/><path stroke-width=".916" d="M164.79 73.2c.119-1.114.345-2.215.24-3.36"/><path stroke-width=".602" d="M135.51 72.72c.508.028.74-.219.96-.479"/><path stroke-width=".781" d="M103.84 84.72c-1.153-2.33-1.19-5.02-.239-7.439"/><path stroke-width=".976" d="M98.075 90.959c.182-1.294.481-2.562.72-3.84"/><path stroke-width=".919" d="M98.075 90.959c.424.871.552 1.88 1.28 2.56"/><path stroke-width="1.029" d="M98.075 90.959c-.792-.527-1.644-.392-2.326-.548-1.255-1.28-1.482-3.007-1.735-4.667.407-.651.655-1.406 1.182-1.984"/><path stroke-width=".613" d="M121.59 96.719c1.118-.982 2.573-2 3.841-2.879"/><path stroke-width=".594" d="M142.24 96.719c.752-.446 1.572-1.119 1.92-1.919"/><path stroke-width=".647" d="M88.475 95.28c-.32 1.232.197 2.401.96 3.359"/><path stroke-width=".607" d="M115.35 97.2c.263-.058.375-.266.479-.48"/><path stroke-width=".898" d="M60.155 108.24c.344-.148.95-.517 1.44-.722"/><path stroke-width="1.028" d="M77.915 117.36c-.51-.155-.801-.222-1.062-.347-.605-.947-.611-2.006-.729-3.113-1.791-.911-4.301-.789-5.179-2.984.051-.625.266-1.272.73-1.715"/><path stroke-width=".679" d="M71.675 117.36c-.327 1.259.562 2.261 1.681 2.642"/><path stroke-width=".639" d="M92.795 119.28l.147-.332c1.298-.363 2.309-1.191 3.453-1.828"/><path stroke-width=".679" d="M103.6 123.36c.237.562.6 1.001.72 1.681"/><path stroke-width="1.128" d="M111.75 127.2c-3.204.918-7.466 7.565-3.12 9.6"/><path stroke-width=".998" d="M100.48 135.12c-1.595-2.158-4.419-1.238-6.332-3.186-.102-.282-.114-.617-.148-.895"/><path stroke-width=".749" d="M111.51 136.08c.407.09.659.188.954.223.95-.379 1.232-1.477 1.926-2.143"/><path stroke-width=".623" d="M67.835 172.08c-.016-1.295 1.216-2.123 1.44-3.361"/><path stroke-width="1.105" d="M55.835 174.96c.732.856 2.15 1.166 2.4 2.398"/><path stroke-width=".888" d="M137.43 181.68c.833 1.315.563 2.931 1.199 4.319"/><path stroke-width=".699" d="M110.55 186.96c.843-1.57 1.239-3.6 2.399-4.801"/><path stroke-width=".679" d="M154.23 84.72c1.455-2.188 3.927-4.675 3.771-7.337M157.59 77.52l-.72.72"/><path stroke-width="1.1" d="M159.04 74.64c.618-1.136 1.783-1.961 2.88-2.76"/><path stroke-width=".96" d="M161.92 71.88c.167-.932.198-1.942.72-2.76"/><path stroke-width="1.628" d="M161.92 71.88c.794.253.759 1.049.72 1.8"/><path stroke-width="1.518" d="M170.39 58.32c.106.32.214.64.319.96"/><path stroke-width="1.635" d="M168.39 78.6c-.071.272-.217 1.046-.377 1.731"/><path stroke-width="1.024" d="M113.43 169.2c.905.451 1.979 0 2.881.479"/><path stroke-width=".938" d="M122.55 171.6c.965.506 2.146.562 2.88 1.44"/><path stroke-width="1.025" d="M125.43 173.04c1.272-.276 2.875-.488 4.08 0"/><path stroke-width=".72" d="M129.51 173.04c.822-.064 1.647.008 2.399.359"/><path stroke-width="1.063" d="M131.92 173.4c.942-.166 2.091-.32 2.88.359"/><path stroke-width="1.424" d="M134.79 173.76c.688-.441 1.245-1 1.872-1.487"/><path stroke-width=".774" d="M139.59 167.52c-.22.458-.389.851-.479 1.2"/><path stroke-width="1.095" d="M137.43 172.08c.769.91 2.144 1.15 2.561 2.398"/><path stroke-width="1.537" d="M125.92 180c.167.092.593.403.96.719"/><path stroke-width="1.358" d="M79.355 172.8c.308-.159.585-.258.96-.4"/><path stroke-width="1.48" d="M5.595 52.08c-.479-.977-.567-1.569-.881-2.4"/><path stroke-width="1.492" d="M10.139 56.976c.867.355 1.573 1.084 2.495 1.344M23.195 62.959c.479.103.96.195 1.439.32"/><path stroke-width="1.217" d="M25.955 63.36c1.123-.208 2.076.336 3 .88"/><path stroke-width="1.463" d="M13.115 61.04c-.898.428-2.003.701-2.56 1.6"/><path stroke-width=".816" d="M35.195 74.64c.793.198 1.566.517 2.4.48"/><path stroke-width="2.457" d="M42.121 83.554c-.154-.492-.179-1.062-.206-1.474"/><path stroke-width="2.147" d="M41.915 82.08l-.18-.36"/><path stroke-width="1.405" d="M41.735 81.72c-1.003-.349-1.443-1.607-.9-2.52"/><path stroke-width="1.083" d="M40.835 79.2c-.026-.079-.055-.158-.082-.237.15-.912.84-1.602 1.022-2.5.718-.539 1.633-.872 2.54-.703"/><path stroke-width="1.399" d="M46.05 75.046c-.284-1.027-.974-1.855-1.416-2.806"/><path stroke-width="1.505" d="M43.835 70.8c-1.333-.762-1.002-2.576-.8-3.84"/><path stroke-width=".986" d="M34.235 54c.85.244 1.146 1.079 1.92 1.44"/><path stroke-width=".68" d="M36.155 55.44c2.239-.992 4.152-2.919 6.72-2.88"/><path stroke-width=".733" d="M36.155 55.44c-.086 2.537-.14 6.12 2.88 6.96"/><path stroke-width="1.686" d="M49.755 60.24c-.121-1.981-1.522-3.834-.399-5.76"/><path stroke-width=".607" d="M54.875 59.76c-.479-.028-.96.219-1.439.48"/><path stroke-width="1.408" d="M54.875 60.959c-.479.178-.96.11-1.439.08"/><path stroke-width=".62" d="M49.595 64.56c-.32-.057-.641-.265-.961-.48"/><path stroke-width="1.133" d="M44.315 70.32c.879-.429 1.806-.672 2.74-.906.071-.083.101-.327.127-.579l.013-.435"/><path stroke-width="1.018" d="M47.195 68.4c-.678-.216-1.239-.208-1.68-.24"/><path stroke-width=".96" d="M47.195 68.4c.32-.263.64-.375.96-.48"/><path stroke-width=".865" d="M47.675 74.64c.275-.275.601-.599.96-.96"/><path stroke-width="1.731" d="M43.955 79.08c.617-.225.844-.276 1.2-.36"/><path stroke-width=".919" d="M45.155 78.72c.238-.576.384-.847.6-1.2"/><path stroke-width=".999" d="M45.155 78.72h1.32"/><path stroke-width=".641" d="M41.915 82.08c.936-.976 2.37-.443 3.36-1.2"/><path stroke-width="2.457" d="M42.121 83.554c.336.111.803.159 1.234.206"/><path stroke-width=".923" d="M43.355 83.76c.612-.989 1.875-.936 2.64-1.68"/><path stroke-width="1.239" d="M43.355 83.76c1.021.556 2.335 1.017 3.359.24"/><path stroke-width="1.229" d="M42.121 83.554c-1.682.87-3.025 2.441-5.006 2.766"/><path stroke-width="1.176" d="M45.275 90.959c1.056-.171 2.044-.651 3.12-.72"/><path stroke-width="1.018" d="M43.355 93.12h.96"/><path stroke-width=".657" d="M42.875 94.8c.812-.045 1.792.23 2.4-.48"/><path stroke-width="1.592" d="M52.475 99.599c.289-.153.796-.392 1.371-.617"/><path stroke-width="1.024" d="M58.235 96.241c-.322-.906-.362-1.979 0-2.881"/><path stroke-width=".831" d="M52.235 80.64c-.252.83-.712 1.78-.24 2.64"/><path stroke-width=".707" d="M51.995 83.28c.48-.336.96-.367 1.44-.48"/><path stroke-width="1.487" d="M51.995 83.28c-.005.494.036.85.08 1.2"/><path stroke-width=".831" d="M52.075 84.479c.813.046 1.734-.108 2.32-.72"/><path stroke-width="1.212" d="M52.075 84.479c.131.924.075 1.978.88 2.64"/><path stroke-width=".707" d="M52.955 87.12c.48-.336.96-.366 1.44-.48"/><path stroke-width=".885" d="M56.315 90c.406-.699.762-.799 1.439-.96"/><path stroke-width=".72" d="M59.195 90c-.422.072-.554.297-.72.48"/><path stroke-width="1.23" d="M60.635 92.399c1.165-.016 2.55.026 3.36-.96"/><path stroke-width="1.235" d="M63.035 98.161c5.906-.396 9.069-6.621 14.88-7.201"/><path stroke-width=".588" d="M63.035 101.04c.48-.336.96-.365 1.44-.479"/><path stroke-width=".618" d="M78.155 101.76c1.271-.633 2.614-1.256 4.08-1.199"/><path stroke-width="1.436" d="M77.035 102.56c6.062 2.773 13.528-1.835 19.6 2"/><path stroke-width=".759" d="M102.88 102.48c.32-.264.641-.375.96-.479"/><path stroke-width="1.684" d="M105.28 104.08c1.994-.92 4.521-.531 6.048-2.369"/><path stroke-width="1.628" d="M111.32 101.71c-.09-.162-.188-.416-.288-.672"/><path stroke-width=".707" d="M111.04 101.04c-.479-.336-.96-.365-1.439-.479"/><path stroke-width=".919" d="M111.04 101.04c.154-.408.293-.662.479-.959"/><path stroke-width="1.254" d="M111.32 101.71c2.671-.217 4.514-2.244 6.912-3.072"/><path stroke-width="1.564" d="M71.675 102.8c-2.994 1.309-5.708-.021-8.64-.479"/><path stroke-width=".62" d="M59.675 99.12c-1.598.463-3.128 1.146-4.8 1.439"/><path stroke-width="1.492" d="M55.286 98.502c-.436.088-.876.166-1.303.273"/><path stroke-width=".588" d="M47.675 104.4c.48-.336.96-.365 1.44-.479M47.675 105.36c.642.021 1.629.032 2.16-.239"/><path stroke-width=".906" d="M59.675 105.84c-3.356.418-6.468 2.283-8.64 4.801"/><path stroke-width=".72" d="M50.075 114c.494-.322.851-.478 1.2-.721"/><path stroke-width="1.731" d="M51.899 115.82c.226-.255.459-.502.672-.77"/><path stroke-width="1.232" d="M55.835 116.88c.849-1.059 1.749-2.112 2.761-3"/><path stroke-width="1.3" d="M58.595 113.88c.965-.92 1.602-2.365 2.76-3"/><path stroke-width=".854" d="M58.595 113.88c.61.506 1.328.875 1.992 1.302.233-.046.627-.175 1.008-.222"/><path stroke-width=".876" d="M59.675 122.88c.93-.1 1.136-1.252 2.16-1.2"/><path stroke-width="1.053" d="M61.835 121.68c1.208-1.277 1.004-3.856 3.28-4.16"/><path stroke-width=".778" d="M65.115 117.52c.301-.705.361-1.468.56-2.2"/><path stroke-width=".659" d="M65.115 117.52c.247.849.712 1.542 1.388 2.133.709.015 1.359.283 2.053.349"/><path stroke-width=".671" d="M61.835 121.68c.25 1.821-1.022 3.104-2.16 4.319"/><path stroke-width=".641" d="M68.315 129.36c.613-.983 1.463-1.75 2.399-2.399"/><path stroke-width="1.03" d="M70.715 126.96c-.168-.48-.183-.961-.239-1.44"/><path stroke-width="1.46" d="M70.715 126.96c.544.211.825.475 1.2.72"/><path stroke-width=".573" d="M74.075 127.92c1.57-1.189 2.275-3.285 3.84-4.319"/><path stroke-width=".696" d="M80.315 125.04c-.027-1.477 1.289-2.192 1.92-3.359"/><path stroke-width=".78" d="M82.235 121.68c-.264-.759-.226-1.242-.162-1.653.428-.316.908-.645 1.122-1.227"/><path stroke-width=".98" d="M82.235 121.68c.925.415 1.946.222 2.88 0"/><path stroke-width="1.007" d="M79.835 129.36c.156.511.223.802.348 1.062.938.338 1.764.894 2.771 1.099"/><path stroke-width="1.518" d="M76.475 128.24l-.96.318"/><path stroke-width=".844" d="M75.275 138c-.027-1.014.634-1.887.72-2.881"/><path stroke-width=".72" d="M76.715 138c.091-.711.673-1.211.721-1.92"/><path stroke-width=".803" d="M78.395 139.92c.22-.498.388-.887.479-1.439"/><path stroke-width="1.48" d="M89.435 141.84v-.959"/><path stroke-width="1.018" d="M86.315 138.72c.312-.014.776.109 1.2.24"/><path stroke-width="1.288" d="M94.555 140.4c.147-.678.318-1.238.399-1.68"/><path stroke-width=".997" d="M97.835 142.08c.769 1.728 3.449.738 4.08 2.639"/><path stroke-width=".801" d="M104.08 145.2c.05-1.152.498-2.238.72-3.359"/><path stroke-width=".784" d="M104.79 145.68l.96-.96"/><path stroke-width=".679" d="M105.75 144.72c-.033-.676.223-1.059.48-1.44"/><path stroke-width=".751" d="M105.75 144.72c1.786.332 2.253-1.815 3.84-1.92"/><path stroke-width=".597" d="M111.04 144.72c-.998-.754.146-1.528 0-2.4"/><path stroke-width="1.48" d="M111.51 144.88c5.113-4.43 5.837-12.266 10.464-17.057"/><path stroke-width=".588" d="M130.24 120.72c.319.058.64.265.96.48"/><path stroke-width=".85" d="M127.35 119.28c.05-.111.099-.223.146-.332 1.021-.513 2.173-.218 3.213-.629"/><path stroke-width="1.037" d="M134.08 114.96c-.478-.269-.551-.479-.721-.721"/><path stroke-width="1.03" d="M136 108.72c.168-.479.184-.961.24-1.439"/><path stroke-width="1.034" d="M136 108.72c.647.23 1.299.129 1.846.195.54.604.523 1.601 1.515 1.725"/><path stroke-width=".756" d="M146.43 105.6c-.688-1.692 1.387-2.822 2.521-3.601"/><path stroke-width=".776" d="M146.43 105.6c1.498-.072 2.093-1.851 3.601-1.92"/><path stroke-width=".895" d="M150.04 103.68c.765-1.619 2.026-2.933 2.76-4.56"/><path stroke-width="1.018" d="M150.04 103.68c.084.312.091.776.12 1.2"/><path stroke-width=".679" d="M155.67 98.161a9.67 9.67 0 0 0 1.681-.722"/><path stroke-width=".808" d="M160.71 89.919c-1.704.908-2.683 2.801-3.6 4.4"/><path stroke-width="1.023" d="M160.71 89.919c.002-.588.032-1.594-.112-1.938-.537.01-.812-.556-.848-1.341"/><path stroke-width="1.686" d="M157.12 87.12c.503-.671 1.009-1.376 1.92-2.04"/><path stroke-width=".573" d="M155.2 85.68c.72-.892 1.558-1.684 2.159-2.64"/><path stroke-width=".741" d="M159.75 78.24c-.134.966-1.083 1.6-.96 2.64"/><path stroke-width=".841" d="M168.39 78.6c-.919-.297-1.188-.393-1.396-.628.257-.772.118-1.611.436-2.372"/><path stroke-width="1.802" d="M168.39 78.6c1.651-4.28 2.62-8.958 2.479-13.56"/><path stroke-width="1.786" d="M168.79 53.04c-1.462-5.711-6.77-10.083-6.561-16.32"/><path stroke-width=".99" d="M150.39 33.6c-.805.123-1.429-.319-1.92-.72"/><path stroke-width=".679" d="M151.59 23.76c.074-.35.317-.755.618-1.064.472-1.188-.729-2.078-.618-3.256"/><path stroke-width="1.176" d="M159.63 20.28c.566.208.954.354 1.32.6"/><path stroke-width=".901" d="M161.92 25.68c1.786-.169 4.054-.517 5.279.96"/><path stroke-width="1.288" d="M174.23 29.04c.584-3.245-2.202-5.637-3.816-8.092"/><path stroke-width=".752" d="M74.195 47.64c-.288.853-1.244.854-1.561 1.56"/><path stroke-width=".554" d="M63.995 48.24V46.8"/><path stroke-width="1.037" d="M55.835 48.72c.32.131.641.188.96.24"/><path stroke-width=".733" d="M53.195 50.76c1.391-.025 2.959.009 4.32-.36"/><path stroke-width="1.126" d="M55.115 52.32c-.262.005-.644.608-1.04 1.04"/><path stroke-width=".707" d="M53.435 53.52c-.646-.427-.943-.75-1.333-1.07-.071-.276-.049-.534-.022-.792.384-.526.777-.7 1.115-.898"/><path stroke-width="1.126" d="M53.195 50.76c-.18-1.446 1.479-2.014 2.64-2.04"/><path stroke-width=".938" d="M55.835 48.72c.382-1.204 1.872-1.415 2.88-1.92"/><path stroke-width="1.663" d="M50.651 40.944c-.4-.257-.843-.515-1.152-.768"/><path stroke-width=".817" d="M42.875 34.32c1.229 1.429 2.968 2.296 4.08 3.84"/><path stroke-width="1.395" d="M66.395 45.84c2.538.566 5.724-.043 7.8 1.8"/><path stroke-width="1.472" d="M74.195 47.64c11.76.726 24.503 4.527 35.88-.04"/><path stroke-width="1.368" d="M121.28 34.16c6.701-10.758 15.931-21.326 29.119-23.52"/><path stroke-width="1.466" d="M150.55 9.36c-.274-.48-.569-.96-.801-1.44"/><path stroke-width="1.555" d="M150.74 5.931c.087-.627.265-1.115.521-1.467"/><path stroke-width="1.03" d="M161.43 3.12l-.474.271c-.168.291-.191.754-.247 1.17"/><path stroke-width=".72" d="M156.39 7.92c-.101-.324-.251-.821-.479-1.2"/><path stroke-width=".885" d="M154.23 5.52c-1.129.267-2.312.561-3.497.411"/><path stroke-width=".752" d="M160.71 12.24c-.07.328-.057.643-.038.958.729.58 1.228 1.503 2.198 1.683"/><path stroke-width="1.42" d="M157.12 20.72c.717.297 1.947-.142 2.52-.439"/><path stroke-width="1.292" d="M159.63 20.28c-.104-.62-.727-1.472-1.56-1.8"/><path stroke-width="1.456" d="M151.35 29.04c.019-.64-.391-1.28-.641-1.92"/><path stroke-width="1.156" d="M26.624 65.863c1.093.348 2.065 1.227 3.292.937"/><path stroke-width=".947" d="M41.735 81.72c.19-1.344 1.759-1.437 2.22-2.64"/><path stroke-width=".744" d="M43.955 79.08a6.624 6.624 0 0 0-3.12.12"/><path stroke-width="1.336" d="M51.035 101.04c.339.029.614-.056.886-.146.204-.381.353-.847.556-1.294"/><path stroke-width="1.211" d="M52.475 99.599c-1.085-.222-2.25-.537-3.36-.319"/><path stroke-width=".716" d="M47.675 102.48c.943-.161 1.766-.621 2.808-.549.203-.18.351-.535.553-.891"/><path stroke-width=".712" d="M51.035 101.04c-.742-.435-1.375-.4-1.92-.479"/><path stroke-width="1.466" d="M148.31 108.72c.256-.5.716-.812 1.12-1.12"/><path stroke-width=".744" d="M146.43 105.6c-.238.854-.491 1.546-1.08 2.159"/><path stroke-width=".876" d="M136 108.72c-.986.617-1.148 1.748-.893 2.803.459.588.975 1.1 1.372 1.518"/><path stroke-width="1.138" d="M139.83 111.6c-.518.896-1.762 1.036-2.399 1.92"/><path stroke-width="1.518" d="M138.39 114.8c.319.105.641.213.96.32"/><path stroke-width="1.308" d="M111.51 168.24a9.971 9.971 0 0 0-1.921-1.119"/><path stroke-width=".816" d="M112.96 172.32c.818.104 1.752.135 2.399.721"/><path stroke-width="1.649" d="M115.35 173.04c.704-.092.988-.238 1.2-.301"/><path stroke-width="1.159" d="M116.55 172.74c.019-.923-.045-1.852.048-2.771"/><path stroke-width="1.989" d="M116.55 172.74c.571.034 1.438.124 1.761.221"/><path stroke-width="1.095" d="M118.32 172.96c.498-.568.556-1.211.64-1.84"/><path stroke-width=".831" d="M122.31 174c.049-.803.326-1.574.24-2.4"/><path stroke-width="1.859" d="M118.32 172.96c.062.172.367.951.56 1.52"/><path stroke-width=".803" d="M115.35 173.04c-.143.696-.687.832-1.439 1.439"/><path stroke-width="1.018" d="M129.51 173.04a5.372 5.372 0 0 0 .239 1.92"/><path stroke-width="1.007" d="M131.92 173.4v2.473"/><path stroke-width="1.849" d="M120.16 178.64c.668.311 1.387.396 2.111.447"/><path stroke-width="1.037" d="M122.27 179.09c.49-.688.902-1.436 1.248-2.207"/><path stroke-width="1.158" d="M122.27 179.09c.598 1.475 2.44.731 3.647.912"/><path stroke-width="1.146" d="M125.92 180c.057-1.098-.264-2.267-.96-3.121"/><path stroke-width=".923" d="M9.515 27.36c6.643 2.986 11.925 8.043 18 11.76"/><path stroke-width=".895" d="M6.875 32.64c1.904.394 4.09.105 5.76 1.2"/><path stroke-width=".764" d="M12.635 33.84c.337-.044.611-.117.885-.19.35.08.941.139 1.523.332.183.415-.037.818-.139 1.149-2.438 1.563-5.229 2.576-7.357 4.757"/><path stroke-width="1.518" d="M7.547 39.888c.614.739 1.424 1.059 2.208 1.312"/><path stroke-width=".657" d="M17.435 37.92c-2.351.316-4.317 1.451-6.48 2.4"/><path stroke-width=".561" d="M23.195 41.52l-.145-.336c-1.595-.167-2.944-.779-4.417-1.344"/><path stroke-width=".607" d="M23.195 42.96c-1.741-.103-3.453-.384-5.04-1.2"/><path stroke-width="1.706" d="M22.715 46.32c.828-.14 1.608-.577 2.4 0"/><path stroke-width="1.214" d="M31.643 60.432c1.005.235 1.883.591 2.592 1.248"/><path stroke-width=".885" d="M29.915 60.72c.663.017 1.247-.131 1.729-.288"/><path stroke-width="1.411" d="M31.643 60.432c-.159-1.297-1.417-1.368-2.208-2.112"/><path stroke-width="1.453" d="M23.915 54.24c-.204-1.066-.966-1.824-1.337-2.571"/><path stroke-width="1.979" d="M7.547 39.888l-.191-.048"/><path stroke-width=".718" d="M4.475 35.76c1.014-.819 2.545-1.591 2.399-3.12"/><path stroke-width="1.018" d="M6.875 32.64c-.319-.029-.64-.132-.96-.24"/><path stroke-width="1.27" d="M.635 27.36c.821-.035 1.599.271 2.4.4"/><path stroke-width="1.011" d="M4.955 27.76c1.458-1.107 3.199.823 4.561-.4"/><path stroke-width="1.389" d="M9.515 27.36c-4.389-4.329-1.568-11.416 5.04-10.48"/><path stroke-width=".725" d="M18.875 12c9.854 1.151 14.938 11.396 20.641 18.48M22.715 27.12c-1.659-2.277-1.562-5.76-4.479-7.04"/><path stroke-width="1.518" d="M5.023 38.982c.755.469 1.586.677 1.972.857"/><path stroke-width=".913" d="M12.635 33.84c-2.279 1.457-4.949 1.642-7.199 3.36"/><path stroke-width=".61" d="M28.475 25.2c.94-.866.082-2.097-.48-2.88"/><path stroke-width=".949" d="M28.475 25.2l-.003.476c.605.869 1.614 1.743 2.781 1.69 2.203 1.563.082 4.488 2.021 5.994"/><path stroke-width="1.28" d="M28.475 25.2c-1.15-.309-1.448-1.762-2.4-2.4"/><path stroke-width=".785" d="M34.715 41.52c2.152.9 3.684 2.978 6.12 3.48"/><path stroke-width="1.46" d="M40.835 45c.411-.564.531-1.052.761-1.56"/><path stroke-width="1.322" d="M40.835 45c.283 1.42 1.318 3.245 3 3"/><path stroke-width=".607" d="M119.67 51.6c.264-.057.375-.265.48-.48"/><path stroke-width=".712" d="M127.35 54c.255-.226.371-.589.479-.96"/><path stroke-width=".607" d="M79.835 54h.96"/><path stroke-width=".724" d="M68.795 58.8c2.403-1.278 4.627-3.708 7.681-3.84"/><path stroke-width=".715" d="M87.035 66c7.045-4.586 15.034-8.473 23.521-10.56"/><path stroke-width=".665" d="M133.59 60.72c-.066.286-.057.53-.043.773.192.241.354.318.515.388 1.06-.421 1.434-1.697 1.93-2.601"/><path stroke-width=".532" d="M36.155 64.56c.856.877 1.659 2.038 1.92 3.36"/><path stroke-width=".586" d="M136.47 68.4c1.239-.964 2.546-2.064 3.359-3.36"/><path stroke-width=".729" d="M152.79 73.2l.329-.144c.745-2.38 2.329-4.484 2.312-7.056"/><path stroke-width=".725" d="M142.24 82.32c.688-.946 1.432-1.819 1.92-2.88"/><path stroke-width=".607" d="M152.31 80.4c.263-.058.375-.266.479-.48M145.59 80.88c.264-.058.375-.266.48-.48"/><path stroke-width="1.456" d="M71.675 86.16c.32.263.641.375.96.48"/><path stroke-width="1.143" d="M71.675 86.16c-.882-.039-1.638-.68-2.502-.824-.591-1.308-.996-2.922-.138-4.216"/><path stroke-width=".728" d="M71.675 86.16l.96-.96"/><path stroke-width=".622" d="M110.08 81.84l-.329.15c-.097.383-.319.642-.53.911-.251 1.756-.083 4.07 1.34 5.179"/><path stroke-width=".578" d="M134.08 85.2c1.524-.202 2.153-1.797 3.359-2.4"/><path stroke-width=".599" d="M140.79 87.6c.2-.439.503-.777.96-.96"/><path stroke-width=".709" d="M132.16 93.36c1.638-.294 3.311-1.187 4.319-2.4"/><path stroke-width=".602" d="M152.55 93.6c-.225.417-.569.71-.721 1.2"/><path stroke-width=".594" d="M141.27 94.8c-.879.269-1.041 1.238-1.439 1.919"/><path stroke-width=".731" d="M144.63 102.24c1.093.305 1.599-.712 2.4-1.201"/><path stroke-width="1.484" d="M142.71 104.4c.373-.927 1.288-1.421 1.92-2.158"/><path stroke-width=".794" d="M144.63 102.24c.13-1.008.917-1.947 1.921-2.16"/><path stroke-width=".588" d="M54.875 102c.349-.031.587.059.82.152.123.403-.11.621-.34.807"/><path stroke-width=".579" d="M74.075 107.28c.48-.172.96-.375 1.44-.48"/><path stroke-width=".681" d="M115.83 110.16c-1.077-.285-3.192.609-2.399 1.92"/><path stroke-width=".655" d="M104.79 117.36c.348 1.11.845 2.291 1.92 2.882"/><path stroke-width=".571" d="M100.48 119.76c-.801 1.062-.625 2.646.239 3.601"/><path stroke-width=".623" d="M113.67 129.6l.407.263c1.632.002 2.846-1.701 3.673-2.902"/><path stroke-width=".962" d="M134.39 160.88c-.938 2.812-2.594 5.363-3.733 8.115 4.3-.332 6.004-7.404 8.693-10.836"/><path stroke-width=".85" d="M67.595 161.76c-.604 1.668-.5 3.85-1.912 5.035-.899-.942-.453-2.635-.248-3.834"/><path stroke-width=".877" d="M37.115 175.92c1.675 1 3.616 2.729 5.445 2.912.088-.738-.729-1.692-.061-2.236.419.029.816.197 1.211.414.437.396.897.516 1.564.83"/><path stroke-width="1.103" d="M47.675 175.68c.507.269 1.151.551 1.921 1.2"/><path stroke-width=".7" d="M46.635 170.4c-1.837.002-2.979-1.509-4.239-2.641"/><path stroke-width="1.138" d="M46.635 170.4c.269-1.624-.776-2.818-1.199-4.24"/><path stroke-width="1.243" d="M46.635 170.4c1.243 4.477 7.107 2.531 7.761 7.439"/><path stroke-width="1.208" d="M119.35 182.96c3.458 1.904 7.129 7.371 11.12 6.158"/><path stroke-width=".916" d="M130.47 189.12c-1.032-1.652-.639-4.106 1.199-5.039"/><path stroke-width=".831" d="M65.675 110.28c.559-.684 1.481-.416 2.16-.841"/><path stroke-width="1.526" d="M66.395 112.32c-.438-.246-.814-.814-1.048-1.215.112-.447.25-.654.327-.824"/><path stroke-width=".648" d="M65.675 110.28c-.04-1.479 1.311-2.688 2.641-3"/><path stroke-width=".728" d="M70.235 175.92c-.228-.928.491-1.558.723-2.375.268-.287.644-.264.957-.196.225.372.222 1.026.166 1.543l-.166.31"/><path stroke-width="1.48" d="M73.595 176.4c.319.02.64.09.96.16"/><path stroke-width=".831" d="M87.515 177.84c-.221-.498-.389-.889-.48-1.439"/><path stroke-width="1.192" d="M90.875 177.84c-.627-.799-.779-1.6-1.2-2.399"/><path stroke-width="2.012" d="M90.875 177.84c.265.006.352.006.431.004.272-.213.403-.868.29-1.443"/><path stroke-width="1.774" d="M90.875 177.84c-.193.32-.338.641-.479.961"/><path stroke-width="1.062" d="M92.315 182.64c3.094 1.26 5.466 4.417 8.882 4.113.652-1.553-.157-3.221-.002-4.834"/><path stroke-width="1.073" d="M88.955 185.52c.497.334.688.53.96.72"/><path stroke-width="1.44" d="M78.395 182c-1.04.453-2.172 1.338-3.36.963-.683-.502-.863-1.145-1.12-1.764"/><path stroke-width="1.27" d="M60.635 183.36c1.214.173 2.348-.267 3.36-.88"/><path stroke-width="1.096" d="M59.195 173.52c-1.086-1.022-1.626-2.562-2.4-3.84"/><path stroke-width="1.042" d="M60.635 171.12c-.667-.302-.881-1.092-1.199-1.681"/><path stroke-width=".842" d="M60.875 167.52c.234 1.319 1.096 2.448.96 3.84"/><path stroke-width="1.329" d="M63.515 171.76c.474-.393.667-.75.96-1.119"/><path stroke-width=".65" d="M64.955 174.48c1.119-2.495 2.297-4.912 2.88-7.68"/><path stroke-width=".813" d="M155.92 174.96c.473-1.431 1.9-2.324 2.16-3.84"/><path stroke-width="1.451" d="M157.59 177.84c2.064-3.437 3.628-7.066 6.378-10.012"/><path stroke-width="1.27" d="M157.59 177.84c-.356 1.555 1.021 2.662.961 4.16"/><path stroke-width="1.518" d="M158.55 182l.96.318"/><path stroke-width="1.319" d="M161.59 180.72c-1.128-1.684-.754-6.122 2.043-5.076.177.457.172 1.104.197 1.716"/><path stroke-width="1.154" d="M169 179.52c-.888-.729-1.089-1.785-1.801-2.64"/><path stroke-width="1.034" d="M169 179.52c1.054-.192 1.99.991 3 .239"/><path stroke-width="1.067" d="M172 179.76c.543-1.748 1.925-3.229 3.359-4.319"/><path stroke-width=".72" d="M179.43 176.88c.261.859.655 1.685 1.199 2.398"/><path stroke-width="1.628" d="M157.18 187.58c.47-.18.732-.351.986-.521"/><path stroke-width="1.518" d="M158.55 182c-.771.283-1.626.022-2.399.318"/><path stroke-width=".588" d="M155.67 185.04h-.96"/><path stroke-width=".831" d="M149.43 188.88c-.309-.48-.585-.961-.96-1.44"/><path stroke-width="1.402" d="M143.67 185.52c-.823.243-1.645 1.274-2.547.647-.744-1.688-.004-3.682-.572-5.447"/><path stroke-width="1.292" d="M144.47 183.12c.257-1.111.257-2.281.641-3.359"/><path stroke-width=".679" d="M151.83 181.68c-.053-.694.149-1.479.24-1.921"/><path stroke-width="1.334" d="M150.88 176.24c-.696.137-1.214.289-1.562.374-.893-1.249-1.482-2.95-1.558-4.532"/><path stroke-width="1.47" d="M152.47 170.64c-.47-1.241.326-2.775-.641-3.84"/><path stroke-width="1.25" d="M154.47 169.68c-.042-1.484 1.111-2.741.721-4.32"/><path stroke-width="1.145" d="M174.74 180.17c.984-1.004 2.01-1.967 2.697-3.291"/><path stroke-width=".96" d="M172 179.76l.96.961"/><path stroke-width="1.731" d="M173.92 182.16l1.439.961"/><path stroke-width=".999" d="M175.35 183.12c.703-.951 1.475-1.732 2.16-2.641"/><path stroke-width="1.41" d="M175.35 183.12c-.188.914-.795 1.873-.329 2.811.863.664 1.874-.145 2.729-.41"/><path stroke-width="1.109" d="M157.59 177.84c-.8.203-1.6.265-2.398 0"/><path stroke-width=".87" d="M169.12 184.8a17.056 17.056 0 0 0 1.92-.721"/><path stroke-width=".854" d="M169 179.52c-.124.323-.279.919-.84 1.681"/></g></g></switch></svg>