<svg xmlns="http://www.w3.org/2000/svg" viewBox="0 0 474.267 474.267"><path d="M474.084 273.424a35.135 35.135 0 0 0-6.88-17.6 35.13 35.13 0 0 0 3.215-18.622c-1.962-19.381-19.323-33.547-38.704-31.592-16.467 1.666-29.167 14.453-31.413 30.147l-43.552 4.406c-8.22-9.284-20.12-15.184-33.307-15.464l-2.24-.047a174.611 174.611 0 0 0-12.441-17.439l39.373-16.574c3.801 5.108 8.932 9.103 14.981 11.567a35.291 35.291 0 0 0 13.334 2.631 35.25 35.25 0 0 0 13.703-2.787c17.953-7.558 26.411-28.312 18.854-46.266a35.12 35.12 0 0 0-11.738-14.81 35.118 35.118 0 0 0-2.388-18.747c-3.66-8.697-10.489-15.448-19.228-19.009-8.739-3.562-18.34-3.506-27.038.155-15.254 6.421-23.647 22.37-21.191 38.033l-40.329 16.977c-10.822-6.607-24.075-8.502-36.396-5.013l-9.793 2.778c-21.549-9.104-44.371-13.731-67.896-13.731-24.703 0-48.369 5.176-69.872 14.572l-1.131-42.727a8.502 8.502 0 0 0-6.873-8.119 8.503 8.503 0 0 0-9.416 4.947l-2.438 5.594a71.734 71.734 0 0 1-17.382 24.334 71.577 71.577 0 0 1-25.76 15.178c-8.355 2.8-14.872 9.156-17.881 17.437-3.011 8.284-2.093 17.344 2.52 24.863l8.482 13.804c-15.78 21.03-26.986 45.861-32.01 73.159A75.758 75.758 0 0 0 0 299.109c0 41.118 33.52 74.57 74.72 74.57h196.57c19.014 0 37.111-7.13 50.96-20.077 12.388-11.583 20.397-26.843 22.9-43.382a45.904 45.904 0 0 0 16.967-16.916l43.55-4.406c2.136 5.999 5.87 11.322 10.93 15.451 6.366 5.197 14.163 7.963 22.271 7.963 1.201 0 2.411-.061 3.622-.183 9.389-.95 17.845-5.499 23.813-12.809s8.73-16.507 7.781-25.896zM355.211 119.043a18.302 18.302 0 0 1 7.109-1.445c2.341 0 4.684.455 6.917 1.365a18.214 18.214 0 0 1 9.976 9.862c1.786 4.243 1.896 8.986.308 13.355a8.502 8.502 0 0 0 4.482 10.646c4.234 1.918 7.55 5.312 9.336 9.555 3.92 9.313-.468 20.081-9.781 24.002a18.213 18.213 0 0 1-14.026.081 18.214 18.214 0 0 1-9.976-9.862c-1.786-4.243-1.896-8.986-.308-13.354a8.5 8.5 0 0 0-4.482-10.647c-4.234-1.917-7.55-5.31-9.336-9.553-3.92-9.317.467-20.084 9.781-24.005zm-13.644 55.916l-33.377 14.05a46.037 46.037 0 0 0-2.805-9.356 45.766 45.766 0 0 0-4.739-8.528l33.392-14.057a35.108 35.108 0 0 0 7.462 7.383 35.116 35.116 0 0 0 .067 10.508zm-51.853 11.284c.194.461.375.926.544 1.394a174.797 174.797 0 0 0-25.077-18.914 28.907 28.907 0 0 1 15.724 6.009 28.683 28.683 0 0 1 8.809 11.511zm-250.449 3.361a11.691 11.691 0 0 1-1.029-10.162 11.684 11.684 0 0 1 7.306-7.124c11.887-3.984 22.6-10.296 31.841-18.762a89.453 89.453 0 0 0 8.425-8.842l.548 20.714a175.194 175.194 0 0 0-41.606 33.1l-5.485-8.924zM271.29 356.679H74.72c-31.827 0-57.72-25.826-57.72-57.57 0-3.517.326-7.074.969-10.571 13.77-74.816 78.974-129.119 155.041-129.119 22.181 0 43.672 4.542 63.868 13.498a158.317 158.317 0 0 1 37.013 23.014 157.428 157.428 0 0 1 26.507 28.28l-66.952-1.423c-16.248-.36-31.919 6.311-42.953 18.261a56.85 56.85 0 0 0-14.787 44.268 56.852 56.852 0 0 0 23.354 40.409 56.848 56.848 0 0 0 45.74 9.286l81.455-18.464c-7.519 23.289-29.608 40.131-54.965 40.131zm57.543-58.146l-87.791 19.9a39.856 39.856 0 0 1-32.056-6.508 39.84 39.84 0 0 1-16.367-28.32 39.845 39.845 0 0 1 10.362-31.023 39.845 39.845 0 0 1 30.103-12.798l89.998 1.913c14.514.308 26.56 11.432 28.021 25.875s-8.113 27.752-22.27 30.961zm39.184-32.674a45.598 45.598 0 0 0-2.02-9.543l36.037-3.646a35.104 35.104 0 0 0 4.969 9.245 35.126 35.126 0 0 0-3.018 10.066l-36.037 3.646c.363-3.192.403-6.46.069-9.768zm85.117 22.711a18.21 18.21 0 0 1-12.354 6.645 18.201 18.201 0 0 1-13.434-4.036 18.207 18.207 0 0 1-6.645-12.354c-.464-4.58.822-9.146 3.622-12.858a8.5 8.5 0 0 0-1.163-11.493c-3.486-3.075-5.661-7.291-6.124-11.871-1.018-10.055 6.335-19.062 16.389-20.079a18.515 18.515 0 0 1 1.859-.094c9.281 0 17.266 7.054 18.22 16.484.463 4.581-.823 9.147-3.622 12.857a8.501 8.501 0 0 0 1.162 11.493c3.486 3.075 5.661 7.292 6.125 11.873.494 4.87-.94 9.64-4.035 13.433z"/><path d="M149.519 254.219l-6.103.365c-20.295 1.217-40.267-6.26-54.78-20.508-6.291-6.176-14.929-9.101-23.664-8.017-8.749 1.081-16.403 6.013-21.003 13.533l-17.42 28.485a8.5 8.5 0 0 0 2.817 11.686c4.005 2.451 9.236 1.188 11.687-2.817l17.42-28.485a11.687 11.687 0 0 1 8.583-5.531 11.693 11.693 0 0 1 9.671 3.276c11.938 11.719 26.857 19.73 42.9 23.336l-22.155 12.034a4.432 4.432 0 0 1-5.234-.767c-5.368-5.404-12.989-7.529-20.376-5.683-7.391 1.846-13.115 7.302-15.313 14.595l-3.919 13.004a8.5 8.5 0 0 0 5.687 10.591 8.512 8.512 0 0 0 2.455.364 8.506 8.506 0 0 0 8.136-6.05l3.919-13.004c.652-2.166 2.424-2.824 3.154-3.007.732-.183 2.604-.434 4.198 1.171 6.658 6.702 17.107 8.232 25.409 3.723l48.496-26.343a8.499 8.499 0 0 0 4.114-9.807 8.487 8.487 0 0 0-8.679-6.144z"/></svg>