<svg xmlns="http://www.w3.org/2000/svg" width="516" height="472" overflow="visible"><g fill-rule="evenodd" clip-rule="evenodd"><path d="M483.85 40.228l1.465 1.425c.051-1.474.895-3.347-.773-4.275-.981-.546-2.197-.222-3.052.407.839.767 1.593 1.606 2.36 2.443m22.621 45.956c-.264-3.883-.567-7.342-2.767-10.644-1.974-2.962-4.549-5.616-7.689-7.347-3.214-1.77-6.203-2-7.813-5.415-.349-.739-1.043-.778-.772-1.729.24-.84 1.411-.678 1.952-.305.016-1.127.313-4.62-.569-5.007.7-1.507-.411-4.797-.447-6.635-.745.44-1.482.895-2.196 1.383.66-1.061 1.325-2.118 1.993-3.174-1.219-.26-1.89-1.358-1.587-2.564-3.47-.083-7.544-6.109-9.521-8.548-.146 2.114-2.267.139-2.807-.571-.755-.99-1.35-2.442-2.076-3.174-1.189-1.199-2.713-2.181-4.087-3.155-2.731-1.933-5.597-3.721-8.646-5.108-2.441-1.11-4.679-2.8-7.12-4.111.531 1.059.948 2.121 1.466 3.174-.818-.64-4.561-4.269-5.515-4.009-2.016.55.447 2.708.998 3.319-.831-.394-7.508-3.124-3.946-.652-1.08-.376-3.398-2.144-3.459 0-1.993-.557-4.975-.739-6.509-1.71-1.099-.693-2.826-2.452-4.15-2.402.246.641.759 1.355 1.058 2.036-3.635-1.435-7.277-.665-11.034-.54-1.35.045-2.726-.202-4.06-.09-1.09.09-1.727 1.043-2.679 1.021-8.627-.216-16.056 1.894-24.377 3.558-16.271 3.253-29.62 12.291-40.277 24.872-5.589 6.597-10.319 13.901-15.46 20.849-4.199 5.677-7.407 12.058-12.776 16.723-5.781 5.025-13.563 8.717-20.535 11.856-3.353 1.509-6.772 3.358-10.426 4.019-3.808.688-7.661-.083-11.493.317-3.889.405-8.607-1.919-12.337-3.045-4.181-1.261-8.424-2.334-12.654-3.414-8.034-2.051-16.216-3.585-24.419-4.772-9.042-1.308-18.078-2.643-27.131-3.866-8.607-1.164-17.316-1.894-25.74-4.086-15.89-4.14-23.176-20.612-35.683-29.708-6.946-5.053-14.49-8.385-23.086-9.248a37.913 37.913 0 0 0-6.102-.122c-1.605.095-3.037-2.732-4.252-3.949-2.959-2.96-6.185-5.528-9.775-7.683-1.419-.853-2.559-1.951-4.241-2.371-2.295-.575-3.512.238-5.269-1.466a404.322 404.322 0 0 0-9.39-8.798C72.818 14.201 66.743 9.294 58.289 7.47c-2.028-.436-4.085-.79-6.166-.829-1.795-.034-3.24-.715-5.024-.79-1.853-.077-2.719 1.317-4.209 1.592-2.404.448-4.806.891-7.201 1.386-8.222 1.697-11.518 9.266-11.846 17.151-.267 6.395-1.115 12.424-.977 18.938.147 6.901 1.488 13.672 3.322 20.303-7.098.825-7.796 11.598-5.249 16.485-3.493 1.213-5.63 4.781-5.94 8.346-.127 1.462.008 3.041.61 4.396.667 1.5 2.12 2.398 2.035 3.583-.095 1.321-1.083 3.048-1.18 4.64-.119 1.951-.068 3.961.203 5.902.487 3.48 1.786 6.939 3.539 9.972-2.998.48-7.148.894-7.648 4.6-.446 3.308.968 7.043.712 10.503-.523 7.067 3.922 14.563 9.865 18.195.499.305 2.167.784 2.441 1.222.24.382-.023 2.193 0 2.687.085 1.834.273 3.724.633 5.527.681 3.408 1.801 6.684 3.45 9.747 3.462 6.433 9.001 11.054 15.25 14.642.214.123.429.245.643.369-2.083 2.486-2.73 5.901-3.119 9.01-.517 4.138-1.15 8.157-.501 12.321 1.256 8.061 6.623 13.307 13.426 17.217-.666.786-1.549 1.434-2.194 2.249-.532.673-1.916 1.286-2.24 1.946-.132.266.582.651.427 1.139-.854 2.685-.192 3.274 1.606 5.291-1.688.937-4.355 4.545-.529 4.194-.4 1.72-4.142 1.481-3.743 3.866.402 2.404 3.373.786 4.76.204-1.249 1.682-5.355 1.786-6.103 3.745-1.028 2.695 2.096 2.338 3.581 1.792.63 1.607-4.307 2.295-5.004 3.949-.381.905-.021 1.657.712 2.097 1.063.637 1.811-.152 2.868-.672-.863 1.272-2.292 2.703-2.705 4.192-.122.437.044.729-.021 1.099-.144.82-.198 1.544-.529 2.604.899-.753 1.813-1.175 2.522 0-1.255.804-4.592 5.333-.936 4.397-1.308 1.961-.977 3.676 1.383 3.988.996.132 1.939-.494 2.727-.122.865.408 1.246 1.748 1.627 2.484 1.266 2.443 2.699 4.645 4.507 6.722.898 1.032 1.954 1.964 3 2.844 1.506 1.268 1.077 1.315.712 3.176-.394 2.01-.678 5.313.447 7.143.532.865 1.601 1.358 2.542 1.649 1.332.409 1.52.514 2.36 1.688.65.91-.131 2.319.752 3.317.766.866 1.813.741 2.807.856 1.793.207 3.865.474 5.697-.204-1.881 1.513-5.393 3.722-5.249 6.595.121 2.402 3.604 2.466 5.614 1.791 0 2.315.903 3.349 3.417 2.89 1.182-.216 1.632-1.087 2.604-1.507 1.28-.553.524-.181 1.953 0 2.651.336 4.094.933 5.082 3.898.898 2.697.309 5.337.449 8.172.092 1.873-1.329 10.819 2.403 9.688 1.229-.373 2.355-1.363 3.581-1.363 1.468 0 2.871-.688 4.19-1.303-2.1 1.72-1.546 9.201 1.913 8.629.445-.074 1.717-1.184 1.993-.976.493.368 1.025.618 1.648.55 1.143-.128 2.013-1.04 3.193-1.16-.242 1.47.698 2.086 1.974 2.136 1.754.072 3.289.88 4.333 2.301.92 1.256 1.159 2.89 2.091 4.15 1.414 1.913 3.25 3.471 5.197 4.828 1.954 1.362 3.956 2.462 6.116 3.457 1.368.629.424 3.69 1.323 5.189 2.08 3.467 6.092 1.549 7.324-1.263 2.427 3.664 4.079 6.679 8.991 4.112 1.338 3.885 5.802 5.913 8.259 9.078 1.344 1.732 2.81 3.037 4.921 3.722 1.651.534 4.351-.507 5.301.725 2.228 2.886 4.468 6.91 8.614 6.829 3.237-.063 3.877-2.835 3.947-5.659 1.678 1.729 2.662 2.521 3.173 4.845.469 2.133 1.16 4.203 1.647 6.324.942 4.115 1.422 8.129 1.571 12.342.278 7.868.497 15.521-1.304 23.221-.495 2.116-.064 7.979-1.627 9.443-.715.669-4.222.848-5.29 1.182-2.104.659-4.075 1.585-6.033 2.586-1.821.932-6.164 4.406-3.813 6.897 1.877 1.988 5.198-.357 7.039-.854 1.464-.396 3.019.172 4.556.204 1.685.035 3.17-.813 4.068.712 1.911 3.245 5.604 3.507 9.032 3.847 2.79.276 5.969 2.334 8.422 3.867 3.183 1.989 7.781 1.777 11.418 1.995 4.334.258 8.66.394 13.002.444 1.937.022 3.878-.041 5.815-.063 1.902-.021 2.705 1.321 4.376 2.157 1.398.699 2.888 1.046 4.447 1.146 1.371.089 3.358 1.557 4.698 2.196 1.668.799 3.323 1.904 4.537 3.317 1.007 1.173 1.335 2.866 2.44 3.908 3.893 3.667 4.892-1.852 5.469-4.677.827-4.045-3.063-7.076-5.998-9.408 4.73.166 9.7-1.493 14.322-.589 2.909.568 5.218 1.844 7.516 3.684.664.532 1.739 1.019 2.289 1.629.687.76.438 1.957 1.058 2.727 2.654 3.3 4.139-2.571 3.987-4.274-.383-4.301-5.646-7.673-9.235-9.647 4.735 1.1 10.264 2.264 14.401 4.963 3.309 2.157 4.896 5.905 7.201 8.593 2.748 3.204 4.403.044 4.721-3.216.485-4.98-1.49-9.083-5.452-11.927 2.389-.679.817-4.699-.077-6.013-1.989-2.921-5.688-4.784-9.118-5.386 2.856-1.107 6.121-.61 8.625 1.06 1.404.936 1.57 1.61 1.994 3.093.294 1.031 1.04 2.687 2.116 3.135 1.626.68 3.738-.816 4.353-2.279.92-2.19-.356-4.94-1.505-6.799-8.175-13.215-28.89-5.021-40.777-4.09-3.581.281-7.144.425-10.738.353-3.417-.068-5.078.141-5.078-3.568 0-2.87.531-5.783.285-8.65-.288-3.336-1.345-6.846-2.295-10.045-1.979-6.67-3.306-13.504-4.064-20.418-.163-1.489-.325-2.992-.378-4.49-.019-.526-.392-2.313-.098-2.741.339-.493 1.5.304 1.77-.509.387-1.166-.582-2.365-1.096-3.395-.809-1.619-.574-3.144-.388-4.93 1.066 1.381 2.561 1.674 3.442 3.184.55.942 1.129 2.857 2.293 2.271-1.897-3.064-2.276-5.327-3.744-8.548.599.633.926 1.292 1.669 1.791-1.094-1.649-1.414-3.438-2.581-5.246-.637-.987-1.784-3.95-1.285-5.012 2.042 3.764 4.463 7.343 6.331 11.192.731 1.505 1.521 2.39 2.866 3.34.811.572 1.65 1.422 2.562 1.832-.547-1.048-1.038-1.742-.569-2.89.527.257 1.596.334 1.975.712.418.42 1.282 1.97 1.81 2.056 1.428.232-.687-1.979-.841-2.19-1.919-2.618-3.215-6.77-4.814-9.818.637.778 1.379 1.44 2.158 2.076.002-.183.109-.257.202-.366-3.021-2.984-4.508-8.726-5.736-12.619 3.113 4.438 6.527 9.28 10.253 12.985 1.251 1.244 5.082 2.565 3.072-.428-1.956-2.912-3.684-5.932-5.269-9.057 2.429 3.356 4.852 9.188 9.602 8.63-.751-.646-1.23-1.613-.651-2.525.495.417 5.19 3.385 4.454 1.914-.314-.629.156-.902-.262-1.574-.753-1.212-1.493-2.401-2.443-3.474 2.065 1.703 4.368 3.106 6.307 4.905.688.639 1.321 1.563 2.034.673.377-.474-1.311-2.095-1.668-2.525l.854.611c-1.016-1.695-2.525-2.987-3.581-4.6-.906-1.381-1.468-2.926-2.606-4.246-1.022-1.187-.094-2.141.594-3.101.457-.642 3.602.409 4.401.475 4.065.34 7.284-1.879 10.989-3.087 3.941-1.285 7.914-2.492 11.807-3.922 7.889-2.896 15.98-5.992 23.575-9.566 3.015-1.419 5.425-3.509 8.26-5.129 2.964-1.693 4.622-4.98 8.243-5.282 14.936-1.244 31.018-6.958 42.954-16.142 12.047-9.267 20.615-22.146 26.125-36.277 6.078-15.59 10.932-31.754 18.538-46.72 3.729-7.335 7.561-14.145 12.822-20.512 4.927-5.961 9.115-11.079 11.867-18.433 2.602-6.955 2.042-14.135 2.585-21.375.604-8.052-.167-16.313.874-24.311.54-4.141 1.114-8.411 2.413-12.396 1.359-4.167 3.283-8.064 4.726-12.177 1.074-3.065 1.184-5.99.591-9.16-.103-.54 2.351-3.403 2.949-3.786 1.085-.693 2.548-.271 3.946-.386 3.861-.323 6.322-3.986 8.788-6.453.945-.945 1.608-2.25 2.292-3.389.756-1.26 2.32-1.974 3.498-2.775 2.355-1.599 4.956-3.006 7.514-4.257 3.589-1.757 3.758-1.498 7.12.122a36.7 36.7 0 0 0 8.297 2.841c4.429.933 9.094-.641 11.109 4.12.463-1.126.262-2.226.203-3.421M195.516 352.606c.05-.347.05-.351 0 0m4.191 16.365a83.867 83.867 0 0 1-.529-3.989c.167.906.972 3.76.529 3.989m15.337-1.629c.547 1.951 3.375 4.274 2.727 6.188-.592-1.888-2.351-2.261-2.646-4.029-.487-2.927-2.1-5.892-2.073-8.833.664 2.224 1.329 4.449 1.992 6.674m-.163 3.38c-1.175.293-1.412-.614-1.503-1.67.513.559 1.043 1.086 1.503 1.67m3.663 46.974c-.279 3.732-.975 7.332-1.912 10.95-8.201-13.087-12.958-27.787-12.125-43.353 1.578.762 1.838 2.247 2.646 3.745.329-.339.425-.287.174-.865-.673-1.556-.427-1.969-.54-3.286-.218-2.507-1.191-5.03-1.792-7.491 1.899 1.73 2.383 4.194 3.414 6.512 1.437 3.233 2.066 2.443 1.103-.486.797.521 1.108 1.832 1.79 2.646-.112-.572-1.25-2.4-.996-2.992.387-.903.199-1.24-.146-2.164-.926-2.475-3.198-6.188-2.804-8.928 2.105 4.064 2.481 9.149 5.41 12.66-1.63-7.495-3.279-15.384-4.393-23.284.344 2.284 1.599 4.283 2.216 6.492.516 1.846.979 3.037 1.097 4.601.394 5.233 2.179 10.076 3.358 15.162 2.249 9.685 3.869 20.118 3.5 30.081m.529-48.725c-.062-.533-.003-.033 0 0m2.929 62.403c-.228.021.052-.005 0 0m63.225 9.933c.24.064.43.059.651.203-.438-.104-.896-.25-1.302-.366l.651.163M426.158 26.795c.478.177.72-.005.936.488l-.936-.488m54.884 39.241c-.267-.079-.57.404-.407-.244l.936.122-.529.122m-5.776-33.664c-.154.105-.214.147 0 0"/><path fill="#A51C21" d="M484.867 37.215c.522-1.769-1.507-4.797-2.728-2.238-.763-.643-.309-1.756-1.239-2.421-1.481-1.058-2.639.797-2.503 2.218-3.723-2.843-4.481-3.103-5.493 1.446-.307 1.383.774 1.908.774 2.971 0 2.282 1.248 4.311 2.206 6.303 1.635 3.392 4.174 7.562 2.265 11.129-.821 1.535-1.831 2.421-3.169 3.389-.987.714-2.97 1.702-2.117 3.093-5.418.605-8.834-8.684-12.083-11.662-2.662-2.44-5.549-2.947-8.869-3.846-.181-.048-.157-.64-.65-.691-.768-.082-1.549.209-2.278.407-1.18.318-2.162.833-3.451.809-3.81-.067-6.794 1.354-10.451 1.877-2.309.328-3.27 1.01-1.68 2.564 1.26 1.231 2.278 2.003 3.052 3.745.691 1.557.587 3.939 1.342 5.292.41.735.517 1.138 1.506 1.038 1.018-.103 1.202 2.97.834 3.174l-.184.103c-.367-.619-2.219-1.38-2.664-.488-.374.748.56.759.59 1.14.052.658-.022 1.939.04 2.89a40.925 40.925 0 0 0-6.163-1.038c-2.054-.193-2.678-.673-4.496-1.2-.264-.077-1.655.142-1.749.081-.704-.457-1.163-2.166-1.627-2.89-.755-1.177-1.587-1.983-1.751-3.462.936.766 2.15 1.459 3.378 1.019-.633-.504-1.745-1.549-2.198-2.239-.373-.57-.22-1.835-1.017-2.198-3.395-1.547-1.87 7.554-2.237 8.467-.336.833-1.903 1.236-2.441 2.239-.259.484-.289 1.38-.468 1.954-.224.718-.443 2.239.306 2.401.175.038.776-1.109 1.302-1.22-1.066 1.515-.6 7.067-.089 9.036.786 3.033 2.34 5.117 3.688 7.816.609 1.221 2.104 2.113 2.869 3.297.932 1.439 1.535 3.013 1.919 4.721.691 3.06 1.179 6.972 2.963 9.648.981 1.473 2.845.077 3.662-.693 1.976-1.857 1.491-4.219 2.726-6.227 4.049-6.578 12.969-11.058 19.732-14.066 1.746-.776 3.757-1.759 5.695-1.81-7.797 4.567-16.525 7.681-22.905 14.573-2.998 3.239 1.016 3.27 3.702 4.071 1.338.398 1.737.299 2.299 1.425.72 1.442 3.838-.69 4.617-1.263-.307.863-2.041 3.591-1.586 4.111 1.017 1.166 4.979-5.245 5.411-5.657 2.263-2.16 6.108-1.635 8.828-3.216 2.032-1.181 3.741-3.351 4.842-5.413.579-1.088.907-2.264 1.221-3.441.206-.776 2.874-1.502 3.54-1.803 2.76-1.235-.563-2.443-1.466-3.347-2.052-2.052 5.357-4.94 6.836-5.128 3.404-.433 7.13.469 10.618.285.427-.022.841.585 1.302.244.696-.515-.025-.783.081-.936-.151.217-.624-.291-.365-.652.109-.153.888.293 1.058.041.54-.808 1.492-.467-.285-1.302-1.849-.87-4.805.205-6.795.203-3.613-.004-6.768-.983-10.374-.773-4.264.247-8.169.117-12.449.732-.073-.208-.275-1.084-.285-1.303 2.471-.977 4.681-2.646 7.182-2.646.976 0 1.479-.439 2.339-.652 1.24-.307 2.354-.357 3.748-.262 1.891.129 6.012 4.132 7.988 1.932.958-1.065 1.221-2.163.753-3.622 1.713 1.181.867-.423 1.099-1.059.351-.961-.103-1.124.774-1.892.748-.657 2.392-.477 3.295-.306 1.044.198 3.586 2.416 4.271.693.24-.604-.52-1.43-.895-1.956 3.392-.201 3.563-.703 1.057-3.052-.144-.135-1.608-.215-1.017-.61.502-.336.706-.617.61-1.222-.306-1.941-2.498-1.389-.875-3.602 1.916-2.612 2.331-2.87 1.119-5.903-.432-1.08 1.502-5.05-1.383-4.621.448-1.307 1.824-3.83 1.139-5.209-.875-1.762-2.118-.774-3.051.447-1.754 2.293-1.678 1.387-1.424-1.282.118-1.254-.193-2.345-1.628-2.505m-33.606 11.602c4.545.526 8.14 2.608 10.943 6.269-.21.708-.779.309-1.18.772-.454.528-1.062-.081-1.168.821-.087.728.011 1.795-.438 2.396-1.613 2.152-3.901 3.341-6.775 3.093-2.504-.214-4.693-1.786-6.164-3.744-1.307-1.745-1.185-4.347-3.029-5.659.978-.553 1.808-1.321 2.766-1.873 1.772-1.02 3.917-1.12 6.007-.655 1.629.362 3.34 1.302 4.612 2.365.974.812 1.414 1.846 2.848 1.913-.219-2.815-6.039-5.377-8.422-5.698m-8.219 6.676c1.363 5.142 6.243 9.247 11.678 8.426 2.372-.358 5.609-1.216 7.2-3.093-2.565 2.971-5.984 4.463-9.928 4.315-2.965-.112-4.909-1.024-6.834-3.339-1.164-1.401-3.684-5.681-2.401-7.448.094.375.222.754.285 1.139m38.528.447c-.064.132-.096.195 0 0m-9.194 21.045c-3.741.238-7.848.945-11.738 1.819-1.813.408-5.368 1.846-7.058.907 1.877-.555 3.22-1.592 4.719-2.727-.188 1.68 4.11.081 5.087-.041 2.997-.37 5.998-.241 8.99.042m-40.767 15.998c.034-.209-.05-.526-.081-.734l.366.082c-.175.195-.244.398-.285.652m1.587 7.896c-.174.292-.278.463 0 0"/><path fill="#FC3" d="M450.406 50.853c-5.702 2.027-3.214 11.365 2.828 11.011 7.04-.414 4.035-12.412-2.828-11.011m1.464 8.751c-4.061-1.567-1.747-8.353 1.873-5.903 2.36 1.598 1.286 6.702-1.873 5.903"/></g></svg>